G04 start of page 3 for group 1 idx 1 *
G04 Title: (unknown), bottom *
G04 Creator: pcb 20140316 *
G04 CreationDate: Thu 30 Aug 2018 07:28:31 PM GMT UTC *
G04 For: railfan *
G04 Format: Gerber/RS-274X *
G04 PCB-Dimensions (mil): 1875.00 1000.00 *
G04 PCB-Coordinate-Origin: lower left *
%MOIN*%
%FSLAX25Y25*%
%LNBOTTOM*%
%ADD46C,0.0433*%
%ADD45C,0.0390*%
%ADD44C,0.0380*%
%ADD43C,0.0200*%
%ADD42C,0.0360*%
%ADD41C,0.0633*%
%ADD40C,0.0600*%
%ADD39C,0.0450*%
%ADD38C,0.0100*%
%ADD37C,0.0750*%
%ADD36C,0.0001*%
G54D36*G36*
X100996Y38500D02*X134941D01*
X135000Y38495D01*
X135235Y38514D01*
X135235Y38514D01*
X135465Y38569D01*
X135683Y38659D01*
X135884Y38783D01*
X136064Y38936D01*
X136102Y38981D01*
X137121Y40000D01*
X138221D01*
X137849Y39772D01*
X137514Y39486D01*
X137228Y39151D01*
X136997Y38775D01*
X136829Y38368D01*
X136726Y37939D01*
X136691Y37500D01*
X136726Y37061D01*
X136767Y36889D01*
X135655Y35776D01*
X100996D01*
Y38500D01*
G37*
G36*
X175613Y98500D02*X186000D01*
Y62085D01*
X185652Y62653D01*
X185192Y63192D01*
X184653Y63652D01*
X184049Y64022D01*
X183395Y64293D01*
X182706Y64458D01*
X182000Y64514D01*
X181294Y64458D01*
X180605Y64293D01*
X179951Y64022D01*
X179347Y63652D01*
X178808Y63192D01*
X178348Y62653D01*
X177978Y62049D01*
X177707Y61395D01*
X177542Y60706D01*
X177486Y60000D01*
X177542Y59294D01*
X177707Y58605D01*
X177978Y57951D01*
X178348Y57347D01*
X178808Y56808D01*
X179347Y56348D01*
X179951Y55978D01*
X180605Y55707D01*
X181294Y55542D01*
X182000Y55486D01*
X182706Y55542D01*
X183395Y55707D01*
X184049Y55978D01*
X184653Y56348D01*
X185192Y56808D01*
X185652Y57347D01*
X186000Y57915D01*
Y52085D01*
X185652Y52653D01*
X185192Y53192D01*
X184653Y53652D01*
X184049Y54022D01*
X183395Y54293D01*
X182706Y54458D01*
X182000Y54514D01*
X181294Y54458D01*
X180605Y54293D01*
X179951Y54022D01*
X179347Y53652D01*
X178808Y53192D01*
X178348Y52653D01*
X177978Y52049D01*
X177707Y51395D01*
X177542Y50706D01*
X177486Y50000D01*
X177542Y49294D01*
X177707Y48605D01*
X177978Y47951D01*
X178348Y47347D01*
X178808Y46808D01*
X179347Y46348D01*
X179951Y45978D01*
X180605Y45707D01*
X181294Y45542D01*
X182000Y45486D01*
X182706Y45542D01*
X183395Y45707D01*
X184049Y45978D01*
X184653Y46348D01*
X185192Y46808D01*
X185652Y47347D01*
X186000Y47915D01*
Y44119D01*
X185884Y44217D01*
X185683Y44341D01*
X185465Y44431D01*
X185235Y44486D01*
X185000Y44500D01*
X178765Y44486D01*
X178535Y44431D01*
X178317Y44341D01*
X178116Y44217D01*
X177936Y44064D01*
X177783Y43884D01*
X177659Y43683D01*
X177569Y43465D01*
X177514Y43235D01*
X177500Y43000D01*
X177514Y36765D01*
X177569Y36535D01*
X177659Y36317D01*
X177783Y36116D01*
X177936Y35936D01*
X178116Y35783D01*
X178317Y35659D01*
X178535Y35569D01*
X178765Y35514D01*
X179000Y35500D01*
X185235Y35514D01*
X185465Y35569D01*
X185683Y35659D01*
X185884Y35783D01*
X186000Y35881D01*
Y1500D01*
X175613D01*
Y37302D01*
X175652Y37347D01*
X176022Y37951D01*
X176293Y38605D01*
X176458Y39294D01*
X176500Y40000D01*
X176458Y40706D01*
X176293Y41395D01*
X176022Y42049D01*
X175652Y42653D01*
X175613Y42698D01*
Y47302D01*
X175652Y47347D01*
X176022Y47951D01*
X176293Y48605D01*
X176458Y49294D01*
X176500Y50000D01*
X176458Y50706D01*
X176293Y51395D01*
X176022Y52049D01*
X175652Y52653D01*
X175613Y52698D01*
Y57853D01*
X175656Y57860D01*
X175768Y57897D01*
X175873Y57952D01*
X175968Y58022D01*
X176051Y58106D01*
X176119Y58202D01*
X176170Y58308D01*
X176318Y58716D01*
X176422Y59137D01*
X176484Y59567D01*
X176505Y60000D01*
X176484Y60433D01*
X176422Y60863D01*
X176318Y61284D01*
X176175Y61694D01*
X176122Y61800D01*
X176053Y61896D01*
X175970Y61981D01*
X175875Y62051D01*
X175769Y62106D01*
X175657Y62143D01*
X175613Y62151D01*
Y98500D01*
G37*
G36*
Y42698D02*X175192Y43192D01*
X174653Y43652D01*
X174049Y44022D01*
X173395Y44293D01*
X172706Y44458D01*
X172002Y44514D01*
Y45486D01*
X172706Y45542D01*
X173395Y45707D01*
X174049Y45978D01*
X174653Y46348D01*
X175192Y46808D01*
X175613Y47302D01*
Y42698D01*
G37*
G36*
Y1500D02*X172002D01*
Y35486D01*
X172706Y35542D01*
X173395Y35707D01*
X174049Y35978D01*
X174653Y36348D01*
X175192Y36808D01*
X175613Y37302D01*
Y1500D01*
G37*
G36*
X172002Y98500D02*X175613D01*
Y62151D01*
X175540Y62163D01*
X175421Y62164D01*
X175304Y62146D01*
X175191Y62110D01*
X175085Y62057D01*
X174988Y61988D01*
X174904Y61905D01*
X174833Y61809D01*
X174779Y61704D01*
X174741Y61592D01*
X174722Y61475D01*
X174721Y61356D01*
X174739Y61239D01*
X174777Y61126D01*
X174876Y60855D01*
X174944Y60575D01*
X174986Y60289D01*
X175000Y60000D01*
X174986Y59711D01*
X174944Y59425D01*
X174876Y59145D01*
X174780Y58872D01*
X174742Y58761D01*
X174725Y58644D01*
X174725Y58526D01*
X174745Y58409D01*
X174782Y58297D01*
X174836Y58193D01*
X174906Y58098D01*
X174991Y58015D01*
X175087Y57946D01*
X175192Y57893D01*
X175305Y57857D01*
X175421Y57840D01*
X175539Y57841D01*
X175613Y57853D01*
Y52698D01*
X175192Y53192D01*
X174653Y53652D01*
X174049Y54022D01*
X173395Y54293D01*
X172706Y54458D01*
X172002Y54514D01*
Y55495D01*
X172433Y55516D01*
X172863Y55578D01*
X173284Y55682D01*
X173694Y55825D01*
X173800Y55878D01*
X173896Y55947D01*
X173981Y56030D01*
X174051Y56125D01*
X174106Y56231D01*
X174143Y56343D01*
X174163Y56460D01*
X174164Y56579D01*
X174146Y56696D01*
X174110Y56809D01*
X174057Y56915D01*
X173988Y57012D01*
X173905Y57096D01*
X173809Y57167D01*
X173704Y57221D01*
X173592Y57259D01*
X173475Y57278D01*
X173356Y57279D01*
X173239Y57261D01*
X173126Y57223D01*
X172855Y57124D01*
X172575Y57056D01*
X172289Y57014D01*
X172002Y57000D01*
Y63000D01*
X172289Y62986D01*
X172575Y62944D01*
X172855Y62876D01*
X173128Y62780D01*
X173239Y62742D01*
X173356Y62725D01*
X173474Y62725D01*
X173591Y62745D01*
X173703Y62782D01*
X173807Y62836D01*
X173902Y62906D01*
X173985Y62991D01*
X174054Y63087D01*
X174107Y63192D01*
X174143Y63305D01*
X174160Y63421D01*
X174159Y63539D01*
X174140Y63656D01*
X174103Y63768D01*
X174048Y63873D01*
X173978Y63968D01*
X173894Y64051D01*
X173798Y64119D01*
X173692Y64170D01*
X173284Y64318D01*
X172863Y64422D01*
X172433Y64484D01*
X172002Y64505D01*
Y98500D01*
G37*
G36*
X168387Y37302D02*X168808Y36808D01*
X169347Y36348D01*
X169951Y35978D01*
X170605Y35707D01*
X171294Y35542D01*
X172000Y35486D01*
X172002Y35486D01*
Y1500D01*
X168387D01*
Y37302D01*
G37*
G36*
Y47302D02*X168808Y46808D01*
X169347Y46348D01*
X169951Y45978D01*
X170605Y45707D01*
X171294Y45542D01*
X172000Y45486D01*
X172002Y45486D01*
Y44514D01*
X172000Y44514D01*
X171294Y44458D01*
X170605Y44293D01*
X169951Y44022D01*
X169347Y43652D01*
X168808Y43192D01*
X168387Y42698D01*
Y47302D01*
G37*
G36*
Y98500D02*X172002D01*
Y64505D01*
X172000Y64505D01*
X171567Y64484D01*
X171137Y64422D01*
X170716Y64318D01*
X170306Y64175D01*
X170200Y64122D01*
X170104Y64053D01*
X170019Y63970D01*
X169949Y63875D01*
X169894Y63769D01*
X169857Y63657D01*
X169837Y63540D01*
X169836Y63421D01*
X169854Y63304D01*
X169890Y63191D01*
X169943Y63085D01*
X170012Y62988D01*
X170095Y62904D01*
X170191Y62833D01*
X170296Y62779D01*
X170408Y62741D01*
X170525Y62722D01*
X170644Y62721D01*
X170761Y62739D01*
X170874Y62777D01*
X171145Y62876D01*
X171425Y62944D01*
X171711Y62986D01*
X172000Y63000D01*
X172002Y63000D01*
Y57000D01*
X172000Y57000D01*
X171711Y57014D01*
X171425Y57056D01*
X171145Y57124D01*
X170872Y57220D01*
X170761Y57258D01*
X170644Y57275D01*
X170526Y57275D01*
X170409Y57255D01*
X170297Y57218D01*
X170193Y57164D01*
X170098Y57094D01*
X170015Y57009D01*
X169946Y56913D01*
X169893Y56808D01*
X169857Y56695D01*
X169840Y56579D01*
X169841Y56461D01*
X169860Y56344D01*
X169897Y56232D01*
X169952Y56127D01*
X170022Y56032D01*
X170106Y55949D01*
X170202Y55881D01*
X170308Y55830D01*
X170716Y55682D01*
X171137Y55578D01*
X171567Y55516D01*
X172000Y55495D01*
X172002Y55495D01*
Y54514D01*
X172000Y54514D01*
X171294Y54458D01*
X170605Y54293D01*
X169951Y54022D01*
X169347Y53652D01*
X168808Y53192D01*
X168387Y52698D01*
Y57849D01*
X168460Y57837D01*
X168579Y57836D01*
X168696Y57854D01*
X168809Y57890D01*
X168915Y57943D01*
X169012Y58012D01*
X169096Y58095D01*
X169167Y58191D01*
X169221Y58296D01*
X169259Y58408D01*
X169278Y58525D01*
X169279Y58644D01*
X169261Y58761D01*
X169223Y58874D01*
X169124Y59145D01*
X169056Y59425D01*
X169014Y59711D01*
X169000Y60000D01*
X169014Y60289D01*
X169056Y60575D01*
X169124Y60855D01*
X169220Y61128D01*
X169258Y61239D01*
X169275Y61356D01*
X169275Y61474D01*
X169255Y61591D01*
X169218Y61703D01*
X169164Y61807D01*
X169094Y61902D01*
X169009Y61985D01*
X168913Y62054D01*
X168808Y62107D01*
X168695Y62143D01*
X168579Y62160D01*
X168461Y62159D01*
X168387Y62147D01*
Y98500D01*
G37*
G36*
X162995Y62874D02*X164519Y64398D01*
X164564Y64436D01*
X164717Y64615D01*
X164717Y64616D01*
X164841Y64817D01*
X164931Y65035D01*
X164986Y65265D01*
X165005Y65500D01*
X165000Y65559D01*
Y70635D01*
X165151Y70728D01*
X165486Y71014D01*
X165772Y71349D01*
X166003Y71725D01*
X166171Y72132D01*
X166274Y72561D01*
X166300Y73000D01*
X166274Y73439D01*
X166171Y73868D01*
X166003Y74275D01*
X165772Y74651D01*
X165486Y74986D01*
X165151Y75272D01*
X164775Y75503D01*
X164368Y75671D01*
X163939Y75774D01*
X163500Y75809D01*
X163061Y75774D01*
X162995Y75758D01*
Y87541D01*
X163000Y87541D01*
X163463Y87577D01*
X163914Y87686D01*
X164343Y87863D01*
X164739Y88106D01*
X165092Y88408D01*
X165394Y88761D01*
X165637Y89157D01*
X165814Y89586D01*
X165923Y90037D01*
X165950Y90500D01*
X165923Y90963D01*
X165814Y91414D01*
X165637Y91843D01*
X165394Y92239D01*
X165092Y92592D01*
X164739Y92894D01*
X164343Y93137D01*
X163914Y93314D01*
X163463Y93423D01*
X163000Y93459D01*
X162995Y93459D01*
Y95213D01*
X163003Y95225D01*
X163171Y95632D01*
X163274Y96061D01*
X163300Y96500D01*
X163274Y96939D01*
X163171Y97368D01*
X163003Y97775D01*
X162995Y97787D01*
Y98500D01*
X168387D01*
Y62147D01*
X168344Y62140D01*
X168232Y62103D01*
X168127Y62048D01*
X168032Y61978D01*
X167949Y61894D01*
X167881Y61798D01*
X167830Y61692D01*
X167682Y61284D01*
X167578Y60863D01*
X167516Y60433D01*
X167495Y60000D01*
X167516Y59567D01*
X167578Y59137D01*
X167682Y58716D01*
X167825Y58306D01*
X167878Y58200D01*
X167947Y58104D01*
X168030Y58019D01*
X168125Y57949D01*
X168231Y57894D01*
X168343Y57857D01*
X168387Y57849D01*
Y52698D01*
X168348Y52653D01*
X167978Y52049D01*
X167707Y51395D01*
X167542Y50706D01*
X167486Y50000D01*
X167542Y49294D01*
X167707Y48605D01*
X167978Y47951D01*
X168348Y47347D01*
X168387Y47302D01*
Y42698D01*
X168348Y42653D01*
X167978Y42049D01*
X167707Y41395D01*
X167542Y40706D01*
X167486Y40000D01*
X167542Y39294D01*
X167707Y38605D01*
X167978Y37951D01*
X168348Y37347D01*
X168387Y37302D01*
Y1500D01*
X162995D01*
Y62874D01*
G37*
G36*
Y97787D02*X162772Y98151D01*
X162486Y98486D01*
X162470Y98500D01*
X162995D01*
Y97787D01*
G37*
G36*
Y75758D02*X162632Y75671D01*
X162225Y75503D01*
X161849Y75272D01*
X161514Y74986D01*
X161228Y74651D01*
X160997Y74275D01*
X160900Y74040D01*
X160841Y74183D01*
X160717Y74384D01*
X160564Y74564D01*
X160519Y74602D01*
X159500Y75621D01*
Y93379D01*
X159889Y93767D01*
X160061Y93726D01*
X160500Y93691D01*
X160939Y93726D01*
X161368Y93829D01*
X161775Y93997D01*
X162151Y94228D01*
X162486Y94514D01*
X162772Y94849D01*
X162995Y95213D01*
Y93459D01*
X162537Y93423D01*
X162086Y93314D01*
X161657Y93137D01*
X161261Y92894D01*
X160908Y92592D01*
X160606Y92239D01*
X160363Y91843D01*
X160186Y91414D01*
X160077Y90963D01*
X160041Y90500D01*
X160077Y90037D01*
X160186Y89586D01*
X160363Y89157D01*
X160606Y88761D01*
X160908Y88408D01*
X161261Y88106D01*
X161657Y87863D01*
X162086Y87686D01*
X162537Y87577D01*
X162995Y87541D01*
Y75758D01*
G37*
G36*
X158233Y58111D02*X162995Y62874D01*
Y1500D01*
X100996D01*
Y32776D01*
X136217D01*
X136276Y32771D01*
X136511Y32790D01*
X136511Y32790D01*
X136741Y32845D01*
X136959Y32935D01*
X137160Y33059D01*
X137340Y33212D01*
X137378Y33257D01*
X138889Y34767D01*
X139061Y34726D01*
X139500Y34691D01*
X139939Y34726D01*
X140368Y34829D01*
X140775Y34997D01*
X141151Y35228D01*
X141486Y35514D01*
X141772Y35849D01*
X142003Y36225D01*
X142171Y36632D01*
X142274Y37061D01*
X142300Y37500D01*
X142274Y37939D01*
X142171Y38368D01*
X142003Y38775D01*
X141772Y39151D01*
X141486Y39486D01*
X141151Y39772D01*
X140779Y40000D01*
X151879D01*
X153500Y38379D01*
Y34865D01*
X153349Y34772D01*
X153014Y34486D01*
X152728Y34151D01*
X152497Y33775D01*
X152329Y33368D01*
X152226Y32939D01*
X152191Y32500D01*
X152226Y32061D01*
X152329Y31632D01*
X152497Y31225D01*
X152728Y30849D01*
X153014Y30514D01*
X153349Y30228D01*
X153725Y29997D01*
X154132Y29829D01*
X154561Y29726D01*
X155000Y29691D01*
X155439Y29726D01*
X155868Y29829D01*
X156275Y29997D01*
X156651Y30228D01*
X156986Y30514D01*
X157272Y30849D01*
X157503Y31225D01*
X157671Y31632D01*
X157774Y32061D01*
X157800Y32500D01*
X157774Y32939D01*
X157671Y33368D01*
X157503Y33775D01*
X157272Y34151D01*
X156986Y34486D01*
X156651Y34772D01*
X156500Y34865D01*
Y38941D01*
X156505Y39000D01*
X156486Y39235D01*
X156431Y39465D01*
X156341Y39683D01*
X156217Y39884D01*
X156064Y40064D01*
X156019Y40102D01*
X153602Y42519D01*
X153564Y42564D01*
X153384Y42717D01*
X153183Y42841D01*
X152965Y42931D01*
X152735Y42986D01*
X152500Y43005D01*
X152441Y43000D01*
X136559D01*
X136500Y43005D01*
X136265Y42986D01*
X136035Y42931D01*
X135817Y42841D01*
X135616Y42717D01*
X135615Y42717D01*
X135436Y42564D01*
X135398Y42519D01*
X134379Y41500D01*
X100996D01*
Y89750D01*
X135000D01*
X135745Y89794D01*
X136472Y89969D01*
X137112Y90234D01*
X135981Y89102D01*
X135936Y89064D01*
X135783Y88884D01*
X135659Y88683D01*
X135569Y88465D01*
X135514Y88235D01*
X135514Y88235D01*
X135495Y88000D01*
X135500Y87941D01*
Y80621D01*
X133879Y79000D01*
X121865D01*
X121772Y79151D01*
X121486Y79486D01*
X121151Y79772D01*
X120775Y80003D01*
X120368Y80171D01*
X119939Y80274D01*
X119500Y80309D01*
X119061Y80274D01*
X118632Y80171D01*
X118225Y80003D01*
X117849Y79772D01*
X117514Y79486D01*
X117228Y79151D01*
X116997Y78775D01*
X116829Y78368D01*
X116726Y77939D01*
X116691Y77500D01*
X116726Y77061D01*
X116829Y76632D01*
X116997Y76225D01*
X117228Y75849D01*
X117514Y75514D01*
X117849Y75228D01*
X118225Y74997D01*
X118632Y74829D01*
X119061Y74726D01*
X119500Y74691D01*
X119939Y74726D01*
X120368Y74829D01*
X120775Y74997D01*
X121151Y75228D01*
X121486Y75514D01*
X121772Y75849D01*
X121865Y76000D01*
X134441D01*
X134500Y75995D01*
X134735Y76014D01*
X134735Y76014D01*
X134965Y76069D01*
X135183Y76159D01*
X135384Y76283D01*
X135564Y76436D01*
X135602Y76481D01*
X138019Y78898D01*
X138064Y78936D01*
X138217Y79115D01*
X138217Y79116D01*
X138341Y79317D01*
X138431Y79535D01*
X138486Y79765D01*
X138505Y80000D01*
X138500Y80059D01*
Y87379D01*
X140121Y89000D01*
X141434D01*
X141261Y88894D01*
X140908Y88592D01*
X140606Y88239D01*
X140363Y87843D01*
X140186Y87414D01*
X140077Y86963D01*
X140041Y86500D01*
X140077Y86037D01*
X140186Y85586D01*
X140363Y85157D01*
X140606Y84761D01*
X140908Y84408D01*
X141261Y84106D01*
X141657Y83863D01*
X142086Y83686D01*
X142537Y83577D01*
X143000Y83541D01*
X143463Y83577D01*
X143914Y83686D01*
X144343Y83863D01*
X144739Y84106D01*
X145092Y84408D01*
X145394Y84761D01*
X145637Y85157D01*
X145814Y85586D01*
X145923Y86037D01*
X145950Y86500D01*
X145923Y86963D01*
X145814Y87414D01*
X145637Y87843D01*
X145394Y88239D01*
X145092Y88592D01*
X144739Y88894D01*
X144566Y89000D01*
X148441D01*
X148500Y88995D01*
X148735Y89014D01*
X148735Y89014D01*
X148965Y89069D01*
X149183Y89159D01*
X149384Y89283D01*
X149564Y89436D01*
X149602Y89481D01*
X151519Y91398D01*
X151564Y91436D01*
X151717Y91615D01*
X151717Y91616D01*
X151841Y91817D01*
X151931Y92035D01*
X151986Y92265D01*
X152005Y92500D01*
X152000Y92559D01*
Y94135D01*
X152151Y94228D01*
X152486Y94514D01*
X152772Y94849D01*
X153000Y95221D01*
X153228Y94849D01*
X153514Y94514D01*
X153849Y94228D01*
X154000Y94135D01*
Y84970D01*
X153986Y84986D01*
X153651Y85272D01*
X153275Y85503D01*
X152868Y85671D01*
X152439Y85774D01*
X152000Y85809D01*
X151561Y85774D01*
X151132Y85671D01*
X150725Y85503D01*
X150349Y85272D01*
X150014Y84986D01*
X149728Y84651D01*
X149497Y84275D01*
X149329Y83868D01*
X149226Y83439D01*
X149191Y83000D01*
X149226Y82561D01*
X149329Y82132D01*
X149497Y81725D01*
X149728Y81349D01*
X150014Y81014D01*
X150349Y80728D01*
X150500Y80635D01*
Y79121D01*
X150481Y79102D01*
X150436Y79064D01*
X150283Y78884D01*
X150159Y78683D01*
X150069Y78465D01*
X150014Y78235D01*
X150014Y78235D01*
X149995Y78000D01*
X150000Y77941D01*
Y66559D01*
X149995Y66500D01*
X150014Y66265D01*
X150069Y66035D01*
X150159Y65817D01*
X150283Y65616D01*
X150436Y65436D01*
X150481Y65398D01*
X152767Y63111D01*
X152726Y62939D01*
X152691Y62500D01*
X152726Y62061D01*
X152829Y61632D01*
X152997Y61225D01*
X153228Y60849D01*
X153514Y60514D01*
X153849Y60228D01*
X154221Y60000D01*
X153849Y59772D01*
X153514Y59486D01*
X153228Y59151D01*
X152997Y58775D01*
X152829Y58368D01*
X152726Y57939D01*
X152691Y57500D01*
X152726Y57061D01*
X152829Y56632D01*
X152997Y56225D01*
X153228Y55849D01*
X153514Y55514D01*
X153849Y55228D01*
X154225Y54997D01*
X154632Y54829D01*
X155061Y54726D01*
X155500Y54691D01*
X155939Y54726D01*
X156368Y54829D01*
X156775Y54997D01*
X157151Y55228D01*
X157486Y55514D01*
X157772Y55849D01*
X158003Y56225D01*
X158171Y56632D01*
X158274Y57061D01*
X158300Y57500D01*
X158274Y57939D01*
X158233Y58111D01*
G37*
G36*
X100996Y1500D02*X21000D01*
Y38580D01*
X21168Y38384D01*
X21666Y37958D01*
X22225Y37616D01*
X22831Y37365D01*
X23468Y37212D01*
X24122Y37160D01*
X24776Y37212D01*
X25413Y37365D01*
X26019Y37616D01*
X26578Y37958D01*
X27076Y38384D01*
X27502Y38883D01*
X27845Y39442D01*
X28096Y40047D01*
X28249Y40685D01*
X28287Y41339D01*
X28249Y41992D01*
X28096Y42630D01*
X27845Y43235D01*
X27502Y43794D01*
X27076Y44293D01*
X26578Y44719D01*
X26019Y45061D01*
X25413Y45312D01*
X24776Y45465D01*
X24122Y45517D01*
X23468Y45465D01*
X22831Y45312D01*
X22225Y45061D01*
X21666Y44719D01*
X21168Y44293D01*
X21000Y44097D01*
Y55903D01*
X21168Y55707D01*
X21666Y55281D01*
X22225Y54939D01*
X22831Y54688D01*
X23468Y54535D01*
X24122Y54483D01*
X24776Y54535D01*
X25413Y54688D01*
X26019Y54939D01*
X26578Y55281D01*
X27076Y55707D01*
X27502Y56206D01*
X27845Y56765D01*
X28096Y57370D01*
X28249Y58008D01*
X28287Y58661D01*
X28249Y59315D01*
X28096Y59953D01*
X27845Y60558D01*
X27502Y61117D01*
X27076Y61616D01*
X26578Y62042D01*
X26019Y62384D01*
X25413Y62635D01*
X24776Y62788D01*
X24122Y62840D01*
X23468Y62788D01*
X22831Y62635D01*
X22225Y62384D01*
X21666Y62042D01*
X21168Y61616D01*
X21000Y61420D01*
Y90750D01*
X21654D01*
X31250Y81154D01*
Y63500D01*
X31020Y63405D01*
X30584Y63137D01*
X30195Y62805D01*
X29863Y62416D01*
X29595Y61980D01*
X29400Y61507D01*
X29280Y61010D01*
X29240Y60500D01*
X29280Y59990D01*
X29400Y59493D01*
X29595Y59020D01*
X29863Y58584D01*
X30195Y58195D01*
X30584Y57863D01*
X31020Y57595D01*
X31493Y57400D01*
X31990Y57280D01*
X32500Y57250D01*
X34373D01*
X34500Y57240D01*
X34627Y57250D01*
X36500D01*
X37010Y57280D01*
X37507Y57400D01*
X37980Y57595D01*
X38416Y57863D01*
X38805Y58195D01*
X39137Y58584D01*
X39405Y59020D01*
X39600Y59493D01*
X39720Y59990D01*
X39760Y60500D01*
X39720Y61010D01*
X39600Y61507D01*
X39405Y61980D01*
X39137Y62416D01*
X38805Y62805D01*
X38416Y63137D01*
X37980Y63405D01*
X37750Y63500D01*
Y82373D01*
X37760Y82500D01*
X37720Y83010D01*
X37720Y83010D01*
X37600Y83507D01*
X37405Y83980D01*
X37137Y84416D01*
X36805Y84805D01*
X36708Y84888D01*
X25388Y96208D01*
X25305Y96305D01*
X24916Y96637D01*
X24480Y96905D01*
X24007Y97100D01*
X23510Y97220D01*
X23510Y97220D01*
X23000Y97260D01*
X22873Y97250D01*
X21000D01*
Y98500D01*
X95437D01*
X95199Y98355D01*
X95199Y98354D01*
X94631Y97869D01*
X94510Y97727D01*
X86532Y89750D01*
X63000D01*
X62255Y89706D01*
X61528Y89531D01*
X60837Y89245D01*
X60199Y88855D01*
X59631Y88369D01*
X59145Y87801D01*
X58755Y87163D01*
X58469Y86472D01*
X58294Y85745D01*
X58235Y85000D01*
X58294Y84255D01*
X58469Y83528D01*
X58755Y82837D01*
X59145Y82199D01*
X59631Y81631D01*
X60199Y81145D01*
X60837Y80755D01*
X61528Y80469D01*
X62255Y80294D01*
X63000Y80250D01*
X88314D01*
X88500Y80235D01*
X89245Y80294D01*
X89972Y80469D01*
X90663Y80755D01*
X91301Y81145D01*
X91869Y81631D01*
X91990Y81773D01*
X99968Y89750D01*
X100996D01*
Y41500D01*
X82970D01*
X82986Y41514D01*
X83272Y41849D01*
X83503Y42225D01*
X83671Y42632D01*
X83774Y43061D01*
X83800Y43500D01*
X83774Y43939D01*
X83671Y44368D01*
X83503Y44775D01*
X83272Y45151D01*
X82986Y45486D01*
X82651Y45772D01*
X82500Y45865D01*
Y58441D01*
X82505Y58500D01*
X82486Y58735D01*
X82431Y58965D01*
X82341Y59183D01*
X82217Y59384D01*
X82064Y59564D01*
X82019Y59602D01*
X79927Y61694D01*
X79889Y61739D01*
X79709Y61892D01*
X79508Y62016D01*
X79290Y62106D01*
X79060Y62161D01*
X79060Y62161D01*
X78825Y62180D01*
X78766Y62175D01*
X70865D01*
X70772Y62326D01*
X70486Y62661D01*
X70151Y62947D01*
X69775Y63178D01*
X69368Y63346D01*
X68939Y63449D01*
X68500Y63484D01*
X68061Y63449D01*
X67632Y63346D01*
X67225Y63178D01*
X66849Y62947D01*
X66514Y62661D01*
X66228Y62326D01*
X65997Y61950D01*
X65829Y61543D01*
X65726Y61114D01*
X65691Y60675D01*
X65726Y60236D01*
X65829Y59807D01*
X65997Y59400D01*
X66228Y59024D01*
X66514Y58689D01*
X66849Y58403D01*
X67225Y58172D01*
X67632Y58004D01*
X68061Y57901D01*
X68500Y57866D01*
X68939Y57901D01*
X69368Y58004D01*
X69775Y58172D01*
X70151Y58403D01*
X70486Y58689D01*
X70772Y59024D01*
X70865Y59175D01*
X78204D01*
X79500Y57879D01*
Y45865D01*
X79349Y45772D01*
X79014Y45486D01*
X78728Y45151D01*
X78497Y44775D01*
X78329Y44368D01*
X78226Y43939D01*
X78191Y43500D01*
X78226Y43061D01*
X78329Y42632D01*
X78497Y42225D01*
X78728Y41849D01*
X79014Y41514D01*
X79030Y41500D01*
X64000D01*
X64000Y41500D01*
X50621D01*
X48500Y43621D01*
Y49635D01*
X48651Y49728D01*
X48986Y50014D01*
X49272Y50349D01*
X49503Y50725D01*
X49671Y51132D01*
X49774Y51561D01*
X49800Y52000D01*
X49774Y52439D01*
X49671Y52868D01*
X49503Y53275D01*
X49272Y53651D01*
X48986Y53986D01*
X48651Y54272D01*
X48275Y54503D01*
X47868Y54671D01*
X47439Y54774D01*
X47000Y54809D01*
X46561Y54774D01*
X46132Y54671D01*
X45725Y54503D01*
X45349Y54272D01*
X45014Y53986D01*
X44728Y53651D01*
X44497Y53275D01*
X44329Y52868D01*
X44226Y52439D01*
X44191Y52000D01*
X44226Y51561D01*
X44329Y51132D01*
X44497Y50725D01*
X44728Y50349D01*
X45014Y50014D01*
X45349Y49728D01*
X45500Y49635D01*
Y43059D01*
X45495Y43000D01*
X45514Y42765D01*
X45569Y42535D01*
X45659Y42317D01*
X45783Y42116D01*
X45783Y42115D01*
X45936Y41936D01*
X45981Y41898D01*
X48898Y38981D01*
X48936Y38936D01*
X49116Y38783D01*
X49317Y38659D01*
X49535Y38569D01*
X49765Y38514D01*
X50000Y38495D01*
X50059Y38500D01*
X64000D01*
X64000Y38500D01*
X100996D01*
Y35776D01*
X83365D01*
X83272Y35927D01*
X82986Y36262D01*
X82651Y36548D01*
X82275Y36779D01*
X81868Y36947D01*
X81439Y37050D01*
X81000Y37085D01*
X80561Y37050D01*
X80132Y36947D01*
X79725Y36779D01*
X79349Y36548D01*
X79014Y36262D01*
X78728Y35927D01*
X78497Y35551D01*
X78329Y35144D01*
X78226Y34715D01*
X78191Y34276D01*
X78226Y33837D01*
X78329Y33408D01*
X78497Y33001D01*
X78728Y32625D01*
X79014Y32290D01*
X79349Y32004D01*
X79725Y31773D01*
X80132Y31605D01*
X80561Y31502D01*
X81000Y31467D01*
X81439Y31502D01*
X81868Y31605D01*
X82275Y31773D01*
X82651Y32004D01*
X82986Y32290D01*
X83272Y32625D01*
X83365Y32776D01*
X100996D01*
Y1500D01*
G37*
G36*
X21000D02*X1500D01*
Y98500D01*
X21000D01*
Y97250D01*
X5500D01*
X4990Y97220D01*
X4493Y97100D01*
X4020Y96905D01*
X3584Y96637D01*
X3195Y96305D01*
X2863Y95916D01*
X2595Y95480D01*
X2400Y95007D01*
X2280Y94510D01*
X2240Y94000D01*
X2280Y93490D01*
X2400Y92993D01*
X2595Y92520D01*
X2863Y92084D01*
X3195Y91695D01*
X3584Y91363D01*
X4020Y91095D01*
X4493Y90900D01*
X4990Y90780D01*
X5500Y90750D01*
X21000D01*
Y61420D01*
X20742Y61117D01*
X20399Y60558D01*
X20148Y59953D01*
X19995Y59315D01*
X19944Y58661D01*
X19995Y58008D01*
X20148Y57370D01*
X20399Y56765D01*
X20742Y56206D01*
X21000Y55903D01*
Y44097D01*
X20742Y43794D01*
X20399Y43235D01*
X20148Y42630D01*
X19995Y41992D01*
X19944Y41339D01*
X19995Y40685D01*
X20148Y40047D01*
X20399Y39442D01*
X20742Y38883D01*
X21000Y38580D01*
Y1500D01*
G37*
G54D37*X98000Y94500D02*X135000D01*
G54D38*X78825Y60675D02*X81000Y58500D01*
Y43500D01*
Y34276D02*X134276D01*
X63000Y40000D02*X135000D01*
X134224Y34276D02*X136276D01*
X64000Y40000D02*X50000D01*
X47000Y43000D01*
Y52000D01*
X137000Y88000D02*Y80000D01*
X134500Y77500D01*
X119500D01*
X68500Y60675D02*X78825D01*
G54D37*X63000Y85000D02*X88500D01*
X98000Y94500D01*
G54D39*X23000Y94000D02*X5500D01*
X23000D02*X34500Y82500D01*
Y60500D01*
X32500D02*X36500D01*
G54D38*X155500Y96500D02*Y72500D01*
X151500Y66500D02*X155500Y62500D01*
X151500Y66500D02*Y78000D01*
X152000Y78500D01*
Y83000D01*
X160500Y96500D02*X158000Y94000D01*
Y75000D01*
X159500Y73500D01*
Y67500D01*
X163500Y73000D02*Y65500D01*
X155500Y57500D01*
X135000Y40000D02*X136500Y41500D01*
X152500D01*
X155000Y39000D01*
Y32500D01*
X136276Y34276D02*X139500Y37500D01*
X150500Y96500D02*Y92500D01*
X148500Y90500D01*
X139500D01*
X137000Y88000D01*
G54D40*X182000Y60000D03*
X172000D03*
G54D36*G36*
X179000Y43000D02*Y37000D01*
X185000D01*
Y43000D01*
X179000D01*
G37*
G54D40*X182000Y50000D03*
X172000Y40000D03*
Y50000D03*
G54D41*X24122Y58661D03*
Y41339D03*
G54D42*X126500Y85500D03*
X152000Y83000D03*
X147000D03*
X126000Y94500D03*
X119500Y77500D03*
X130500Y94500D03*
X135000D03*
X155500Y96500D03*
X160500D03*
X150500D03*
X155500Y72500D03*
X159500Y67500D03*
X174000Y87000D03*
Y76000D03*
X163500Y73000D03*
X179500Y76000D03*
Y81500D03*
Y87000D03*
X81000Y43500D03*
X68500Y60675D03*
X81000Y34276D03*
X66000Y83500D03*
X53000Y72500D03*
X57500D03*
X69000Y86500D03*
X63000D03*
X139500Y37500D03*
X155500Y62500D03*
X155000Y32500D03*
X111000Y28500D03*
X115500D03*
X155500Y57500D03*
X106500Y28500D03*
X182000Y16000D03*
X81500Y15500D03*
X4000Y85500D03*
X9500Y94000D03*
X5500D03*
X17500D03*
X4000Y75500D03*
Y80500D03*
X19500Y15000D03*
X41500D03*
X37000Y39500D03*
X32500D03*
X44000Y72500D03*
X48500D03*
X47000Y52000D03*
X36500Y60500D03*
X32500D03*
G54D43*G54D44*G54D45*G54D44*G54D45*G54D46*M02*
