M48
INCH
T50C0.020
T49C0.043
T48C0.038
%
T50
X000400Y008550
X000400Y008050
X000400Y007550
X000550Y009400
X000950Y009400
X001750Y009400
X001950Y001500
X003250Y006050
X003250Y003950
X003650Y006050
X003700Y003950
X004150Y001500
X004400Y007250
X004700Y005200
X004850Y007250
X005300Y007250
X005750Y007250
X006300Y008650
X006600Y008350
X006850Y006068
X006900Y008650
X008100Y004350
X008100Y003428
X008150Y001550
X010650Y002850
X011100Y002850
X011550Y002850
X011950Y007750
X012600Y009450
X012650Y008550
X013050Y009450
X013500Y009450
X013950Y003750
X014700Y008300
X015050Y009650
X015200Y008300
X015500Y003250
X015550Y009650
X015550Y007250
X015550Y006250
X015550Y005750
X015950Y006750
X016050Y009650
X016350Y007300
X017400Y008700
X017400Y007600
X017950Y008700
X017950Y008150
X017950Y007600
X018200Y001600
T48
X017200Y006000
X017200Y005000
X017200Y004000
X018200Y006000
X018200Y005000
X018200Y004000
T49
X002412Y005866
X002412Y004134
M30
