G04 start of page 13 for group -3984 idx -3984 *
G04 Title: (unknown), fab *
G04 Creator: pcb 20140316 *
G04 CreationDate: Thu 30 Aug 2018 07:28:31 PM GMT UTC *
G04 For: railfan *
G04 Format: Gerber/RS-274X *
G04 PCB-Dimensions (mil): 1875.00 1000.00 *
G04 PCB-Coordinate-Origin: lower left *
%MOIN*%
%FSLAX25Y25*%
%LNFAB*%
%ADD87C,0.0100*%
%ADD86C,0.0075*%
%ADD85C,0.0060*%
%ADD84R,0.0080X0.0080*%
G54D84*X23322Y58661D02*G75*G03X24922Y58661I800J0D01*G01*
G75*G03X23322Y58661I-800J0D01*G01*
Y41339D02*G75*G03X24922Y41339I800J0D01*G01*
G75*G03X23322Y41339I-800J0D01*G01*
X14200Y111250D02*G75*G03X15800Y111250I800J0D01*G01*
G75*G03X14200Y111250I-800J0D01*G01*
G54D85*X135000Y113500D02*X136500Y110500D01*
X138000Y113500D01*
X136500Y110500D02*Y107500D01*
X139800Y110800D02*X142050D01*
X139800Y107500D02*X142800D01*
X139800Y113500D02*Y107500D01*
Y113500D02*X142800D01*
X147600D02*X148350Y112750D01*
X145350Y113500D02*X147600D01*
X144600Y112750D02*X145350Y113500D01*
X144600Y112750D02*Y111250D01*
X145350Y110500D01*
X147600D01*
X148350Y109750D01*
Y108250D01*
X147600Y107500D02*X148350Y108250D01*
X145350Y107500D02*X147600D01*
X144600Y108250D02*X145350Y107500D01*
X98000Y112750D02*X98750Y113500D01*
X101000D01*
X101750Y112750D01*
Y111250D01*
X98000Y107500D02*X101750Y111250D01*
X98000Y107500D02*X101750D01*
X45000Y108250D02*X45750Y107500D01*
X45000Y112750D02*Y108250D01*
Y112750D02*X45750Y113500D01*
X47250D01*
X48000Y112750D01*
Y108250D01*
X47250Y107500D02*X48000Y108250D01*
X45750Y107500D02*X47250D01*
X45000Y109000D02*X48000Y112000D01*
X49800Y107500D02*X50550D01*
X52350Y108250D02*X53100Y107500D01*
X52350Y112750D02*Y108250D01*
Y112750D02*X53100Y113500D01*
X54600D01*
X55350Y112750D01*
Y108250D01*
X54600Y107500D02*X55350Y108250D01*
X53100Y107500D02*X54600D01*
X52350Y109000D02*X55350Y112000D01*
X57150Y109750D02*X60150Y113500D01*
X57150Y109750D02*X60900D01*
X60150Y113500D02*Y107500D01*
X62700Y109750D02*X65700Y113500D01*
X62700Y109750D02*X66450D01*
X65700Y113500D02*Y107500D01*
X161800Y91700D02*X164200Y89300D01*
X161800D02*X164200Y91700D01*
X141800Y87700D02*X144200Y85300D01*
X141800D02*X144200Y87700D01*
X141800Y95700D02*X144200Y93300D01*
X141800D02*X144200Y95700D01*
X13800Y127450D02*X16200Y125050D01*
X13800D02*X16200Y127450D01*
X140000Y128500D02*Y122500D01*
Y128500D02*X143750Y122500D01*
Y128500D02*Y122500D01*
X145550Y127750D02*Y123250D01*
Y127750D02*X146300Y128500D01*
X147800D01*
X148550Y127750D01*
Y123250D01*
X147800Y122500D02*X148550Y123250D01*
X146300Y122500D02*X147800D01*
X145550Y123250D02*X146300Y122500D01*
X98000Y127750D02*X98750Y128500D01*
X100250D01*
X101000Y127750D01*
X100250Y122500D02*X101000Y123250D01*
X98750Y122500D02*X100250D01*
X98000Y123250D02*X98750Y122500D01*
Y125800D02*X100250D01*
X101000Y127750D02*Y126550D01*
Y125050D02*Y123250D01*
Y125050D02*X100250Y125800D01*
X101000Y126550D02*X100250Y125800D01*
X45000Y123250D02*X45750Y122500D01*
X45000Y127750D02*Y123250D01*
Y127750D02*X45750Y128500D01*
X47250D01*
X48000Y127750D01*
Y123250D01*
X47250Y122500D02*X48000Y123250D01*
X45750Y122500D02*X47250D01*
X45000Y124000D02*X48000Y127000D01*
X49800Y122500D02*X50550D01*
X52350Y123250D02*X53100Y122500D01*
X52350Y127750D02*Y123250D01*
Y127750D02*X53100Y128500D01*
X54600D01*
X55350Y127750D01*
Y123250D01*
X54600Y122500D02*X55350Y123250D01*
X53100Y122500D02*X54600D01*
X52350Y124000D02*X55350Y127000D01*
X57150Y127750D02*X57900Y128500D01*
X59400D01*
X60150Y127750D01*
X59400Y122500D02*X60150Y123250D01*
X57900Y122500D02*X59400D01*
X57150Y123250D02*X57900Y122500D01*
Y125800D02*X59400D01*
X60150Y127750D02*Y126550D01*
Y125050D02*Y123250D01*
Y125050D02*X59400Y125800D01*
X60150Y126550D02*X59400Y125800D01*
X62700Y122500D02*X64950Y125500D01*
Y127750D02*Y125500D01*
X64200Y128500D02*X64950Y127750D01*
X62700Y128500D02*X64200D01*
X61950Y127750D02*X62700Y128500D01*
X61950Y127750D02*Y126250D01*
X62700Y125500D01*
X64950D01*
X182000Y41600D02*Y38400D01*
X180400Y40000D02*X183600D01*
X182000Y51600D02*Y48400D01*
X180400Y50000D02*X183600D01*
X182000Y61600D02*Y58400D01*
X180400Y60000D02*X183600D01*
X172000Y41600D02*Y38400D01*
X170400Y40000D02*X173600D01*
X172000Y51600D02*Y48400D01*
X170400Y50000D02*X173600D01*
X172000Y61600D02*Y58400D01*
X170400Y60000D02*X173600D01*
X15000Y142850D02*Y139650D01*
X13400Y141250D02*X16600D01*
X135000Y143500D02*X136500Y140500D01*
X138000Y143500D01*
X136500Y140500D02*Y137500D01*
X139800Y140800D02*X142050D01*
X139800Y137500D02*X142800D01*
X139800Y143500D02*Y137500D01*
Y143500D02*X142800D01*
X147600D02*X148350Y142750D01*
X145350Y143500D02*X147600D01*
X144600Y142750D02*X145350Y143500D01*
X144600Y142750D02*Y141250D01*
X145350Y140500D01*
X147600D01*
X148350Y139750D01*
Y138250D01*
X147600Y137500D02*X148350Y138250D01*
X145350Y137500D02*X147600D01*
X144600Y138250D02*X145350Y137500D01*
X100250Y143500D02*X101000Y142750D01*
X98750Y143500D02*X100250D01*
X98000Y142750D02*X98750Y143500D01*
X98000Y142750D02*Y138250D01*
X98750Y137500D01*
X100250Y140800D02*X101000Y140050D01*
X98000Y140800D02*X100250D01*
X98750Y137500D02*X100250D01*
X101000Y138250D01*
Y140050D02*Y138250D01*
X45000D02*X45750Y137500D01*
X45000Y142750D02*Y138250D01*
Y142750D02*X45750Y143500D01*
X47250D01*
X48000Y142750D01*
Y138250D01*
X47250Y137500D02*X48000Y138250D01*
X45750Y137500D02*X47250D01*
X45000Y139000D02*X48000Y142000D01*
X49800Y137500D02*X50550D01*
X52350Y138250D02*X53100Y137500D01*
X52350Y142750D02*Y138250D01*
Y142750D02*X53100Y143500D01*
X54600D01*
X55350Y142750D01*
Y138250D01*
X54600Y137500D02*X55350Y138250D01*
X53100Y137500D02*X54600D01*
X52350Y139000D02*X55350Y142000D01*
X57150Y142750D02*X57900Y143500D01*
X59400D01*
X60150Y142750D01*
X59400Y137500D02*X60150Y138250D01*
X57900Y137500D02*X59400D01*
X57150Y138250D02*X57900Y137500D01*
Y140800D02*X59400D01*
X60150Y142750D02*Y141550D01*
Y140050D02*Y138250D01*
Y140050D02*X59400Y140800D01*
X60150Y141550D02*X59400Y140800D01*
X61950Y138250D02*X62700Y137500D01*
X61950Y139450D02*Y138250D01*
Y139450D02*X63000Y140500D01*
X63900D01*
X64950Y139450D01*
Y138250D01*
X64200Y137500D02*X64950Y138250D01*
X62700Y137500D02*X64200D01*
X61950Y141550D02*X63000Y140500D01*
X61950Y142750D02*Y141550D01*
Y142750D02*X62700Y143500D01*
X64200D01*
X64950Y142750D01*
Y141550D01*
X63900Y140500D02*X64950Y141550D01*
X4000Y85500D02*Y83900D01*
Y85500D02*X5387Y86300D01*
X4000Y85500D02*X2613Y86300D01*
X9500Y94000D02*Y92400D01*
Y94000D02*X10887Y94800D01*
X9500Y94000D02*X8113Y94800D01*
X5500Y94000D02*Y92400D01*
Y94000D02*X6887Y94800D01*
X5500Y94000D02*X4113Y94800D01*
X81000Y43500D02*Y41900D01*
Y43500D02*X82387Y44300D01*
X81000Y43500D02*X79613Y44300D01*
X68500Y60675D02*Y59075D01*
Y60675D02*X69887Y61475D01*
X68500Y60675D02*X67113Y61475D01*
X81000Y34276D02*Y32676D01*
Y34276D02*X82387Y35076D01*
X81000Y34276D02*X79613Y35076D01*
X139500Y37500D02*Y35900D01*
Y37500D02*X140887Y38300D01*
X139500Y37500D02*X138113Y38300D01*
X126500Y85500D02*Y83900D01*
Y85500D02*X127887Y86300D01*
X126500Y85500D02*X125113Y86300D01*
X126000Y94500D02*Y92900D01*
Y94500D02*X127387Y95300D01*
X126000Y94500D02*X124613Y95300D01*
X130500Y94500D02*Y92900D01*
Y94500D02*X131887Y95300D01*
X130500Y94500D02*X129113Y95300D01*
X135000Y94500D02*Y92900D01*
Y94500D02*X136387Y95300D01*
X135000Y94500D02*X133613Y95300D01*
X155500Y96500D02*Y94900D01*
Y96500D02*X156887Y97300D01*
X155500Y96500D02*X154113Y97300D01*
X160500Y96500D02*Y94900D01*
Y96500D02*X161887Y97300D01*
X160500Y96500D02*X159113Y97300D01*
X155500Y62500D02*Y60900D01*
Y62500D02*X156887Y63300D01*
X155500Y62500D02*X154113Y63300D01*
X155500Y72500D02*Y70900D01*
Y72500D02*X156887Y73300D01*
X155500Y72500D02*X154113Y73300D01*
X159500Y67500D02*Y65900D01*
Y67500D02*X160887Y68300D01*
X159500Y67500D02*X158113Y68300D01*
X152000Y83000D02*Y81400D01*
Y83000D02*X153387Y83800D01*
X152000Y83000D02*X150613Y83800D01*
X147000Y83000D02*Y81400D01*
Y83000D02*X148387Y83800D01*
X147000Y83000D02*X145613Y83800D01*
X155000Y32500D02*Y30900D01*
Y32500D02*X156387Y33300D01*
X155000Y32500D02*X153613Y33300D01*
X111000Y28500D02*Y26900D01*
Y28500D02*X112387Y29300D01*
X111000Y28500D02*X109613Y29300D01*
X115500Y28500D02*Y26900D01*
Y28500D02*X116887Y29300D01*
X115500Y28500D02*X114113Y29300D01*
X106500Y28500D02*Y26900D01*
Y28500D02*X107887Y29300D01*
X106500Y28500D02*X105113Y29300D01*
X155500Y57500D02*Y55900D01*
Y57500D02*X156887Y58300D01*
X155500Y57500D02*X154113Y58300D01*
X174000Y87000D02*Y85400D01*
Y87000D02*X175387Y87800D01*
X174000Y87000D02*X172613Y87800D01*
X174000Y76000D02*Y74400D01*
Y76000D02*X175387Y76800D01*
X174000Y76000D02*X172613Y76800D01*
X179500Y76000D02*Y74400D01*
Y76000D02*X180887Y76800D01*
X179500Y76000D02*X178113Y76800D01*
X179500Y81500D02*Y79900D01*
Y81500D02*X180887Y82300D01*
X179500Y81500D02*X178113Y82300D01*
X179500Y87000D02*Y85400D01*
Y87000D02*X180887Y87800D01*
X179500Y87000D02*X178113Y87800D01*
X163500Y73000D02*Y71400D01*
Y73000D02*X164887Y73800D01*
X163500Y73000D02*X162113Y73800D01*
X182000Y16000D02*Y14400D01*
Y16000D02*X183387Y16800D01*
X182000Y16000D02*X180613Y16800D01*
X81500Y15500D02*Y13900D01*
Y15500D02*X82887Y16300D01*
X81500Y15500D02*X80113Y16300D01*
X150500Y96500D02*Y94900D01*
Y96500D02*X151887Y97300D01*
X150500Y96500D02*X149113Y97300D01*
X119500Y77500D02*Y75900D01*
Y77500D02*X120887Y78300D01*
X119500Y77500D02*X118113Y78300D01*
X66000Y83500D02*Y81900D01*
Y83500D02*X67387Y84300D01*
X66000Y83500D02*X64613Y84300D01*
X69000Y86500D02*Y84900D01*
Y86500D02*X70387Y87300D01*
X69000Y86500D02*X67613Y87300D01*
X63000Y86500D02*Y84900D01*
Y86500D02*X64387Y87300D01*
X63000Y86500D02*X61613Y87300D01*
X19500Y15000D02*Y13400D01*
Y15000D02*X20887Y15800D01*
X19500Y15000D02*X18113Y15800D01*
X41500Y15000D02*Y13400D01*
Y15000D02*X42887Y15800D01*
X41500Y15000D02*X40113Y15800D01*
X17500Y94000D02*Y92400D01*
Y94000D02*X18887Y94800D01*
X17500Y94000D02*X16113Y94800D01*
X44000Y72500D02*Y70900D01*
Y72500D02*X45387Y73300D01*
X44000Y72500D02*X42613Y73300D01*
X48500Y72500D02*Y70900D01*
Y72500D02*X49887Y73300D01*
X48500Y72500D02*X47113Y73300D01*
X53000Y72500D02*Y70900D01*
Y72500D02*X54387Y73300D01*
X53000Y72500D02*X51613Y73300D01*
X57500Y72500D02*Y70900D01*
Y72500D02*X58887Y73300D01*
X57500Y72500D02*X56113Y73300D01*
X4000Y75500D02*Y73900D01*
Y75500D02*X5387Y76300D01*
X4000Y75500D02*X2613Y76300D01*
X4000Y80500D02*Y78900D01*
Y80500D02*X5387Y81300D01*
X4000Y80500D02*X2613Y81300D01*
X47000Y52000D02*Y50400D01*
Y52000D02*X48387Y52800D01*
X47000Y52000D02*X45613Y52800D01*
X37000Y39500D02*Y37900D01*
Y39500D02*X38387Y40300D01*
X37000Y39500D02*X35613Y40300D01*
X32500Y39500D02*Y37900D01*
Y39500D02*X33887Y40300D01*
X32500Y39500D02*X31113Y40300D01*
X36500Y60500D02*Y58900D01*
Y60500D02*X37887Y61300D01*
X36500Y60500D02*X35113Y61300D01*
X32500Y60500D02*Y58900D01*
Y60500D02*X33887Y61300D01*
X32500Y60500D02*X31113Y61300D01*
X15000Y156250D02*Y154650D01*
Y156250D02*X16387Y157050D01*
X15000Y156250D02*X13613Y157050D01*
X135000Y158500D02*X136500Y155500D01*
X138000Y158500D01*
X136500Y155500D02*Y152500D01*
X139800Y155800D02*X142050D01*
X139800Y152500D02*X142800D01*
X139800Y158500D02*Y152500D01*
Y158500D02*X142800D01*
X147600D02*X148350Y157750D01*
X145350Y158500D02*X147600D01*
X144600Y157750D02*X145350Y158500D01*
X144600Y157750D02*Y156250D01*
X145350Y155500D01*
X147600D01*
X148350Y154750D01*
Y153250D01*
X147600Y152500D02*X148350Y153250D01*
X145350Y152500D02*X147600D01*
X144600Y153250D02*X145350Y152500D01*
X98000Y158500D02*X101000D01*
X98000D02*Y155500D01*
X98750Y156250D01*
X100250D01*
X101000Y155500D01*
Y153250D01*
X100250Y152500D02*X101000Y153250D01*
X98750Y152500D02*X100250D01*
X98000Y153250D02*X98750Y152500D01*
X102800Y153250D02*X103550Y152500D01*
X102800Y157750D02*Y153250D01*
Y157750D02*X103550Y158500D01*
X105050D01*
X105800Y157750D01*
Y153250D01*
X105050Y152500D02*X105800Y153250D01*
X103550Y152500D02*X105050D01*
X102800Y154000D02*X105800Y157000D01*
X45000Y153250D02*X45750Y152500D01*
X45000Y157750D02*Y153250D01*
Y157750D02*X45750Y158500D01*
X47250D01*
X48000Y157750D01*
Y153250D01*
X47250Y152500D02*X48000Y153250D01*
X45750Y152500D02*X47250D01*
X45000Y154000D02*X48000Y157000D01*
X49800Y152500D02*X50550D01*
X52350Y153250D02*X53100Y152500D01*
X52350Y157750D02*Y153250D01*
Y157750D02*X53100Y158500D01*
X54600D01*
X55350Y157750D01*
Y153250D01*
X54600Y152500D02*X55350Y153250D01*
X53100Y152500D02*X54600D01*
X52350Y154000D02*X55350Y157000D01*
X57150Y157750D02*X57900Y158500D01*
X60150D01*
X60900Y157750D01*
Y156250D01*
X57150Y152500D02*X60900Y156250D01*
X57150Y152500D02*X60900D01*
X62700Y153250D02*X63450Y152500D01*
X62700Y157750D02*Y153250D01*
Y157750D02*X63450Y158500D01*
X64950D01*
X65700Y157750D01*
Y153250D01*
X64950Y152500D02*X65700Y153250D01*
X63450Y152500D02*X64950D01*
X62700Y154000D02*X65700Y157000D01*
X3000Y173500D02*X3750Y172750D01*
X750Y173500D02*X3000D01*
X0Y172750D02*X750Y173500D01*
X0Y172750D02*Y171250D01*
X750Y170500D01*
X3000D01*
X3750Y169750D01*
Y168250D01*
X3000Y167500D02*X3750Y168250D01*
X750Y167500D02*X3000D01*
X0Y168250D02*X750Y167500D01*
X5550Y170500D02*Y168250D01*
X6300Y167500D01*
X8550Y170500D02*Y166000D01*
X7800Y165250D02*X8550Y166000D01*
X6300Y165250D02*X7800D01*
X5550Y166000D02*X6300Y165250D01*
Y167500D02*X7800D01*
X8550Y168250D01*
X11100Y169750D02*Y167500D01*
Y169750D02*X11850Y170500D01*
X12600D01*
X13350Y169750D01*
Y167500D01*
Y169750D02*X14100Y170500D01*
X14850D01*
X15600Y169750D01*
Y167500D01*
X10350Y170500D02*X11100Y169750D01*
X17400Y173500D02*Y167500D01*
Y168250D02*X18150Y167500D01*
X19650D01*
X20400Y168250D01*
Y169750D02*Y168250D01*
X19650Y170500D02*X20400Y169750D01*
X18150Y170500D02*X19650D01*
X17400Y169750D02*X18150Y170500D01*
X22200Y169750D02*Y168250D01*
Y169750D02*X22950Y170500D01*
X24450D01*
X25200Y169750D01*
Y168250D01*
X24450Y167500D02*X25200Y168250D01*
X22950Y167500D02*X24450D01*
X22200Y168250D02*X22950Y167500D01*
X27000Y173500D02*Y168250D01*
X27750Y167500D01*
X0Y164250D02*X29250D01*
X41750Y173500D02*Y167500D01*
X43700Y173500D02*X44750Y172450D01*
Y168550D01*
X43700Y167500D02*X44750Y168550D01*
X41000Y167500D02*X43700D01*
X41000Y173500D02*X43700D01*
G54D86*X46550Y172000D02*Y171850D01*
G54D85*Y169750D02*Y167500D01*
X50300Y170500D02*X51050Y169750D01*
X48800Y170500D02*X50300D01*
X48050Y169750D02*X48800Y170500D01*
X48050Y169750D02*Y168250D01*
X48800Y167500D01*
X51050Y170500D02*Y168250D01*
X51800Y167500D01*
X48800D02*X50300D01*
X51050Y168250D01*
X54350Y169750D02*Y167500D01*
Y169750D02*X55100Y170500D01*
X55850D01*
X56600Y169750D01*
Y167500D01*
Y169750D02*X57350Y170500D01*
X58100D01*
X58850Y169750D01*
Y167500D01*
X53600Y170500D02*X54350Y169750D01*
X60650Y167500D02*X61400D01*
X65900Y168250D02*X66650Y167500D01*
X65900Y172750D02*X66650Y173500D01*
X65900Y172750D02*Y168250D01*
X68450Y173500D02*X69950D01*
X69200D02*Y167500D01*
X68450D02*X69950D01*
X72500Y169750D02*Y167500D01*
Y169750D02*X73250Y170500D01*
X74000D01*
X74750Y169750D01*
Y167500D01*
X71750Y170500D02*X72500Y169750D01*
X77300Y170500D02*X79550D01*
X76550Y169750D02*X77300Y170500D01*
X76550Y169750D02*Y168250D01*
X77300Y167500D01*
X79550D01*
X81350Y173500D02*Y167500D01*
Y169750D02*X82100Y170500D01*
X83600D01*
X84350Y169750D01*
Y167500D01*
X86150Y173500D02*X86900Y172750D01*
Y168250D01*
X86150Y167500D02*X86900Y168250D01*
X41000Y164250D02*X88700D01*
X96050Y167500D02*X98000D01*
X95000Y168550D02*X96050Y167500D01*
X95000Y172450D02*Y168550D01*
Y172450D02*X96050Y173500D01*
X98000D01*
X99800Y169750D02*Y168250D01*
Y169750D02*X100550Y170500D01*
X102050D01*
X102800Y169750D01*
Y168250D01*
X102050Y167500D02*X102800Y168250D01*
X100550Y167500D02*X102050D01*
X99800Y168250D02*X100550Y167500D01*
X104600Y170500D02*Y168250D01*
X105350Y167500D01*
X106850D01*
X107600Y168250D01*
Y170500D02*Y168250D01*
X110150Y169750D02*Y167500D01*
Y169750D02*X110900Y170500D01*
X111650D01*
X112400Y169750D01*
Y167500D01*
X109400Y170500D02*X110150Y169750D01*
X114950Y173500D02*Y168250D01*
X115700Y167500D01*
X114200Y171250D02*X115700D01*
X95000Y164250D02*X117200D01*
X130750Y173500D02*Y167500D01*
X130000Y173500D02*X133000D01*
X133750Y172750D01*
Y171250D01*
X133000Y170500D02*X133750Y171250D01*
X130750Y170500D02*X133000D01*
X135550Y173500D02*Y168250D01*
X136300Y167500D01*
X140050Y170500D02*X140800Y169750D01*
X138550Y170500D02*X140050D01*
X137800Y169750D02*X138550Y170500D01*
X137800Y169750D02*Y168250D01*
X138550Y167500D01*
X140800Y170500D02*Y168250D01*
X141550Y167500D01*
X138550D02*X140050D01*
X140800Y168250D01*
X144100Y173500D02*Y168250D01*
X144850Y167500D01*
X143350Y171250D02*X144850D01*
X147100Y167500D02*X149350D01*
X146350Y168250D02*X147100Y167500D01*
X146350Y169750D02*Y168250D01*
Y169750D02*X147100Y170500D01*
X148600D01*
X149350Y169750D01*
X146350Y169000D02*X149350D01*
Y169750D02*Y169000D01*
X154150Y173500D02*Y167500D01*
X153400D02*X154150Y168250D01*
X151900Y167500D02*X153400D01*
X151150Y168250D02*X151900Y167500D01*
X151150Y169750D02*Y168250D01*
Y169750D02*X151900Y170500D01*
X153400D01*
X154150Y169750D01*
X157450Y170500D02*Y169750D01*
Y168250D02*Y167500D01*
X155950Y172750D02*Y172000D01*
Y172750D02*X156700Y173500D01*
X158200D01*
X158950Y172750D01*
Y172000D01*
X157450Y170500D02*X158950Y172000D01*
X130000Y164250D02*X160750D01*
X0Y188500D02*X3000D01*
X1500D02*Y182500D01*
X4800Y188500D02*Y182500D01*
Y184750D02*X5550Y185500D01*
X7050D01*
X7800Y184750D01*
Y182500D01*
X10350D02*X12600D01*
X9600Y183250D02*X10350Y182500D01*
X9600Y184750D02*Y183250D01*
Y184750D02*X10350Y185500D01*
X11850D01*
X12600Y184750D01*
X9600Y184000D02*X12600D01*
Y184750D02*Y184000D01*
X15150Y184750D02*Y182500D01*
Y184750D02*X15900Y185500D01*
X17400D01*
X14400D02*X15150Y184750D01*
X19950Y182500D02*X22200D01*
X19200Y183250D02*X19950Y182500D01*
X19200Y184750D02*Y183250D01*
Y184750D02*X19950Y185500D01*
X21450D01*
X22200Y184750D01*
X19200Y184000D02*X22200D01*
Y184750D02*Y184000D01*
X28950Y185500D02*X29700Y184750D01*
X27450Y185500D02*X28950D01*
X26700Y184750D02*X27450Y185500D01*
X26700Y184750D02*Y183250D01*
X27450Y182500D01*
X29700Y185500D02*Y183250D01*
X30450Y182500D01*
X27450D02*X28950D01*
X29700Y183250D01*
X33000Y184750D02*Y182500D01*
Y184750D02*X33750Y185500D01*
X35250D01*
X32250D02*X33000Y184750D01*
X37800Y182500D02*X40050D01*
X37050Y183250D02*X37800Y182500D01*
X37050Y184750D02*Y183250D01*
Y184750D02*X37800Y185500D01*
X39300D01*
X40050Y184750D01*
X37050Y184000D02*X40050D01*
Y184750D02*Y184000D01*
X44550Y184750D02*X47550Y188500D01*
X44550Y184750D02*X48300D01*
X47550Y188500D02*Y182500D01*
X55800Y188500D02*Y182500D01*
X55050D02*X55800Y183250D01*
X53550Y182500D02*X55050D01*
X52800Y183250D02*X53550Y182500D01*
X52800Y184750D02*Y183250D01*
Y184750D02*X53550Y185500D01*
X55050D01*
X55800Y184750D01*
G54D86*X57600Y187000D02*Y186850D01*
G54D85*Y184750D02*Y182500D01*
X59850Y187750D02*Y182500D01*
Y187750D02*X60600Y188500D01*
X61350D01*
X59100Y185500D02*X60600D01*
X63600Y187750D02*Y182500D01*
Y187750D02*X64350Y188500D01*
X65100D01*
X62850Y185500D02*X64350D01*
X67350Y182500D02*X69600D01*
X66600Y183250D02*X67350Y182500D01*
X66600Y184750D02*Y183250D01*
Y184750D02*X67350Y185500D01*
X68850D01*
X69600Y184750D01*
X66600Y184000D02*X69600D01*
Y184750D02*Y184000D01*
X72150Y184750D02*Y182500D01*
Y184750D02*X72900Y185500D01*
X74400D01*
X71400D02*X72150Y184750D01*
X76950Y182500D02*X79200D01*
X76200Y183250D02*X76950Y182500D01*
X76200Y184750D02*Y183250D01*
Y184750D02*X76950Y185500D01*
X78450D01*
X79200Y184750D01*
X76200Y184000D02*X79200D01*
Y184750D02*Y184000D01*
X81750Y184750D02*Y182500D01*
Y184750D02*X82500Y185500D01*
X83250D01*
X84000Y184750D01*
Y182500D01*
X81000Y185500D02*X81750Y184750D01*
X86550Y188500D02*Y183250D01*
X87300Y182500D01*
X85800Y186250D02*X87300D01*
X94500Y188500D02*Y182500D01*
X93750D02*X94500Y183250D01*
X92250Y182500D02*X93750D01*
X91500Y183250D02*X92250Y182500D01*
X91500Y184750D02*Y183250D01*
Y184750D02*X92250Y185500D01*
X93750D01*
X94500Y184750D01*
X97050D02*Y182500D01*
Y184750D02*X97800Y185500D01*
X99300D01*
X96300D02*X97050Y184750D01*
G54D86*X101100Y187000D02*Y186850D01*
G54D85*Y184750D02*Y182500D01*
X102600Y188500D02*Y183250D01*
X103350Y182500D01*
X104850Y188500D02*Y183250D01*
X105600Y182500D01*
X110550D02*X112800D01*
X113550Y183250D01*
X112800Y184000D02*X113550Y183250D01*
X110550Y184000D02*X112800D01*
X109800Y184750D02*X110550Y184000D01*
X109800Y184750D02*X110550Y185500D01*
X112800D01*
X113550Y184750D01*
X109800Y183250D02*X110550Y182500D01*
G54D86*X115350Y187000D02*Y186850D01*
G54D85*Y184750D02*Y182500D01*
X116850Y185500D02*X119850D01*
X116850Y182500D02*X119850Y185500D01*
X116850Y182500D02*X119850D01*
X122400D02*X124650D01*
X121650Y183250D02*X122400Y182500D01*
X121650Y184750D02*Y183250D01*
Y184750D02*X122400Y185500D01*
X123900D01*
X124650Y184750D01*
X121650Y184000D02*X124650D01*
Y184750D02*Y184000D01*
X127200Y182500D02*X129450D01*
X130200Y183250D01*
X129450Y184000D02*X130200Y183250D01*
X127200Y184000D02*X129450D01*
X126450Y184750D02*X127200Y184000D01*
X126450Y184750D02*X127200Y185500D01*
X129450D01*
X130200Y184750D01*
X126450Y183250D02*X127200Y182500D01*
X134700Y185500D02*Y183250D01*
X135450Y182500D01*
X136950D01*
X137700Y183250D01*
Y185500D02*Y183250D01*
X140250Y182500D02*X142500D01*
X143250Y183250D01*
X142500Y184000D02*X143250Y183250D01*
X140250Y184000D02*X142500D01*
X139500Y184750D02*X140250Y184000D01*
X139500Y184750D02*X140250Y185500D01*
X142500D01*
X143250Y184750D01*
X139500Y183250D02*X140250Y182500D01*
X145800D02*X148050D01*
X145050Y183250D02*X145800Y182500D01*
X145050Y184750D02*Y183250D01*
Y184750D02*X145800Y185500D01*
X147300D01*
X148050Y184750D01*
X145050Y184000D02*X148050D01*
Y184750D02*Y184000D01*
X152850Y188500D02*Y182500D01*
X152100D02*X152850Y183250D01*
X150600Y182500D02*X152100D01*
X149850Y183250D02*X150600Y182500D01*
X149850Y184750D02*Y183250D01*
Y184750D02*X150600Y185500D01*
X152100D01*
X152850Y184750D01*
G54D86*X157350Y187000D02*Y186850D01*
G54D85*Y184750D02*Y182500D01*
X159600Y184750D02*Y182500D01*
Y184750D02*X160350Y185500D01*
X161100D01*
X161850Y184750D01*
Y182500D01*
X158850Y185500D02*X159600Y184750D01*
X167100Y188500D02*Y183250D01*
X167850Y182500D01*
X166350Y186250D02*X167850D01*
X169350Y188500D02*Y182500D01*
Y184750D02*X170100Y185500D01*
X171600D01*
X172350Y184750D01*
Y182500D01*
G54D86*X174150Y187000D02*Y186850D01*
G54D85*Y184750D02*Y182500D01*
X176400D02*X178650D01*
X179400Y183250D01*
X178650Y184000D02*X179400Y183250D01*
X176400Y184000D02*X178650D01*
X175650Y184750D02*X176400Y184000D01*
X175650Y184750D02*X176400Y185500D01*
X178650D01*
X179400Y184750D01*
X175650Y183250D02*X176400Y182500D01*
X183900Y188500D02*Y183250D01*
X184650Y182500D01*
X188400Y185500D02*X189150Y184750D01*
X186900Y185500D02*X188400D01*
X186150Y184750D02*X186900Y185500D01*
X186150Y184750D02*Y183250D01*
X186900Y182500D01*
X189150Y185500D02*Y183250D01*
X189900Y182500D01*
X186900D02*X188400D01*
X189150Y183250D01*
X191700Y185500D02*Y183250D01*
X192450Y182500D01*
X194700Y185500D02*Y181000D01*
X193950Y180250D02*X194700Y181000D01*
X192450Y180250D02*X193950D01*
X191700Y181000D02*X192450Y180250D01*
Y182500D02*X193950D01*
X194700Y183250D01*
X196500Y184750D02*Y183250D01*
Y184750D02*X197250Y185500D01*
X198750D01*
X199500Y184750D01*
Y183250D01*
X198750Y182500D02*X199500Y183250D01*
X197250Y182500D02*X198750D01*
X196500Y183250D02*X197250Y182500D01*
X201300Y185500D02*Y183250D01*
X202050Y182500D01*
X203550D01*
X204300Y183250D01*
Y185500D02*Y183250D01*
X206850Y188500D02*Y183250D01*
X207600Y182500D01*
X206100Y186250D02*X207600D01*
X209100Y181000D02*X210600Y182500D01*
X217350Y188500D02*X218100Y187750D01*
X215850Y188500D02*X217350D01*
X215100Y187750D02*X215850Y188500D01*
X215100Y187750D02*Y183250D01*
X215850Y182500D01*
X217350Y185800D02*X218100Y185050D01*
X215100Y185800D02*X217350D01*
X215850Y182500D02*X217350D01*
X218100Y183250D01*
Y185050D02*Y183250D01*
X219900Y187300D02*X221100Y188500D01*
Y182500D01*
X219900D02*X222150D01*
X226650Y188500D02*Y182500D01*
Y184750D02*X227400Y185500D01*
X228900D01*
X229650Y184750D01*
Y182500D01*
X231450Y184750D02*Y183250D01*
Y184750D02*X232200Y185500D01*
X233700D01*
X234450Y184750D01*
Y183250D01*
X233700Y182500D02*X234450Y183250D01*
X232200Y182500D02*X233700D01*
X231450Y183250D02*X232200Y182500D01*
X236250Y188500D02*Y183250D01*
X237000Y182500D01*
X239250D02*X241500D01*
X238500Y183250D02*X239250Y182500D01*
X238500Y184750D02*Y183250D01*
Y184750D02*X239250Y185500D01*
X240750D01*
X241500Y184750D01*
X238500Y184000D02*X241500D01*
Y184750D02*Y184000D01*
X244050Y182500D02*X246300D01*
X247050Y183250D01*
X246300Y184000D02*X247050Y183250D01*
X244050Y184000D02*X246300D01*
X243300Y184750D02*X244050Y184000D01*
X243300Y184750D02*X244050Y185500D01*
X246300D01*
X247050Y184750D01*
X243300Y183250D02*X244050Y182500D01*
X252300Y188500D02*Y183250D01*
X253050Y182500D01*
X251550Y186250D02*X253050D01*
X254550Y184750D02*Y183250D01*
Y184750D02*X255300Y185500D01*
X256800D01*
X257550Y184750D01*
Y183250D01*
X256800Y182500D02*X257550Y183250D01*
X255300Y182500D02*X256800D01*
X254550Y183250D02*X255300Y182500D01*
X260100Y188500D02*Y183250D01*
X260850Y182500D01*
X259350Y186250D02*X260850D01*
X264600Y185500D02*X265350Y184750D01*
X263100Y185500D02*X264600D01*
X262350Y184750D02*X263100Y185500D01*
X262350Y184750D02*Y183250D01*
X263100Y182500D01*
X265350Y185500D02*Y183250D01*
X266100Y182500D01*
X263100D02*X264600D01*
X265350Y183250D01*
X267900Y188500D02*Y183250D01*
X268650Y182500D01*
G54D87*X0Y100000D02*X187500D01*
Y0D01*
X0D01*
Y100000D01*
G54D85*X7425Y-9500D02*X10425D01*
X11175Y-8750D01*
Y-6950D02*Y-8750D01*
X10425Y-6200D02*X11175Y-6950D01*
X8175Y-6200D02*X10425D01*
X8175Y-3500D02*Y-9500D01*
X7425Y-3500D02*X10425D01*
X11175Y-4250D01*
Y-5450D01*
X10425Y-6200D02*X11175Y-5450D01*
X12975Y-7250D02*Y-8750D01*
Y-7250D02*X13725Y-6500D01*
X15225D01*
X15975Y-7250D01*
Y-8750D01*
X15225Y-9500D02*X15975Y-8750D01*
X13725Y-9500D02*X15225D01*
X12975Y-8750D02*X13725Y-9500D01*
X20025Y-6500D02*X20775Y-7250D01*
X18525Y-6500D02*X20025D01*
X17775Y-7250D02*X18525Y-6500D01*
X17775Y-7250D02*Y-8750D01*
X18525Y-9500D01*
X20775Y-6500D02*Y-8750D01*
X21525Y-9500D01*
X18525D02*X20025D01*
X20775Y-8750D01*
X24075Y-7250D02*Y-9500D01*
Y-7250D02*X24825Y-6500D01*
X26325D01*
X23325D02*X24075Y-7250D01*
X31125Y-3500D02*Y-9500D01*
X30375D02*X31125Y-8750D01*
X28875Y-9500D02*X30375D01*
X28125Y-8750D02*X28875Y-9500D01*
X28125Y-7250D02*Y-8750D01*
Y-7250D02*X28875Y-6500D01*
X30375D01*
X31125Y-7250D01*
X35625D02*Y-8750D01*
Y-7250D02*X36375Y-6500D01*
X37875D01*
X38625Y-7250D01*
Y-8750D01*
X37875Y-9500D02*X38625Y-8750D01*
X36375Y-9500D02*X37875D01*
X35625Y-8750D02*X36375Y-9500D01*
X40425Y-6500D02*Y-8750D01*
X41175Y-9500D01*
X42675D01*
X43425Y-8750D01*
Y-6500D02*Y-8750D01*
X45975Y-3500D02*Y-8750D01*
X46725Y-9500D01*
X45225Y-5750D02*X46725D01*
X48225Y-3500D02*Y-8750D01*
X48975Y-9500D01*
G54D86*X50475Y-5000D02*Y-5150D01*
G54D85*Y-7250D02*Y-9500D01*
X52725Y-7250D02*Y-9500D01*
Y-7250D02*X53475Y-6500D01*
X54225D01*
X54975Y-7250D01*
Y-9500D01*
X51975Y-6500D02*X52725Y-7250D01*
X57525Y-9500D02*X59775D01*
X56775Y-8750D02*X57525Y-9500D01*
X56775Y-7250D02*Y-8750D01*
Y-7250D02*X57525Y-6500D01*
X59025D01*
X59775Y-7250D01*
X56775Y-8000D02*X59775D01*
Y-7250D02*Y-8000D01*
G54D86*X64275Y-5000D02*Y-5150D01*
G54D85*Y-7250D02*Y-9500D01*
X66525D02*X68775D01*
X69525Y-8750D01*
X68775Y-8000D02*X69525Y-8750D01*
X66525Y-8000D02*X68775D01*
X65775Y-7250D02*X66525Y-8000D01*
X65775Y-7250D02*X66525Y-6500D01*
X68775D01*
X69525Y-7250D01*
X65775Y-8750D02*X66525Y-9500D01*
X74775Y-3500D02*Y-8750D01*
X75525Y-9500D01*
X74025Y-5750D02*X75525D01*
X77025Y-3500D02*Y-9500D01*
Y-7250D02*X77775Y-6500D01*
X79275D01*
X80025Y-7250D01*
Y-9500D01*
X82575D02*X84825D01*
X81825Y-8750D02*X82575Y-9500D01*
X81825Y-7250D02*Y-8750D01*
Y-7250D02*X82575Y-6500D01*
X84075D01*
X84825Y-7250D01*
X81825Y-8000D02*X84825D01*
Y-7250D02*Y-8000D01*
X90075Y-6500D02*X92325D01*
X89325Y-7250D02*X90075Y-6500D01*
X89325Y-7250D02*Y-8750D01*
X90075Y-9500D01*
X92325D01*
X94875D02*X97125D01*
X94125Y-8750D02*X94875Y-9500D01*
X94125Y-7250D02*Y-8750D01*
Y-7250D02*X94875Y-6500D01*
X96375D01*
X97125Y-7250D01*
X94125Y-8000D02*X97125D01*
Y-7250D02*Y-8000D01*
X99675Y-7250D02*Y-9500D01*
Y-7250D02*X100425Y-6500D01*
X101175D01*
X101925Y-7250D01*
Y-9500D01*
X98925Y-6500D02*X99675Y-7250D01*
X104475Y-3500D02*Y-8750D01*
X105225Y-9500D01*
X103725Y-5750D02*X105225D01*
X107475Y-9500D02*X109725D01*
X106725Y-8750D02*X107475Y-9500D01*
X106725Y-7250D02*Y-8750D01*
Y-7250D02*X107475Y-6500D01*
X108975D01*
X109725Y-7250D01*
X106725Y-8000D02*X109725D01*
Y-7250D02*Y-8000D01*
X112275Y-7250D02*Y-9500D01*
Y-7250D02*X113025Y-6500D01*
X114525D01*
X111525D02*X112275Y-7250D01*
X116325Y-3500D02*Y-8750D01*
X117075Y-9500D01*
G54D86*X118575Y-5000D02*Y-5150D01*
G54D85*Y-7250D02*Y-9500D01*
X120825Y-7250D02*Y-9500D01*
Y-7250D02*X121575Y-6500D01*
X122325D01*
X123075Y-7250D01*
Y-9500D01*
X120075Y-6500D02*X120825Y-7250D01*
X125625Y-9500D02*X127875D01*
X124875Y-8750D02*X125625Y-9500D01*
X124875Y-7250D02*Y-8750D01*
Y-7250D02*X125625Y-6500D01*
X127125D01*
X127875Y-7250D01*
X124875Y-8000D02*X127875D01*
Y-7250D02*Y-8000D01*
X132375Y-7250D02*Y-8750D01*
Y-7250D02*X133125Y-6500D01*
X134625D01*
X135375Y-7250D01*
Y-8750D01*
X134625Y-9500D02*X135375Y-8750D01*
X133125Y-9500D02*X134625D01*
X132375Y-8750D02*X133125Y-9500D01*
X137925Y-4250D02*Y-9500D01*
Y-4250D02*X138675Y-3500D01*
X139425D01*
X137175Y-6500D02*X138675D01*
X144375Y-3500D02*Y-8750D01*
X145125Y-9500D01*
X143625Y-5750D02*X145125D01*
X146625Y-3500D02*Y-9500D01*
Y-7250D02*X147375Y-6500D01*
X148875D01*
X149625Y-7250D01*
Y-9500D01*
G54D86*X151425Y-5000D02*Y-5150D01*
G54D85*Y-7250D02*Y-9500D01*
X153675D02*X155925D01*
X156675Y-8750D01*
X155925Y-8000D02*X156675Y-8750D01*
X153675Y-8000D02*X155925D01*
X152925Y-7250D02*X153675Y-8000D01*
X152925Y-7250D02*X153675Y-6500D01*
X155925D01*
X156675Y-7250D01*
X152925Y-8750D02*X153675Y-9500D01*
X161925Y-7250D02*Y-11750D01*
X161175Y-6500D02*X161925Y-7250D01*
X162675Y-6500D01*
X164175D01*
X164925Y-7250D01*
Y-8750D01*
X164175Y-9500D02*X164925Y-8750D01*
X162675Y-9500D02*X164175D01*
X161925Y-8750D02*X162675Y-9500D01*
X168975Y-6500D02*X169725Y-7250D01*
X167475Y-6500D02*X168975D01*
X166725Y-7250D02*X167475Y-6500D01*
X166725Y-7250D02*Y-8750D01*
X167475Y-9500D01*
X169725Y-6500D02*Y-8750D01*
X170475Y-9500D01*
X167475D02*X168975D01*
X169725Y-8750D01*
X173025Y-3500D02*Y-8750D01*
X173775Y-9500D01*
X172275Y-5750D02*X173775D01*
X175275Y-3500D02*Y-9500D01*
Y-7250D02*X176025Y-6500D01*
X177525D01*
X178275Y-7250D01*
Y-9500D01*
X200750Y128500D02*Y122500D01*
X202700Y128500D02*X203750Y127450D01*
Y123550D01*
X202700Y122500D02*X203750Y123550D01*
X200000Y122500D02*X202700D01*
X200000Y128500D02*X202700D01*
X207800Y125500D02*X208550Y124750D01*
X206300Y125500D02*X207800D01*
X205550Y124750D02*X206300Y125500D01*
X205550Y124750D02*Y123250D01*
X206300Y122500D01*
X208550Y125500D02*Y123250D01*
X209300Y122500D01*
X206300D02*X207800D01*
X208550Y123250D01*
X211850Y128500D02*Y123250D01*
X212600Y122500D01*
X211100Y126250D02*X212600D01*
X214850Y122500D02*X217100D01*
X214100Y123250D02*X214850Y122500D01*
X214100Y124750D02*Y123250D01*
Y124750D02*X214850Y125500D01*
X216350D01*
X217100Y124750D01*
X214100Y124000D02*X217100D01*
Y124750D02*Y124000D01*
X218900Y126250D02*X219650D01*
X218900Y124750D02*X219650D01*
X224150Y128500D02*X227150D01*
X225650D02*Y122500D01*
X228950Y128500D02*Y122500D01*
Y124750D02*X229700Y125500D01*
X231200D01*
X231950Y124750D01*
Y122500D01*
X233750Y125500D02*Y123250D01*
X234500Y122500D01*
X236000D01*
X236750Y123250D01*
Y125500D02*Y123250D01*
X241250Y127750D02*X242000Y128500D01*
X243500D01*
X244250Y127750D01*
X243500Y122500D02*X244250Y123250D01*
X242000Y122500D02*X243500D01*
X241250Y123250D02*X242000Y122500D01*
Y125800D02*X243500D01*
X244250Y127750D02*Y126550D01*
Y125050D02*Y123250D01*
Y125050D02*X243500Y125800D01*
X244250Y126550D02*X243500Y125800D01*
X246050Y123250D02*X246800Y122500D01*
X246050Y127750D02*Y123250D01*
Y127750D02*X246800Y128500D01*
X248300D01*
X249050Y127750D01*
Y123250D01*
X248300Y122500D02*X249050Y123250D01*
X246800Y122500D02*X248300D01*
X246050Y124000D02*X249050Y127000D01*
X253550D02*Y122500D01*
Y127000D02*X254600Y128500D01*
X256250D01*
X257300Y127000D01*
Y122500D01*
X253550Y125500D02*X257300D01*
X259100D02*Y123250D01*
X259850Y122500D01*
X261350D01*
X262100Y123250D01*
Y125500D02*Y123250D01*
X266150Y125500D02*X266900Y124750D01*
X264650Y125500D02*X266150D01*
X263900Y124750D02*X264650Y125500D01*
X263900Y124750D02*Y123250D01*
X264650Y122500D01*
X266150D01*
X266900Y123250D01*
X263900Y121000D02*X264650Y120250D01*
X266150D01*
X266900Y121000D01*
Y125500D02*Y121000D01*
X271400Y127750D02*X272150Y128500D01*
X274400D01*
X275150Y127750D01*
Y126250D01*
X271400Y122500D02*X275150Y126250D01*
X271400Y122500D02*X275150D01*
X276950Y123250D02*X277700Y122500D01*
X276950Y127750D02*Y123250D01*
Y127750D02*X277700Y128500D01*
X279200D01*
X279950Y127750D01*
Y123250D01*
X279200Y122500D02*X279950Y123250D01*
X277700Y122500D02*X279200D01*
X276950Y124000D02*X279950Y127000D01*
X281750Y127300D02*X282950Y128500D01*
Y122500D01*
X281750D02*X284000D01*
X285800Y123250D02*X286550Y122500D01*
X285800Y124450D02*Y123250D01*
Y124450D02*X286850Y125500D01*
X287750D01*
X288800Y124450D01*
Y123250D01*
X288050Y122500D02*X288800Y123250D01*
X286550Y122500D02*X288050D01*
X285800Y126550D02*X286850Y125500D01*
X285800Y127750D02*Y126550D01*
Y127750D02*X286550Y128500D01*
X288050D01*
X288800Y127750D01*
Y126550D01*
X287750Y125500D02*X288800Y126550D01*
X293300Y123250D02*X294050Y122500D01*
X293300Y127750D02*Y123250D01*
Y127750D02*X294050Y128500D01*
X295550D01*
X296300Y127750D01*
Y123250D01*
X295550Y122500D02*X296300Y123250D01*
X294050Y122500D02*X295550D01*
X293300Y124000D02*X296300Y127000D01*
X298850Y122500D02*X301850Y128500D01*
X298100D02*X301850D01*
X303650Y126250D02*X304400D01*
X303650Y124750D02*X304400D01*
X306200Y127750D02*X306950Y128500D01*
X309200D01*
X309950Y127750D01*
Y126250D01*
X306200Y122500D02*X309950Y126250D01*
X306200Y122500D02*X309950D01*
X311750Y123250D02*X312500Y122500D01*
X311750Y124450D02*Y123250D01*
Y124450D02*X312800Y125500D01*
X313700D01*
X314750Y124450D01*
Y123250D01*
X314000Y122500D02*X314750Y123250D01*
X312500Y122500D02*X314000D01*
X311750Y126550D02*X312800Y125500D01*
X311750Y127750D02*Y126550D01*
Y127750D02*X312500Y128500D01*
X314000D01*
X314750Y127750D01*
Y126550D01*
X313700Y125500D02*X314750Y126550D01*
X316550Y126250D02*X317300D01*
X316550Y124750D02*X317300D01*
X319100Y127750D02*X319850Y128500D01*
X321350D01*
X322100Y127750D01*
X321350Y122500D02*X322100Y123250D01*
X319850Y122500D02*X321350D01*
X319100Y123250D02*X319850Y122500D01*
Y125800D02*X321350D01*
X322100Y127750D02*Y126550D01*
Y125050D02*Y123250D01*
Y125050D02*X321350Y125800D01*
X322100Y126550D02*X321350Y125800D01*
X323900Y127300D02*X325100Y128500D01*
Y122500D01*
X323900D02*X326150D01*
X331400Y128500D02*Y122500D01*
X330650Y128500D02*X333650D01*
X334400Y127750D01*
Y126250D01*
X333650Y125500D02*X334400Y126250D01*
X331400Y125500D02*X333650D01*
X336200Y128500D02*Y122500D01*
Y128500D02*X338450Y125500D01*
X340700Y128500D01*
Y122500D01*
X348200Y128500D02*X348950Y127750D01*
X345950Y128500D02*X348200D01*
X345200Y127750D02*X345950Y128500D01*
X345200Y127750D02*Y123250D01*
X345950Y122500D01*
X348200D01*
X348950Y123250D01*
Y124750D02*Y123250D01*
X348200Y125500D02*X348950Y124750D01*
X346700Y125500D02*X348200D01*
X350750Y128500D02*Y122500D01*
Y128500D02*X353000Y125500D01*
X355250Y128500D01*
Y122500D01*
X357050Y128500D02*X360050D01*
X358550D02*Y122500D01*
X364550Y128500D02*Y123250D01*
X365300Y122500D01*
X366800D01*
X367550Y123250D01*
Y128500D02*Y123250D01*
X369350Y128500D02*X372350D01*
X370850D02*Y122500D01*
X375200D02*X377150D01*
X374150Y123550D02*X375200Y122500D01*
X374150Y127450D02*Y123550D01*
Y127450D02*X375200Y128500D01*
X377150D01*
X200000Y142000D02*Y137500D01*
Y142000D02*X201050Y143500D01*
X202700D01*
X203750Y142000D01*
Y137500D01*
X200000Y140500D02*X203750D01*
X205550D02*Y138250D01*
X206300Y137500D01*
X207800D01*
X208550Y138250D01*
Y140500D02*Y138250D01*
X211100Y143500D02*Y138250D01*
X211850Y137500D01*
X210350Y141250D02*X211850D01*
X213350Y143500D02*Y137500D01*
Y139750D02*X214100Y140500D01*
X215600D01*
X216350Y139750D01*
Y137500D01*
X218150Y139750D02*Y138250D01*
Y139750D02*X218900Y140500D01*
X220400D01*
X221150Y139750D01*
Y138250D01*
X220400Y137500D02*X221150Y138250D01*
X218900Y137500D02*X220400D01*
X218150Y138250D02*X218900Y137500D01*
X223700Y139750D02*Y137500D01*
Y139750D02*X224450Y140500D01*
X225950D01*
X222950D02*X223700Y139750D01*
X227750Y141250D02*X228500D01*
X227750Y139750D02*X228500D01*
X233000Y143500D02*Y137500D01*
Y143500D02*X235250Y140500D01*
X237500Y143500D01*
Y137500D01*
G54D86*X239300Y142000D02*Y141850D01*
G54D85*Y139750D02*Y137500D01*
X241550Y140500D02*X243800D01*
X240800Y139750D02*X241550Y140500D01*
X240800Y139750D02*Y138250D01*
X241550Y137500D01*
X243800D01*
X245600Y143500D02*Y137500D01*
Y139750D02*X246350Y140500D01*
X247850D01*
X248600Y139750D01*
Y137500D01*
X252650Y140500D02*X253400Y139750D01*
X251150Y140500D02*X252650D01*
X250400Y139750D02*X251150Y140500D01*
X250400Y139750D02*Y138250D01*
X251150Y137500D01*
X253400Y140500D02*Y138250D01*
X254150Y137500D01*
X251150D02*X252650D01*
X253400Y138250D01*
X256700Y137500D02*X258950D01*
X255950Y138250D02*X256700Y137500D01*
X255950Y139750D02*Y138250D01*
Y139750D02*X256700Y140500D01*
X258200D01*
X258950Y139750D01*
X255950Y139000D02*X258950D01*
Y139750D02*Y139000D01*
X260750Y143500D02*Y138250D01*
X261500Y137500D01*
X266450Y143500D02*Y137500D01*
X265700Y143500D02*X268700D01*
X269450Y142750D01*
Y141250D01*
X268700Y140500D02*X269450Y141250D01*
X266450Y140500D02*X268700D01*
X272000Y137500D02*X274250D01*
X271250Y138250D02*X272000Y137500D01*
X271250Y139750D02*Y138250D01*
Y139750D02*X272000Y140500D01*
X273500D01*
X274250Y139750D01*
X271250Y139000D02*X274250D01*
Y139750D02*Y139000D01*
X276800Y143500D02*Y138250D01*
X277550Y137500D01*
X276050Y141250D02*X277550D01*
X279800Y137500D02*X282050D01*
X279050Y138250D02*X279800Y137500D01*
X279050Y139750D02*Y138250D01*
Y139750D02*X279800Y140500D01*
X281300D01*
X282050Y139750D01*
X279050Y139000D02*X282050D01*
Y139750D02*Y139000D01*
X284600Y139750D02*Y137500D01*
Y139750D02*X285350Y140500D01*
X286850D01*
X283850D02*X284600Y139750D01*
X289400Y137500D02*X291650D01*
X292400Y138250D01*
X291650Y139000D02*X292400Y138250D01*
X289400Y139000D02*X291650D01*
X288650Y139750D02*X289400Y139000D01*
X288650Y139750D02*X289400Y140500D01*
X291650D01*
X292400Y139750D01*
X288650Y138250D02*X289400Y137500D01*
X294950D02*X297200D01*
X294200Y138250D02*X294950Y137500D01*
X294200Y139750D02*Y138250D01*
Y139750D02*X294950Y140500D01*
X296450D01*
X297200Y139750D01*
X294200Y139000D02*X297200D01*
Y139750D02*Y139000D01*
X299750Y139750D02*Y137500D01*
Y139750D02*X300500Y140500D01*
X301250D01*
X302000Y139750D01*
Y137500D01*
X299000Y140500D02*X299750Y139750D01*
X200000Y158500D02*X203000D01*
X201500D02*Y152500D01*
G54D86*X204800Y157000D02*Y156850D01*
G54D85*Y154750D02*Y152500D01*
X207050Y158500D02*Y153250D01*
X207800Y152500D01*
X206300Y156250D02*X207800D01*
X209300Y158500D02*Y153250D01*
X210050Y152500D01*
X212300D02*X214550D01*
X211550Y153250D02*X212300Y152500D01*
X211550Y154750D02*Y153250D01*
Y154750D02*X212300Y155500D01*
X213800D01*
X214550Y154750D01*
X211550Y154000D02*X214550D01*
Y154750D02*Y154000D01*
X216350Y156250D02*X217100D01*
X216350Y154750D02*X217100D01*
X221600Y153250D02*X222350Y152500D01*
X221600Y157750D02*X222350Y158500D01*
X221600Y157750D02*Y153250D01*
X224150Y155500D02*Y153250D01*
X224900Y152500D01*
X226400D01*
X227150Y153250D01*
Y155500D02*Y153250D01*
X229700Y154750D02*Y152500D01*
Y154750D02*X230450Y155500D01*
X231200D01*
X231950Y154750D01*
Y152500D01*
X228950Y155500D02*X229700Y154750D01*
X233750Y158500D02*Y152500D01*
Y154750D02*X236000Y152500D01*
X233750Y154750D02*X235250Y156250D01*
X238550Y154750D02*Y152500D01*
Y154750D02*X239300Y155500D01*
X240050D01*
X240800Y154750D01*
Y152500D01*
X237800Y155500D02*X238550Y154750D01*
X242600D02*Y153250D01*
Y154750D02*X243350Y155500D01*
X244850D01*
X245600Y154750D01*
Y153250D01*
X244850Y152500D02*X245600Y153250D01*
X243350Y152500D02*X244850D01*
X242600Y153250D02*X243350Y152500D01*
X247400Y155500D02*Y153250D01*
X248150Y152500D01*
X248900D01*
X249650Y153250D01*
Y155500D02*Y153250D01*
X250400Y152500D01*
X251150D01*
X251900Y153250D01*
Y155500D02*Y153250D01*
X254450Y154750D02*Y152500D01*
Y154750D02*X255200Y155500D01*
X255950D01*
X256700Y154750D01*
Y152500D01*
X253700Y155500D02*X254450Y154750D01*
X258500Y158500D02*X259250Y157750D01*
Y153250D01*
X258500Y152500D02*X259250Y153250D01*
X263750Y155500D02*X266750D01*
X271250Y158500D02*Y152500D01*
Y158500D02*X274250D01*
X271250Y155800D02*X273500D01*
X278300Y155500D02*X279050Y154750D01*
X276800Y155500D02*X278300D01*
X276050Y154750D02*X276800Y155500D01*
X276050Y154750D02*Y153250D01*
X276800Y152500D01*
X279050Y155500D02*Y153250D01*
X279800Y152500D01*
X276800D02*X278300D01*
X279050Y153250D01*
X281600Y158500D02*Y152500D01*
Y153250D02*X282350Y152500D01*
X283850D01*
X284600Y153250D01*
Y154750D02*Y153250D01*
X283850Y155500D02*X284600Y154750D01*
X282350Y155500D02*X283850D01*
X281600Y154750D02*X282350Y155500D01*
X287150Y154750D02*Y152500D01*
Y154750D02*X287900Y155500D01*
X289400D01*
X286400D02*X287150Y154750D01*
G54D86*X291200Y157000D02*Y156850D01*
G54D85*Y154750D02*Y152500D01*
X293450Y155500D02*X295700D01*
X292700Y154750D02*X293450Y155500D01*
X292700Y154750D02*Y153250D01*
X293450Y152500D01*
X295700D01*
X299750Y155500D02*X300500Y154750D01*
X298250Y155500D02*X299750D01*
X297500Y154750D02*X298250Y155500D01*
X297500Y154750D02*Y153250D01*
X298250Y152500D01*
X300500Y155500D02*Y153250D01*
X301250Y152500D01*
X298250D02*X299750D01*
X300500Y153250D01*
X303800Y158500D02*Y153250D01*
X304550Y152500D01*
X303050Y156250D02*X304550D01*
G54D86*X306050Y157000D02*Y156850D01*
G54D85*Y154750D02*Y152500D01*
X307550Y154750D02*Y153250D01*
Y154750D02*X308300Y155500D01*
X309800D01*
X310550Y154750D01*
Y153250D01*
X309800Y152500D02*X310550Y153250D01*
X308300Y152500D02*X309800D01*
X307550Y153250D02*X308300Y152500D01*
X313100Y154750D02*Y152500D01*
Y154750D02*X313850Y155500D01*
X314600D01*
X315350Y154750D01*
Y152500D01*
X312350Y155500D02*X313100Y154750D01*
X320600Y158500D02*Y152500D01*
X322550Y158500D02*X323600Y157450D01*
Y153550D01*
X322550Y152500D02*X323600Y153550D01*
X319850Y152500D02*X322550D01*
X319850Y158500D02*X322550D01*
X326150Y154750D02*Y152500D01*
Y154750D02*X326900Y155500D01*
X328400D01*
X325400D02*X326150Y154750D01*
X332450Y155500D02*X333200Y154750D01*
X330950Y155500D02*X332450D01*
X330200Y154750D02*X330950Y155500D01*
X330200Y154750D02*Y153250D01*
X330950Y152500D01*
X333200Y155500D02*Y153250D01*
X333950Y152500D01*
X330950D02*X332450D01*
X333200Y153250D01*
X335750Y155500D02*Y153250D01*
X336500Y152500D01*
X337250D01*
X338000Y153250D01*
Y155500D02*Y153250D01*
X338750Y152500D01*
X339500D01*
X340250Y153250D01*
Y155500D02*Y153250D01*
G54D86*X342050Y157000D02*Y156850D01*
G54D85*Y154750D02*Y152500D01*
X344300Y154750D02*Y152500D01*
Y154750D02*X345050Y155500D01*
X345800D01*
X346550Y154750D01*
Y152500D01*
X343550Y155500D02*X344300Y154750D01*
X350600Y155500D02*X351350Y154750D01*
X349100Y155500D02*X350600D01*
X348350Y154750D02*X349100Y155500D01*
X348350Y154750D02*Y153250D01*
X349100Y152500D01*
X350600D01*
X351350Y153250D01*
X348350Y151000D02*X349100Y150250D01*
X350600D01*
X351350Y151000D01*
Y155500D02*Y151000D01*
M02*
