G04 start of page 13 for group -3984 idx -3984 *
G04 Title: (unknown), fab *
G04 Creator: pcb 20140316 *
G04 CreationDate: Wed 15 Apr 2020 03:13:27 PM GMT UTC *
G04 For: railfan *
G04 Format: Gerber/RS-274X *
G04 PCB-Dimensions (mil): 2000.00 1000.00 *
G04 PCB-Coordinate-Origin: lower left *
%MOIN*%
%FSLAX25Y25*%
%LNFAB*%
%ADD83C,0.0100*%
%ADD82C,0.0075*%
%ADD81C,0.0060*%
%ADD80C,0.0001*%
G54D80*G36*
X22922Y60427D02*X25888Y57461D01*
X25322Y56896D01*
X22356Y59861D01*
X22922Y60427D01*
G37*
G36*
X22356Y57461D02*X25322Y60427D01*
X25888Y59861D01*
X22922Y56896D01*
X22356Y57461D01*
G37*
G36*
X22922Y43104D02*X25888Y40139D01*
X25322Y39573D01*
X22356Y42539D01*
X22922Y43104D01*
G37*
G36*
X22356Y40139D02*X25322Y43104D01*
X25888Y42539D01*
X22922Y39573D01*
X22356Y40139D01*
G37*
G36*
X13800Y128016D02*X16766Y125050D01*
X16200Y124484D01*
X13234Y127450D01*
X13800Y128016D01*
G37*
G36*
X13234Y125050D02*X16200Y128016D01*
X16766Y127450D01*
X13800Y124484D01*
X13234Y125050D01*
G37*
G54D81*X135000Y128500D02*X136500Y125500D01*
X138000Y128500D01*
X136500Y125500D02*Y122500D01*
X139800Y125800D02*X142050D01*
X139800Y122500D02*X142800D01*
X139800Y128500D02*Y122500D01*
Y128500D02*X142800D01*
X147600D02*X148350Y127750D01*
X145350Y128500D02*X147600D01*
X144600Y127750D02*X145350Y128500D01*
X144600Y127750D02*Y126250D01*
X145350Y125500D01*
X147600D01*
X148350Y124750D01*
Y123250D01*
X147600Y122500D02*X148350Y123250D01*
X145350Y122500D02*X147600D01*
X144600Y123250D02*X145350Y122500D01*
X98000Y127750D02*X98750Y128500D01*
X101000D01*
X101750Y127750D01*
Y126250D01*
X98000Y122500D02*X101750Y126250D01*
X98000Y122500D02*X101750D01*
X45000Y123250D02*X45750Y122500D01*
X45000Y127750D02*Y123250D01*
Y127750D02*X45750Y128500D01*
X47250D01*
X48000Y127750D01*
Y123250D01*
X47250Y122500D02*X48000Y123250D01*
X45750Y122500D02*X47250D01*
X45000Y124000D02*X48000Y127000D01*
X49800Y122500D02*X50550D01*
X52350Y123250D02*X53100Y122500D01*
X52350Y127750D02*Y123250D01*
Y127750D02*X53100Y128500D01*
X54600D01*
X55350Y127750D01*
Y123250D01*
X54600Y122500D02*X55350Y123250D01*
X53100Y122500D02*X54600D01*
X52350Y124000D02*X55350Y127000D01*
X57150Y124750D02*X60150Y128500D01*
X57150Y124750D02*X60900D01*
X60150Y128500D02*Y122500D01*
X62700Y124750D02*X65700Y128500D01*
X62700Y124750D02*X66450D01*
X65700Y128500D02*Y122500D01*
X163000Y92100D02*Y88900D01*
X161400Y90500D02*X164600D01*
X143000Y88100D02*Y84900D01*
X141400Y86500D02*X144600D01*
X143000Y96100D02*Y92900D01*
X141400Y94500D02*X144600D01*
X15000Y142850D02*Y139650D01*
X13400Y141250D02*X16600D01*
X140000Y143500D02*Y137500D01*
Y143500D02*X143750Y137500D01*
Y143500D02*Y137500D01*
X145550Y142750D02*Y138250D01*
Y142750D02*X146300Y143500D01*
X147800D01*
X148550Y142750D01*
Y138250D01*
X147800Y137500D02*X148550Y138250D01*
X146300Y137500D02*X147800D01*
X145550Y138250D02*X146300Y137500D01*
X98000Y142750D02*X98750Y143500D01*
X100250D01*
X101000Y142750D01*
X100250Y137500D02*X101000Y138250D01*
X98750Y137500D02*X100250D01*
X98000Y138250D02*X98750Y137500D01*
Y140800D02*X100250D01*
X101000Y142750D02*Y141550D01*
Y140050D02*Y138250D01*
Y140050D02*X100250Y140800D01*
X101000Y141550D02*X100250Y140800D01*
X45000Y138250D02*X45750Y137500D01*
X45000Y142750D02*Y138250D01*
Y142750D02*X45750Y143500D01*
X47250D01*
X48000Y142750D01*
Y138250D01*
X47250Y137500D02*X48000Y138250D01*
X45750Y137500D02*X47250D01*
X45000Y139000D02*X48000Y142000D01*
X49800Y137500D02*X50550D01*
X52350Y138250D02*X53100Y137500D01*
X52350Y142750D02*Y138250D01*
Y142750D02*X53100Y143500D01*
X54600D01*
X55350Y142750D01*
Y138250D01*
X54600Y137500D02*X55350Y138250D01*
X53100Y137500D02*X54600D01*
X52350Y139000D02*X55350Y142000D01*
X57150Y142750D02*X57900Y143500D01*
X59400D01*
X60150Y142750D01*
X59400Y137500D02*X60150Y138250D01*
X57900Y137500D02*X59400D01*
X57150Y138250D02*X57900Y137500D01*
Y140800D02*X59400D01*
X60150Y142750D02*Y141550D01*
Y140050D02*Y138250D01*
Y140050D02*X59400Y140800D01*
X60150Y141550D02*X59400Y140800D01*
X62700Y137500D02*X64950Y140500D01*
Y142750D02*Y140500D01*
X64200Y143500D02*X64950Y142750D01*
X62700Y143500D02*X64200D01*
X61950Y142750D02*X62700Y143500D01*
X61950Y142750D02*Y141250D01*
X62700Y140500D01*
X64950D01*
X4000Y85500D02*Y83900D01*
Y85500D02*X5387Y86300D01*
X4000Y85500D02*X2613Y86300D01*
X9500Y94000D02*Y92400D01*
Y94000D02*X10887Y94800D01*
X9500Y94000D02*X8113Y94800D01*
X5500Y94000D02*Y92400D01*
Y94000D02*X6887Y94800D01*
X5500Y94000D02*X4113Y94800D01*
X81000Y43500D02*Y41900D01*
Y43500D02*X82387Y44300D01*
X81000Y43500D02*X79613Y44300D01*
X68500Y60675D02*Y59075D01*
Y60675D02*X69887Y61475D01*
X68500Y60675D02*X67113Y61475D01*
X81000Y34276D02*Y32676D01*
Y34276D02*X82387Y35076D01*
X81000Y34276D02*X79613Y35076D01*
X139500Y37500D02*Y35900D01*
Y37500D02*X140887Y38300D01*
X139500Y37500D02*X138113Y38300D01*
X126500Y85500D02*Y83900D01*
Y85500D02*X127887Y86300D01*
X126500Y85500D02*X125113Y86300D01*
X126000Y94500D02*Y92900D01*
Y94500D02*X127387Y95300D01*
X126000Y94500D02*X124613Y95300D01*
X130500Y94500D02*Y92900D01*
Y94500D02*X131887Y95300D01*
X130500Y94500D02*X129113Y95300D01*
X135000Y94500D02*Y92900D01*
Y94500D02*X136387Y95300D01*
X135000Y94500D02*X133613Y95300D01*
X155500Y96500D02*Y94900D01*
Y96500D02*X156887Y97300D01*
X155500Y96500D02*X154113Y97300D01*
X160500Y96500D02*Y94900D01*
Y96500D02*X161887Y97300D01*
X160500Y96500D02*X159113Y97300D01*
X155500Y62500D02*Y60900D01*
Y62500D02*X156887Y63300D01*
X155500Y62500D02*X154113Y63300D01*
X155500Y72500D02*Y70900D01*
Y72500D02*X156887Y73300D01*
X155500Y72500D02*X154113Y73300D01*
X159500Y67500D02*Y65900D01*
Y67500D02*X160887Y68300D01*
X159500Y67500D02*X158113Y68300D01*
X152000Y83000D02*Y81400D01*
Y83000D02*X153387Y83800D01*
X152000Y83000D02*X150613Y83800D01*
X147000Y83000D02*Y81400D01*
Y83000D02*X148387Y83800D01*
X147000Y83000D02*X145613Y83800D01*
X155000Y32500D02*Y30900D01*
Y32500D02*X156387Y33300D01*
X155000Y32500D02*X153613Y33300D01*
X111000Y28500D02*Y26900D01*
Y28500D02*X112387Y29300D01*
X111000Y28500D02*X109613Y29300D01*
X115500Y28500D02*Y26900D01*
Y28500D02*X116887Y29300D01*
X115500Y28500D02*X114113Y29300D01*
X106500Y28500D02*Y26900D01*
Y28500D02*X107887Y29300D01*
X106500Y28500D02*X105113Y29300D01*
X155500Y57500D02*Y55900D01*
Y57500D02*X156887Y58300D01*
X155500Y57500D02*X154113Y58300D01*
X174000Y87000D02*Y85400D01*
Y87000D02*X175387Y87800D01*
X174000Y87000D02*X172613Y87800D01*
X174000Y76000D02*Y74400D01*
Y76000D02*X175387Y76800D01*
X174000Y76000D02*X172613Y76800D01*
X179500Y76000D02*Y74400D01*
Y76000D02*X180887Y76800D01*
X179500Y76000D02*X178113Y76800D01*
X179500Y81500D02*Y79900D01*
Y81500D02*X180887Y82300D01*
X179500Y81500D02*X178113Y82300D01*
X179500Y87000D02*Y85400D01*
Y87000D02*X180887Y87800D01*
X179500Y87000D02*X178113Y87800D01*
X163500Y73000D02*Y71400D01*
Y73000D02*X164887Y73800D01*
X163500Y73000D02*X162113Y73800D01*
X182000Y16000D02*Y14400D01*
Y16000D02*X183387Y16800D01*
X182000Y16000D02*X180613Y16800D01*
X81500Y15500D02*Y13900D01*
Y15500D02*X82887Y16300D01*
X81500Y15500D02*X80113Y16300D01*
X150500Y96500D02*Y94900D01*
Y96500D02*X151887Y97300D01*
X150500Y96500D02*X149113Y97300D01*
X119500Y77500D02*Y75900D01*
Y77500D02*X120887Y78300D01*
X119500Y77500D02*X118113Y78300D01*
X66000Y83500D02*Y81900D01*
Y83500D02*X67387Y84300D01*
X66000Y83500D02*X64613Y84300D01*
X69000Y86500D02*Y84900D01*
Y86500D02*X70387Y87300D01*
X69000Y86500D02*X67613Y87300D01*
X63000Y86500D02*Y84900D01*
Y86500D02*X64387Y87300D01*
X63000Y86500D02*X61613Y87300D01*
X19500Y15000D02*Y13400D01*
Y15000D02*X20887Y15800D01*
X19500Y15000D02*X18113Y15800D01*
X41500Y15000D02*Y13400D01*
Y15000D02*X42887Y15800D01*
X41500Y15000D02*X40113Y15800D01*
X17500Y94000D02*Y92400D01*
Y94000D02*X18887Y94800D01*
X17500Y94000D02*X16113Y94800D01*
X44000Y72500D02*Y70900D01*
Y72500D02*X45387Y73300D01*
X44000Y72500D02*X42613Y73300D01*
X48500Y72500D02*Y70900D01*
Y72500D02*X49887Y73300D01*
X48500Y72500D02*X47113Y73300D01*
X53000Y72500D02*Y70900D01*
Y72500D02*X54387Y73300D01*
X53000Y72500D02*X51613Y73300D01*
X57500Y72500D02*Y70900D01*
Y72500D02*X58887Y73300D01*
X57500Y72500D02*X56113Y73300D01*
X4000Y75500D02*Y73900D01*
Y75500D02*X5387Y76300D01*
X4000Y75500D02*X2613Y76300D01*
X4000Y80500D02*Y78900D01*
Y80500D02*X5387Y81300D01*
X4000Y80500D02*X2613Y81300D01*
X47000Y52000D02*Y50400D01*
Y52000D02*X48387Y52800D01*
X47000Y52000D02*X45613Y52800D01*
X37000Y39500D02*Y37900D01*
Y39500D02*X38387Y40300D01*
X37000Y39500D02*X35613Y40300D01*
X32500Y39500D02*Y37900D01*
Y39500D02*X33887Y40300D01*
X32500Y39500D02*X31113Y40300D01*
X36500Y60500D02*Y58900D01*
Y60500D02*X37887Y61300D01*
X36500Y60500D02*X35113Y61300D01*
X32500Y60500D02*Y58900D01*
Y60500D02*X33887Y61300D01*
X32500Y60500D02*X31113Y61300D01*
X176500Y65500D02*Y63900D01*
Y65500D02*X177887Y66300D01*
X176500Y65500D02*X175113Y66300D01*
X169000Y65500D02*Y63900D01*
Y65500D02*X170387Y66300D01*
X169000Y65500D02*X167613Y66300D01*
X15000Y156250D02*Y154650D01*
Y156250D02*X16387Y157050D01*
X15000Y156250D02*X13613Y157050D01*
X135000Y158500D02*X136500Y155500D01*
X138000Y158500D01*
X136500Y155500D02*Y152500D01*
X139800Y155800D02*X142050D01*
X139800Y152500D02*X142800D01*
X139800Y158500D02*Y152500D01*
Y158500D02*X142800D01*
X147600D02*X148350Y157750D01*
X145350Y158500D02*X147600D01*
X144600Y157750D02*X145350Y158500D01*
X144600Y157750D02*Y156250D01*
X145350Y155500D01*
X147600D01*
X148350Y154750D01*
Y153250D01*
X147600Y152500D02*X148350Y153250D01*
X145350Y152500D02*X147600D01*
X144600Y153250D02*X145350Y152500D01*
X98000Y158500D02*X101000D01*
X98000D02*Y155500D01*
X98750Y156250D01*
X100250D01*
X101000Y155500D01*
Y153250D01*
X100250Y152500D02*X101000Y153250D01*
X98750Y152500D02*X100250D01*
X98000Y153250D02*X98750Y152500D01*
X102800Y157750D02*X103550Y158500D01*
X105800D01*
X106550Y157750D01*
Y156250D01*
X102800Y152500D02*X106550Y156250D01*
X102800Y152500D02*X106550D01*
X45000Y153250D02*X45750Y152500D01*
X45000Y157750D02*Y153250D01*
Y157750D02*X45750Y158500D01*
X47250D01*
X48000Y157750D01*
Y153250D01*
X47250Y152500D02*X48000Y153250D01*
X45750Y152500D02*X47250D01*
X45000Y154000D02*X48000Y157000D01*
X49800Y152500D02*X50550D01*
X52350Y153250D02*X53100Y152500D01*
X52350Y157750D02*Y153250D01*
Y157750D02*X53100Y158500D01*
X54600D01*
X55350Y157750D01*
Y153250D01*
X54600Y152500D02*X55350Y153250D01*
X53100Y152500D02*X54600D01*
X52350Y154000D02*X55350Y157000D01*
X57150Y157750D02*X57900Y158500D01*
X60150D01*
X60900Y157750D01*
Y156250D01*
X57150Y152500D02*X60900Y156250D01*
X57150Y152500D02*X60900D01*
X62700Y153250D02*X63450Y152500D01*
X62700Y157750D02*Y153250D01*
Y157750D02*X63450Y158500D01*
X64950D01*
X65700Y157750D01*
Y153250D01*
X64950Y152500D02*X65700Y153250D01*
X63450Y152500D02*X64950D01*
X62700Y154000D02*X65700Y157000D01*
X3000Y173500D02*X3750Y172750D01*
X750Y173500D02*X3000D01*
X0Y172750D02*X750Y173500D01*
X0Y172750D02*Y171250D01*
X750Y170500D01*
X3000D01*
X3750Y169750D01*
Y168250D01*
X3000Y167500D02*X3750Y168250D01*
X750Y167500D02*X3000D01*
X0Y168250D02*X750Y167500D01*
X5550Y170500D02*Y168250D01*
X6300Y167500D01*
X8550Y170500D02*Y166000D01*
X7800Y165250D02*X8550Y166000D01*
X6300Y165250D02*X7800D01*
X5550Y166000D02*X6300Y165250D01*
Y167500D02*X7800D01*
X8550Y168250D01*
X11100Y169750D02*Y167500D01*
Y169750D02*X11850Y170500D01*
X12600D01*
X13350Y169750D01*
Y167500D01*
Y169750D02*X14100Y170500D01*
X14850D01*
X15600Y169750D01*
Y167500D01*
X10350Y170500D02*X11100Y169750D01*
X17400Y173500D02*Y167500D01*
Y168250D02*X18150Y167500D01*
X19650D01*
X20400Y168250D01*
Y169750D02*Y168250D01*
X19650Y170500D02*X20400Y169750D01*
X18150Y170500D02*X19650D01*
X17400Y169750D02*X18150Y170500D01*
X22200Y169750D02*Y168250D01*
Y169750D02*X22950Y170500D01*
X24450D01*
X25200Y169750D01*
Y168250D01*
X24450Y167500D02*X25200Y168250D01*
X22950Y167500D02*X24450D01*
X22200Y168250D02*X22950Y167500D01*
X27000Y173500D02*Y168250D01*
X27750Y167500D01*
X0Y164250D02*X29250D01*
X41750Y173500D02*Y167500D01*
X43700Y173500D02*X44750Y172450D01*
Y168550D01*
X43700Y167500D02*X44750Y168550D01*
X41000Y167500D02*X43700D01*
X41000Y173500D02*X43700D01*
G54D82*X46550Y172000D02*Y171850D01*
G54D81*Y169750D02*Y167500D01*
X50300Y170500D02*X51050Y169750D01*
X48800Y170500D02*X50300D01*
X48050Y169750D02*X48800Y170500D01*
X48050Y169750D02*Y168250D01*
X48800Y167500D01*
X51050Y170500D02*Y168250D01*
X51800Y167500D01*
X48800D02*X50300D01*
X51050Y168250D01*
X54350Y169750D02*Y167500D01*
Y169750D02*X55100Y170500D01*
X55850D01*
X56600Y169750D01*
Y167500D01*
Y169750D02*X57350Y170500D01*
X58100D01*
X58850Y169750D01*
Y167500D01*
X53600Y170500D02*X54350Y169750D01*
X60650Y167500D02*X61400D01*
X65900Y168250D02*X66650Y167500D01*
X65900Y172750D02*X66650Y173500D01*
X65900Y172750D02*Y168250D01*
X68450Y173500D02*X69950D01*
X69200D02*Y167500D01*
X68450D02*X69950D01*
X72500Y169750D02*Y167500D01*
Y169750D02*X73250Y170500D01*
X74000D01*
X74750Y169750D01*
Y167500D01*
X71750Y170500D02*X72500Y169750D01*
X77300Y170500D02*X79550D01*
X76550Y169750D02*X77300Y170500D01*
X76550Y169750D02*Y168250D01*
X77300Y167500D01*
X79550D01*
X81350Y173500D02*Y167500D01*
Y169750D02*X82100Y170500D01*
X83600D01*
X84350Y169750D01*
Y167500D01*
X86150Y173500D02*X86900Y172750D01*
Y168250D01*
X86150Y167500D02*X86900Y168250D01*
X41000Y164250D02*X88700D01*
X96050Y167500D02*X98000D01*
X95000Y168550D02*X96050Y167500D01*
X95000Y172450D02*Y168550D01*
Y172450D02*X96050Y173500D01*
X98000D01*
X99800Y169750D02*Y168250D01*
Y169750D02*X100550Y170500D01*
X102050D01*
X102800Y169750D01*
Y168250D01*
X102050Y167500D02*X102800Y168250D01*
X100550Y167500D02*X102050D01*
X99800Y168250D02*X100550Y167500D01*
X104600Y170500D02*Y168250D01*
X105350Y167500D01*
X106850D01*
X107600Y168250D01*
Y170500D02*Y168250D01*
X110150Y169750D02*Y167500D01*
Y169750D02*X110900Y170500D01*
X111650D01*
X112400Y169750D01*
Y167500D01*
X109400Y170500D02*X110150Y169750D01*
X114950Y173500D02*Y168250D01*
X115700Y167500D01*
X114200Y171250D02*X115700D01*
X95000Y164250D02*X117200D01*
X130750Y173500D02*Y167500D01*
X130000Y173500D02*X133000D01*
X133750Y172750D01*
Y171250D01*
X133000Y170500D02*X133750Y171250D01*
X130750Y170500D02*X133000D01*
X135550Y173500D02*Y168250D01*
X136300Y167500D01*
X140050Y170500D02*X140800Y169750D01*
X138550Y170500D02*X140050D01*
X137800Y169750D02*X138550Y170500D01*
X137800Y169750D02*Y168250D01*
X138550Y167500D01*
X140800Y170500D02*Y168250D01*
X141550Y167500D01*
X138550D02*X140050D01*
X140800Y168250D01*
X144100Y173500D02*Y168250D01*
X144850Y167500D01*
X143350Y171250D02*X144850D01*
X147100Y167500D02*X149350D01*
X146350Y168250D02*X147100Y167500D01*
X146350Y169750D02*Y168250D01*
Y169750D02*X147100Y170500D01*
X148600D01*
X149350Y169750D01*
X146350Y169000D02*X149350D01*
Y169750D02*Y169000D01*
X154150Y173500D02*Y167500D01*
X153400D02*X154150Y168250D01*
X151900Y167500D02*X153400D01*
X151150Y168250D02*X151900Y167500D01*
X151150Y169750D02*Y168250D01*
Y169750D02*X151900Y170500D01*
X153400D01*
X154150Y169750D01*
X157450Y170500D02*Y169750D01*
Y168250D02*Y167500D01*
X155950Y172750D02*Y172000D01*
Y172750D02*X156700Y173500D01*
X158200D01*
X158950Y172750D01*
Y172000D01*
X157450Y170500D02*X158950Y172000D01*
X130000Y164250D02*X160750D01*
X0Y188500D02*X3000D01*
X1500D02*Y182500D01*
X4800Y188500D02*Y182500D01*
Y184750D02*X5550Y185500D01*
X7050D01*
X7800Y184750D01*
Y182500D01*
X10350D02*X12600D01*
X9600Y183250D02*X10350Y182500D01*
X9600Y184750D02*Y183250D01*
Y184750D02*X10350Y185500D01*
X11850D01*
X12600Y184750D01*
X9600Y184000D02*X12600D01*
Y184750D02*Y184000D01*
X15150Y184750D02*Y182500D01*
Y184750D02*X15900Y185500D01*
X17400D01*
X14400D02*X15150Y184750D01*
X19950Y182500D02*X22200D01*
X19200Y183250D02*X19950Y182500D01*
X19200Y184750D02*Y183250D01*
Y184750D02*X19950Y185500D01*
X21450D01*
X22200Y184750D01*
X19200Y184000D02*X22200D01*
Y184750D02*Y184000D01*
X28950Y185500D02*X29700Y184750D01*
X27450Y185500D02*X28950D01*
X26700Y184750D02*X27450Y185500D01*
X26700Y184750D02*Y183250D01*
X27450Y182500D01*
X29700Y185500D02*Y183250D01*
X30450Y182500D01*
X27450D02*X28950D01*
X29700Y183250D01*
X33000Y184750D02*Y182500D01*
Y184750D02*X33750Y185500D01*
X35250D01*
X32250D02*X33000Y184750D01*
X37800Y182500D02*X40050D01*
X37050Y183250D02*X37800Y182500D01*
X37050Y184750D02*Y183250D01*
Y184750D02*X37800Y185500D01*
X39300D01*
X40050Y184750D01*
X37050Y184000D02*X40050D01*
Y184750D02*Y184000D01*
X44550Y187750D02*X45300Y188500D01*
X46800D01*
X47550Y187750D01*
X46800Y182500D02*X47550Y183250D01*
X45300Y182500D02*X46800D01*
X44550Y183250D02*X45300Y182500D01*
Y185800D02*X46800D01*
X47550Y187750D02*Y186550D01*
Y185050D02*Y183250D01*
Y185050D02*X46800Y185800D01*
X47550Y186550D02*X46800Y185800D01*
X55050Y188500D02*Y182500D01*
X54300D02*X55050Y183250D01*
X52800Y182500D02*X54300D01*
X52050Y183250D02*X52800Y182500D01*
X52050Y184750D02*Y183250D01*
Y184750D02*X52800Y185500D01*
X54300D01*
X55050Y184750D01*
G54D82*X56850Y187000D02*Y186850D01*
G54D81*Y184750D02*Y182500D01*
X59100Y187750D02*Y182500D01*
Y187750D02*X59850Y188500D01*
X60600D01*
X58350Y185500D02*X59850D01*
X62850Y187750D02*Y182500D01*
Y187750D02*X63600Y188500D01*
X64350D01*
X62100Y185500D02*X63600D01*
X66600Y182500D02*X68850D01*
X65850Y183250D02*X66600Y182500D01*
X65850Y184750D02*Y183250D01*
Y184750D02*X66600Y185500D01*
X68100D01*
X68850Y184750D01*
X65850Y184000D02*X68850D01*
Y184750D02*Y184000D01*
X71400Y184750D02*Y182500D01*
Y184750D02*X72150Y185500D01*
X73650D01*
X70650D02*X71400Y184750D01*
X76200Y182500D02*X78450D01*
X75450Y183250D02*X76200Y182500D01*
X75450Y184750D02*Y183250D01*
Y184750D02*X76200Y185500D01*
X77700D01*
X78450Y184750D01*
X75450Y184000D02*X78450D01*
Y184750D02*Y184000D01*
X81000Y184750D02*Y182500D01*
Y184750D02*X81750Y185500D01*
X82500D01*
X83250Y184750D01*
Y182500D01*
X80250Y185500D02*X81000Y184750D01*
X85800Y188500D02*Y183250D01*
X86550Y182500D01*
X85050Y186250D02*X86550D01*
X93750Y188500D02*Y182500D01*
X93000D02*X93750Y183250D01*
X91500Y182500D02*X93000D01*
X90750Y183250D02*X91500Y182500D01*
X90750Y184750D02*Y183250D01*
Y184750D02*X91500Y185500D01*
X93000D01*
X93750Y184750D01*
X96300D02*Y182500D01*
Y184750D02*X97050Y185500D01*
X98550D01*
X95550D02*X96300Y184750D01*
G54D82*X100350Y187000D02*Y186850D01*
G54D81*Y184750D02*Y182500D01*
X101850Y188500D02*Y183250D01*
X102600Y182500D01*
X104100Y188500D02*Y183250D01*
X104850Y182500D01*
X109800D02*X112050D01*
X112800Y183250D01*
X112050Y184000D02*X112800Y183250D01*
X109800Y184000D02*X112050D01*
X109050Y184750D02*X109800Y184000D01*
X109050Y184750D02*X109800Y185500D01*
X112050D01*
X112800Y184750D01*
X109050Y183250D02*X109800Y182500D01*
G54D82*X114600Y187000D02*Y186850D01*
G54D81*Y184750D02*Y182500D01*
X116100Y185500D02*X119100D01*
X116100Y182500D02*X119100Y185500D01*
X116100Y182500D02*X119100D01*
X121650D02*X123900D01*
X120900Y183250D02*X121650Y182500D01*
X120900Y184750D02*Y183250D01*
Y184750D02*X121650Y185500D01*
X123150D01*
X123900Y184750D01*
X120900Y184000D02*X123900D01*
Y184750D02*Y184000D01*
X126450Y182500D02*X128700D01*
X129450Y183250D01*
X128700Y184000D02*X129450Y183250D01*
X126450Y184000D02*X128700D01*
X125700Y184750D02*X126450Y184000D01*
X125700Y184750D02*X126450Y185500D01*
X128700D01*
X129450Y184750D01*
X125700Y183250D02*X126450Y182500D01*
X133950Y185500D02*Y183250D01*
X134700Y182500D01*
X136200D01*
X136950Y183250D01*
Y185500D02*Y183250D01*
X139500Y182500D02*X141750D01*
X142500Y183250D01*
X141750Y184000D02*X142500Y183250D01*
X139500Y184000D02*X141750D01*
X138750Y184750D02*X139500Y184000D01*
X138750Y184750D02*X139500Y185500D01*
X141750D01*
X142500Y184750D01*
X138750Y183250D02*X139500Y182500D01*
X145050D02*X147300D01*
X144300Y183250D02*X145050Y182500D01*
X144300Y184750D02*Y183250D01*
Y184750D02*X145050Y185500D01*
X146550D01*
X147300Y184750D01*
X144300Y184000D02*X147300D01*
Y184750D02*Y184000D01*
X152100Y188500D02*Y182500D01*
X151350D02*X152100Y183250D01*
X149850Y182500D02*X151350D01*
X149100Y183250D02*X149850Y182500D01*
X149100Y184750D02*Y183250D01*
Y184750D02*X149850Y185500D01*
X151350D01*
X152100Y184750D01*
G54D82*X156600Y187000D02*Y186850D01*
G54D81*Y184750D02*Y182500D01*
X158850Y184750D02*Y182500D01*
Y184750D02*X159600Y185500D01*
X160350D01*
X161100Y184750D01*
Y182500D01*
X158100Y185500D02*X158850Y184750D01*
X166350Y188500D02*Y183250D01*
X167100Y182500D01*
X165600Y186250D02*X167100D01*
X168600Y188500D02*Y182500D01*
Y184750D02*X169350Y185500D01*
X170850D01*
X171600Y184750D01*
Y182500D01*
G54D82*X173400Y187000D02*Y186850D01*
G54D81*Y184750D02*Y182500D01*
X175650D02*X177900D01*
X178650Y183250D01*
X177900Y184000D02*X178650Y183250D01*
X175650Y184000D02*X177900D01*
X174900Y184750D02*X175650Y184000D01*
X174900Y184750D02*X175650Y185500D01*
X177900D01*
X178650Y184750D01*
X174900Y183250D02*X175650Y182500D01*
X183150Y188500D02*Y183250D01*
X183900Y182500D01*
X187650Y185500D02*X188400Y184750D01*
X186150Y185500D02*X187650D01*
X185400Y184750D02*X186150Y185500D01*
X185400Y184750D02*Y183250D01*
X186150Y182500D01*
X188400Y185500D02*Y183250D01*
X189150Y182500D01*
X186150D02*X187650D01*
X188400Y183250D01*
X190950Y185500D02*Y183250D01*
X191700Y182500D01*
X193950Y185500D02*Y181000D01*
X193200Y180250D02*X193950Y181000D01*
X191700Y180250D02*X193200D01*
X190950Y181000D02*X191700Y180250D01*
Y182500D02*X193200D01*
X193950Y183250D01*
X195750Y184750D02*Y183250D01*
Y184750D02*X196500Y185500D01*
X198000D01*
X198750Y184750D01*
Y183250D01*
X198000Y182500D02*X198750Y183250D01*
X196500Y182500D02*X198000D01*
X195750Y183250D02*X196500Y182500D01*
X200550Y185500D02*Y183250D01*
X201300Y182500D01*
X202800D01*
X203550Y183250D01*
Y185500D02*Y183250D01*
X206100Y188500D02*Y183250D01*
X206850Y182500D01*
X205350Y186250D02*X206850D01*
X208350Y181000D02*X209850Y182500D01*
X214350Y188500D02*X217350D01*
X214350D02*Y185500D01*
X215100Y186250D01*
X216600D01*
X217350Y185500D01*
Y183250D01*
X216600Y182500D02*X217350Y183250D01*
X215100Y182500D02*X216600D01*
X214350Y183250D02*X215100Y182500D01*
X219900D02*X222900Y188500D01*
X219150D02*X222900D01*
X227400D02*Y182500D01*
Y184750D02*X228150Y185500D01*
X229650D01*
X230400Y184750D01*
Y182500D01*
X232200Y184750D02*Y183250D01*
Y184750D02*X232950Y185500D01*
X234450D01*
X235200Y184750D01*
Y183250D01*
X234450Y182500D02*X235200Y183250D01*
X232950Y182500D02*X234450D01*
X232200Y183250D02*X232950Y182500D01*
X237000Y188500D02*Y183250D01*
X237750Y182500D01*
X240000D02*X242250D01*
X239250Y183250D02*X240000Y182500D01*
X239250Y184750D02*Y183250D01*
Y184750D02*X240000Y185500D01*
X241500D01*
X242250Y184750D01*
X239250Y184000D02*X242250D01*
Y184750D02*Y184000D01*
X244800Y182500D02*X247050D01*
X247800Y183250D01*
X247050Y184000D02*X247800Y183250D01*
X244800Y184000D02*X247050D01*
X244050Y184750D02*X244800Y184000D01*
X244050Y184750D02*X244800Y185500D01*
X247050D01*
X247800Y184750D01*
X244050Y183250D02*X244800Y182500D01*
X253050Y188500D02*Y183250D01*
X253800Y182500D01*
X252300Y186250D02*X253800D01*
X255300Y184750D02*Y183250D01*
Y184750D02*X256050Y185500D01*
X257550D01*
X258300Y184750D01*
Y183250D01*
X257550Y182500D02*X258300Y183250D01*
X256050Y182500D02*X257550D01*
X255300Y183250D02*X256050Y182500D01*
X260850Y188500D02*Y183250D01*
X261600Y182500D01*
X260100Y186250D02*X261600D01*
X265350Y185500D02*X266100Y184750D01*
X263850Y185500D02*X265350D01*
X263100Y184750D02*X263850Y185500D01*
X263100Y184750D02*Y183250D01*
X263850Y182500D01*
X266100Y185500D02*Y183250D01*
X266850Y182500D01*
X263850D02*X265350D01*
X266100Y183250D01*
X268650Y188500D02*Y183250D01*
X269400Y182500D01*
G54D83*X0Y100000D02*X200000D01*
Y0D02*X0D01*
Y100000D01*
X200000Y0D02*Y100000D01*
G54D81*X13675Y-9500D02*X16675D01*
X17425Y-8750D01*
Y-6950D02*Y-8750D01*
X16675Y-6200D02*X17425Y-6950D01*
X14425Y-6200D02*X16675D01*
X14425Y-3500D02*Y-9500D01*
X13675Y-3500D02*X16675D01*
X17425Y-4250D01*
Y-5450D01*
X16675Y-6200D02*X17425Y-5450D01*
X19225Y-7250D02*Y-8750D01*
Y-7250D02*X19975Y-6500D01*
X21475D01*
X22225Y-7250D01*
Y-8750D01*
X21475Y-9500D02*X22225Y-8750D01*
X19975Y-9500D02*X21475D01*
X19225Y-8750D02*X19975Y-9500D01*
X26275Y-6500D02*X27025Y-7250D01*
X24775Y-6500D02*X26275D01*
X24025Y-7250D02*X24775Y-6500D01*
X24025Y-7250D02*Y-8750D01*
X24775Y-9500D01*
X27025Y-6500D02*Y-8750D01*
X27775Y-9500D01*
X24775D02*X26275D01*
X27025Y-8750D01*
X30325Y-7250D02*Y-9500D01*
Y-7250D02*X31075Y-6500D01*
X32575D01*
X29575D02*X30325Y-7250D01*
X37375Y-3500D02*Y-9500D01*
X36625D02*X37375Y-8750D01*
X35125Y-9500D02*X36625D01*
X34375Y-8750D02*X35125Y-9500D01*
X34375Y-7250D02*Y-8750D01*
Y-7250D02*X35125Y-6500D01*
X36625D01*
X37375Y-7250D01*
X41875D02*Y-8750D01*
Y-7250D02*X42625Y-6500D01*
X44125D01*
X44875Y-7250D01*
Y-8750D01*
X44125Y-9500D02*X44875Y-8750D01*
X42625Y-9500D02*X44125D01*
X41875Y-8750D02*X42625Y-9500D01*
X46675Y-6500D02*Y-8750D01*
X47425Y-9500D01*
X48925D01*
X49675Y-8750D01*
Y-6500D02*Y-8750D01*
X52225Y-3500D02*Y-8750D01*
X52975Y-9500D01*
X51475Y-5750D02*X52975D01*
X54475Y-3500D02*Y-8750D01*
X55225Y-9500D01*
G54D82*X56725Y-5000D02*Y-5150D01*
G54D81*Y-7250D02*Y-9500D01*
X58975Y-7250D02*Y-9500D01*
Y-7250D02*X59725Y-6500D01*
X60475D01*
X61225Y-7250D01*
Y-9500D01*
X58225Y-6500D02*X58975Y-7250D01*
X63775Y-9500D02*X66025D01*
X63025Y-8750D02*X63775Y-9500D01*
X63025Y-7250D02*Y-8750D01*
Y-7250D02*X63775Y-6500D01*
X65275D01*
X66025Y-7250D01*
X63025Y-8000D02*X66025D01*
Y-7250D02*Y-8000D01*
G54D82*X70525Y-5000D02*Y-5150D01*
G54D81*Y-7250D02*Y-9500D01*
X72775D02*X75025D01*
X75775Y-8750D01*
X75025Y-8000D02*X75775Y-8750D01*
X72775Y-8000D02*X75025D01*
X72025Y-7250D02*X72775Y-8000D01*
X72025Y-7250D02*X72775Y-6500D01*
X75025D01*
X75775Y-7250D01*
X72025Y-8750D02*X72775Y-9500D01*
X81025Y-3500D02*Y-8750D01*
X81775Y-9500D01*
X80275Y-5750D02*X81775D01*
X83275Y-3500D02*Y-9500D01*
Y-7250D02*X84025Y-6500D01*
X85525D01*
X86275Y-7250D01*
Y-9500D01*
X88825D02*X91075D01*
X88075Y-8750D02*X88825Y-9500D01*
X88075Y-7250D02*Y-8750D01*
Y-7250D02*X88825Y-6500D01*
X90325D01*
X91075Y-7250D01*
X88075Y-8000D02*X91075D01*
Y-7250D02*Y-8000D01*
X96325Y-6500D02*X98575D01*
X95575Y-7250D02*X96325Y-6500D01*
X95575Y-7250D02*Y-8750D01*
X96325Y-9500D01*
X98575D01*
X101125D02*X103375D01*
X100375Y-8750D02*X101125Y-9500D01*
X100375Y-7250D02*Y-8750D01*
Y-7250D02*X101125Y-6500D01*
X102625D01*
X103375Y-7250D01*
X100375Y-8000D02*X103375D01*
Y-7250D02*Y-8000D01*
X105925Y-7250D02*Y-9500D01*
Y-7250D02*X106675Y-6500D01*
X107425D01*
X108175Y-7250D01*
Y-9500D01*
X105175Y-6500D02*X105925Y-7250D01*
X110725Y-3500D02*Y-8750D01*
X111475Y-9500D01*
X109975Y-5750D02*X111475D01*
X113725Y-9500D02*X115975D01*
X112975Y-8750D02*X113725Y-9500D01*
X112975Y-7250D02*Y-8750D01*
Y-7250D02*X113725Y-6500D01*
X115225D01*
X115975Y-7250D01*
X112975Y-8000D02*X115975D01*
Y-7250D02*Y-8000D01*
X118525Y-7250D02*Y-9500D01*
Y-7250D02*X119275Y-6500D01*
X120775D01*
X117775D02*X118525Y-7250D01*
X122575Y-3500D02*Y-8750D01*
X123325Y-9500D01*
G54D82*X124825Y-5000D02*Y-5150D01*
G54D81*Y-7250D02*Y-9500D01*
X127075Y-7250D02*Y-9500D01*
Y-7250D02*X127825Y-6500D01*
X128575D01*
X129325Y-7250D01*
Y-9500D01*
X126325Y-6500D02*X127075Y-7250D01*
X131875Y-9500D02*X134125D01*
X131125Y-8750D02*X131875Y-9500D01*
X131125Y-7250D02*Y-8750D01*
Y-7250D02*X131875Y-6500D01*
X133375D01*
X134125Y-7250D01*
X131125Y-8000D02*X134125D01*
Y-7250D02*Y-8000D01*
X138625Y-7250D02*Y-8750D01*
Y-7250D02*X139375Y-6500D01*
X140875D01*
X141625Y-7250D01*
Y-8750D01*
X140875Y-9500D02*X141625Y-8750D01*
X139375Y-9500D02*X140875D01*
X138625Y-8750D02*X139375Y-9500D01*
X144175Y-4250D02*Y-9500D01*
Y-4250D02*X144925Y-3500D01*
X145675D01*
X143425Y-6500D02*X144925D01*
X150625Y-3500D02*Y-8750D01*
X151375Y-9500D01*
X149875Y-5750D02*X151375D01*
X152875Y-3500D02*Y-9500D01*
Y-7250D02*X153625Y-6500D01*
X155125D01*
X155875Y-7250D01*
Y-9500D01*
G54D82*X157675Y-5000D02*Y-5150D01*
G54D81*Y-7250D02*Y-9500D01*
X159925D02*X162175D01*
X162925Y-8750D01*
X162175Y-8000D02*X162925Y-8750D01*
X159925Y-8000D02*X162175D01*
X159175Y-7250D02*X159925Y-8000D01*
X159175Y-7250D02*X159925Y-6500D01*
X162175D01*
X162925Y-7250D01*
X159175Y-8750D02*X159925Y-9500D01*
X168175Y-7250D02*Y-11750D01*
X167425Y-6500D02*X168175Y-7250D01*
X168925Y-6500D01*
X170425D01*
X171175Y-7250D01*
Y-8750D01*
X170425Y-9500D02*X171175Y-8750D01*
X168925Y-9500D02*X170425D01*
X168175Y-8750D02*X168925Y-9500D01*
X175225Y-6500D02*X175975Y-7250D01*
X173725Y-6500D02*X175225D01*
X172975Y-7250D02*X173725Y-6500D01*
X172975Y-7250D02*Y-8750D01*
X173725Y-9500D01*
X175975Y-6500D02*Y-8750D01*
X176725Y-9500D01*
X173725D02*X175225D01*
X175975Y-8750D01*
X179275Y-3500D02*Y-8750D01*
X180025Y-9500D01*
X178525Y-5750D02*X180025D01*
X181525Y-3500D02*Y-9500D01*
Y-7250D02*X182275Y-6500D01*
X183775D01*
X184525Y-7250D01*
Y-9500D01*
X200750Y128500D02*Y122500D01*
X202700Y128500D02*X203750Y127450D01*
Y123550D01*
X202700Y122500D02*X203750Y123550D01*
X200000Y122500D02*X202700D01*
X200000Y128500D02*X202700D01*
X207800Y125500D02*X208550Y124750D01*
X206300Y125500D02*X207800D01*
X205550Y124750D02*X206300Y125500D01*
X205550Y124750D02*Y123250D01*
X206300Y122500D01*
X208550Y125500D02*Y123250D01*
X209300Y122500D01*
X206300D02*X207800D01*
X208550Y123250D01*
X211850Y128500D02*Y123250D01*
X212600Y122500D01*
X211100Y126250D02*X212600D01*
X214850Y122500D02*X217100D01*
X214100Y123250D02*X214850Y122500D01*
X214100Y124750D02*Y123250D01*
Y124750D02*X214850Y125500D01*
X216350D01*
X217100Y124750D01*
X214100Y124000D02*X217100D01*
Y124750D02*Y124000D01*
X218900Y126250D02*X219650D01*
X218900Y124750D02*X219650D01*
X224150Y128500D02*Y125500D01*
X224900Y122500D01*
X226400Y125500D01*
X227900Y122500D01*
X228650Y125500D01*
Y128500D02*Y125500D01*
X231200Y122500D02*X233450D01*
X230450Y123250D02*X231200Y122500D01*
X230450Y124750D02*Y123250D01*
Y124750D02*X231200Y125500D01*
X232700D01*
X233450Y124750D01*
X230450Y124000D02*X233450D01*
Y124750D02*Y124000D01*
X238250Y128500D02*Y122500D01*
X237500D02*X238250Y123250D01*
X236000Y122500D02*X237500D01*
X235250Y123250D02*X236000Y122500D01*
X235250Y124750D02*Y123250D01*
Y124750D02*X236000Y125500D01*
X237500D01*
X238250Y124750D01*
X242750Y127300D02*X243950Y128500D01*
Y122500D01*
X242750D02*X245000D01*
X246800Y128500D02*X249800D01*
X246800D02*Y125500D01*
X247550Y126250D01*
X249050D01*
X249800Y125500D01*
Y123250D01*
X249050Y122500D02*X249800Y123250D01*
X247550Y122500D02*X249050D01*
X246800Y123250D02*X247550Y122500D01*
X254300Y127000D02*Y122500D01*
Y127000D02*X255350Y128500D01*
X257000D01*
X258050Y127000D01*
Y122500D01*
X254300Y125500D02*X258050D01*
X260600Y124750D02*Y120250D01*
X259850Y125500D02*X260600Y124750D01*
X261350Y125500D01*
X262850D01*
X263600Y124750D01*
Y123250D01*
X262850Y122500D02*X263600Y123250D01*
X261350Y122500D02*X262850D01*
X260600Y123250D02*X261350Y122500D01*
X266150Y124750D02*Y122500D01*
Y124750D02*X266900Y125500D01*
X268400D01*
X265400D02*X266150Y124750D01*
X272900Y127750D02*X273650Y128500D01*
X275900D01*
X276650Y127750D01*
Y126250D01*
X272900Y122500D02*X276650Y126250D01*
X272900Y122500D02*X276650D01*
X278450Y123250D02*X279200Y122500D01*
X278450Y127750D02*Y123250D01*
Y127750D02*X279200Y128500D01*
X280700D01*
X281450Y127750D01*
Y123250D01*
X280700Y122500D02*X281450Y123250D01*
X279200Y122500D02*X280700D01*
X278450Y124000D02*X281450Y127000D01*
X283250Y127750D02*X284000Y128500D01*
X286250D01*
X287000Y127750D01*
Y126250D01*
X283250Y122500D02*X287000Y126250D01*
X283250Y122500D02*X287000D01*
X288800Y123250D02*X289550Y122500D01*
X288800Y127750D02*Y123250D01*
Y127750D02*X289550Y128500D01*
X291050D01*
X291800Y127750D01*
Y123250D01*
X291050Y122500D02*X291800Y123250D01*
X289550Y122500D02*X291050D01*
X288800Y124000D02*X291800Y127000D01*
X296300Y123250D02*X297050Y122500D01*
X296300Y127750D02*Y123250D01*
Y127750D02*X297050Y128500D01*
X298550D01*
X299300Y127750D01*
Y123250D01*
X298550Y122500D02*X299300Y123250D01*
X297050Y122500D02*X298550D01*
X296300Y124000D02*X299300Y127000D01*
X301100Y127750D02*X301850Y128500D01*
X303350D01*
X304100Y127750D01*
X303350Y122500D02*X304100Y123250D01*
X301850Y122500D02*X303350D01*
X301100Y123250D02*X301850Y122500D01*
Y125800D02*X303350D01*
X304100Y127750D02*Y126550D01*
Y125050D02*Y123250D01*
Y125050D02*X303350Y125800D01*
X304100Y126550D02*X303350Y125800D01*
X305900Y126250D02*X306650D01*
X305900Y124750D02*X306650D01*
X308450Y127300D02*X309650Y128500D01*
Y122500D01*
X308450D02*X310700D01*
X312500Y127750D02*X313250Y128500D01*
X314750D01*
X315500Y127750D01*
X314750Y122500D02*X315500Y123250D01*
X313250Y122500D02*X314750D01*
X312500Y123250D02*X313250Y122500D01*
Y125800D02*X314750D01*
X315500Y127750D02*Y126550D01*
Y125050D02*Y123250D01*
Y125050D02*X314750Y125800D01*
X315500Y126550D02*X314750Y125800D01*
X317300Y126250D02*X318050D01*
X317300Y124750D02*X318050D01*
X319850Y127750D02*X320600Y128500D01*
X322850D01*
X323600Y127750D01*
Y126250D01*
X319850Y122500D02*X323600Y126250D01*
X319850Y122500D02*X323600D01*
X326150D02*X329150Y128500D01*
X325400D02*X329150D01*
X334400D02*Y122500D01*
X333650Y128500D02*X336650D01*
X337400Y127750D01*
Y126250D01*
X336650Y125500D02*X337400Y126250D01*
X334400Y125500D02*X336650D01*
X339200Y128500D02*Y122500D01*
Y128500D02*X341450Y125500D01*
X343700Y128500D01*
Y122500D01*
X351200Y128500D02*X351950Y127750D01*
X348950Y128500D02*X351200D01*
X348200Y127750D02*X348950Y128500D01*
X348200Y127750D02*Y123250D01*
X348950Y122500D01*
X351200D01*
X351950Y123250D01*
Y124750D02*Y123250D01*
X351200Y125500D02*X351950Y124750D01*
X349700Y125500D02*X351200D01*
X353750Y128500D02*Y122500D01*
Y128500D02*X356000Y125500D01*
X358250Y128500D01*
Y122500D01*
X360050Y128500D02*X363050D01*
X361550D02*Y122500D01*
X367550Y128500D02*Y123250D01*
X368300Y122500D01*
X369800D01*
X370550Y123250D01*
Y128500D02*Y123250D01*
X372350Y128500D02*X375350D01*
X373850D02*Y122500D01*
X378200D02*X380150D01*
X377150Y123550D02*X378200Y122500D01*
X377150Y127450D02*Y123550D01*
Y127450D02*X378200Y128500D01*
X380150D01*
X200000Y142000D02*Y137500D01*
Y142000D02*X201050Y143500D01*
X202700D01*
X203750Y142000D01*
Y137500D01*
X200000Y140500D02*X203750D01*
X205550D02*Y138250D01*
X206300Y137500D01*
X207800D01*
X208550Y138250D01*
Y140500D02*Y138250D01*
X211100Y143500D02*Y138250D01*
X211850Y137500D01*
X210350Y141250D02*X211850D01*
X213350Y143500D02*Y137500D01*
Y139750D02*X214100Y140500D01*
X215600D01*
X216350Y139750D01*
Y137500D01*
X218150Y139750D02*Y138250D01*
Y139750D02*X218900Y140500D01*
X220400D01*
X221150Y139750D01*
Y138250D01*
X220400Y137500D02*X221150Y138250D01*
X218900Y137500D02*X220400D01*
X218150Y138250D02*X218900Y137500D01*
X223700Y139750D02*Y137500D01*
Y139750D02*X224450Y140500D01*
X225950D01*
X222950D02*X223700Y139750D01*
X227750Y141250D02*X228500D01*
X227750Y139750D02*X228500D01*
X233000Y143500D02*Y137500D01*
Y143500D02*X235250Y140500D01*
X237500Y143500D01*
Y137500D01*
G54D82*X239300Y142000D02*Y141850D01*
G54D81*Y139750D02*Y137500D01*
X241550Y140500D02*X243800D01*
X240800Y139750D02*X241550Y140500D01*
X240800Y139750D02*Y138250D01*
X241550Y137500D01*
X243800D01*
X245600Y143500D02*Y137500D01*
Y139750D02*X246350Y140500D01*
X247850D01*
X248600Y139750D01*
Y137500D01*
X252650Y140500D02*X253400Y139750D01*
X251150Y140500D02*X252650D01*
X250400Y139750D02*X251150Y140500D01*
X250400Y139750D02*Y138250D01*
X251150Y137500D01*
X253400Y140500D02*Y138250D01*
X254150Y137500D01*
X251150D02*X252650D01*
X253400Y138250D01*
X256700Y137500D02*X258950D01*
X255950Y138250D02*X256700Y137500D01*
X255950Y139750D02*Y138250D01*
Y139750D02*X256700Y140500D01*
X258200D01*
X258950Y139750D01*
X255950Y139000D02*X258950D01*
Y139750D02*Y139000D01*
X260750Y143500D02*Y138250D01*
X261500Y137500D01*
X266450Y143500D02*Y137500D01*
X265700Y143500D02*X268700D01*
X269450Y142750D01*
Y141250D01*
X268700Y140500D02*X269450Y141250D01*
X266450Y140500D02*X268700D01*
X272000Y137500D02*X274250D01*
X271250Y138250D02*X272000Y137500D01*
X271250Y139750D02*Y138250D01*
Y139750D02*X272000Y140500D01*
X273500D01*
X274250Y139750D01*
X271250Y139000D02*X274250D01*
Y139750D02*Y139000D01*
X276800Y143500D02*Y138250D01*
X277550Y137500D01*
X276050Y141250D02*X277550D01*
X279800Y137500D02*X282050D01*
X279050Y138250D02*X279800Y137500D01*
X279050Y139750D02*Y138250D01*
Y139750D02*X279800Y140500D01*
X281300D01*
X282050Y139750D01*
X279050Y139000D02*X282050D01*
Y139750D02*Y139000D01*
X284600Y139750D02*Y137500D01*
Y139750D02*X285350Y140500D01*
X286850D01*
X283850D02*X284600Y139750D01*
X289400Y137500D02*X291650D01*
X292400Y138250D01*
X291650Y139000D02*X292400Y138250D01*
X289400Y139000D02*X291650D01*
X288650Y139750D02*X289400Y139000D01*
X288650Y139750D02*X289400Y140500D01*
X291650D01*
X292400Y139750D01*
X288650Y138250D02*X289400Y137500D01*
X294950D02*X297200D01*
X294200Y138250D02*X294950Y137500D01*
X294200Y139750D02*Y138250D01*
Y139750D02*X294950Y140500D01*
X296450D01*
X297200Y139750D01*
X294200Y139000D02*X297200D01*
Y139750D02*Y139000D01*
X299750Y139750D02*Y137500D01*
Y139750D02*X300500Y140500D01*
X301250D01*
X302000Y139750D01*
Y137500D01*
X299000Y140500D02*X299750Y139750D01*
X200000Y158500D02*X203000D01*
X201500D02*Y152500D01*
G54D82*X204800Y157000D02*Y156850D01*
G54D81*Y154750D02*Y152500D01*
X207050Y158500D02*Y153250D01*
X207800Y152500D01*
X206300Y156250D02*X207800D01*
X209300Y158500D02*Y153250D01*
X210050Y152500D01*
X212300D02*X214550D01*
X211550Y153250D02*X212300Y152500D01*
X211550Y154750D02*Y153250D01*
Y154750D02*X212300Y155500D01*
X213800D01*
X214550Y154750D01*
X211550Y154000D02*X214550D01*
Y154750D02*Y154000D01*
X216350Y156250D02*X217100D01*
X216350Y154750D02*X217100D01*
X221600Y153250D02*X222350Y152500D01*
X221600Y157750D02*X222350Y158500D01*
X221600Y157750D02*Y153250D01*
X224150Y155500D02*Y153250D01*
X224900Y152500D01*
X226400D01*
X227150Y153250D01*
Y155500D02*Y153250D01*
X229700Y154750D02*Y152500D01*
Y154750D02*X230450Y155500D01*
X231200D01*
X231950Y154750D01*
Y152500D01*
X228950Y155500D02*X229700Y154750D01*
X233750Y158500D02*Y152500D01*
Y154750D02*X236000Y152500D01*
X233750Y154750D02*X235250Y156250D01*
X238550Y154750D02*Y152500D01*
Y154750D02*X239300Y155500D01*
X240050D01*
X240800Y154750D01*
Y152500D01*
X237800Y155500D02*X238550Y154750D01*
X242600D02*Y153250D01*
Y154750D02*X243350Y155500D01*
X244850D01*
X245600Y154750D01*
Y153250D01*
X244850Y152500D02*X245600Y153250D01*
X243350Y152500D02*X244850D01*
X242600Y153250D02*X243350Y152500D01*
X247400Y155500D02*Y153250D01*
X248150Y152500D01*
X248900D01*
X249650Y153250D01*
Y155500D02*Y153250D01*
X250400Y152500D01*
X251150D01*
X251900Y153250D01*
Y155500D02*Y153250D01*
X254450Y154750D02*Y152500D01*
Y154750D02*X255200Y155500D01*
X255950D01*
X256700Y154750D01*
Y152500D01*
X253700Y155500D02*X254450Y154750D01*
X258500Y158500D02*X259250Y157750D01*
Y153250D01*
X258500Y152500D02*X259250Y153250D01*
X263750Y155500D02*X266750D01*
X271250Y158500D02*Y152500D01*
Y158500D02*X274250D01*
X271250Y155800D02*X273500D01*
X278300Y155500D02*X279050Y154750D01*
X276800Y155500D02*X278300D01*
X276050Y154750D02*X276800Y155500D01*
X276050Y154750D02*Y153250D01*
X276800Y152500D01*
X279050Y155500D02*Y153250D01*
X279800Y152500D01*
X276800D02*X278300D01*
X279050Y153250D01*
X281600Y158500D02*Y152500D01*
Y153250D02*X282350Y152500D01*
X283850D01*
X284600Y153250D01*
Y154750D02*Y153250D01*
X283850Y155500D02*X284600Y154750D01*
X282350Y155500D02*X283850D01*
X281600Y154750D02*X282350Y155500D01*
X287150Y154750D02*Y152500D01*
Y154750D02*X287900Y155500D01*
X289400D01*
X286400D02*X287150Y154750D01*
G54D82*X291200Y157000D02*Y156850D01*
G54D81*Y154750D02*Y152500D01*
X293450Y155500D02*X295700D01*
X292700Y154750D02*X293450Y155500D01*
X292700Y154750D02*Y153250D01*
X293450Y152500D01*
X295700D01*
X299750Y155500D02*X300500Y154750D01*
X298250Y155500D02*X299750D01*
X297500Y154750D02*X298250Y155500D01*
X297500Y154750D02*Y153250D01*
X298250Y152500D01*
X300500Y155500D02*Y153250D01*
X301250Y152500D01*
X298250D02*X299750D01*
X300500Y153250D01*
X303800Y158500D02*Y153250D01*
X304550Y152500D01*
X303050Y156250D02*X304550D01*
G54D82*X306050Y157000D02*Y156850D01*
G54D81*Y154750D02*Y152500D01*
X307550Y154750D02*Y153250D01*
Y154750D02*X308300Y155500D01*
X309800D01*
X310550Y154750D01*
Y153250D01*
X309800Y152500D02*X310550Y153250D01*
X308300Y152500D02*X309800D01*
X307550Y153250D02*X308300Y152500D01*
X313100Y154750D02*Y152500D01*
Y154750D02*X313850Y155500D01*
X314600D01*
X315350Y154750D01*
Y152500D01*
X312350Y155500D02*X313100Y154750D01*
X320600Y158500D02*Y152500D01*
X322550Y158500D02*X323600Y157450D01*
Y153550D01*
X322550Y152500D02*X323600Y153550D01*
X319850Y152500D02*X322550D01*
X319850Y158500D02*X322550D01*
X326150Y154750D02*Y152500D01*
Y154750D02*X326900Y155500D01*
X328400D01*
X325400D02*X326150Y154750D01*
X332450Y155500D02*X333200Y154750D01*
X330950Y155500D02*X332450D01*
X330200Y154750D02*X330950Y155500D01*
X330200Y154750D02*Y153250D01*
X330950Y152500D01*
X333200Y155500D02*Y153250D01*
X333950Y152500D01*
X330950D02*X332450D01*
X333200Y153250D01*
X335750Y155500D02*Y153250D01*
X336500Y152500D01*
X337250D01*
X338000Y153250D01*
Y155500D02*Y153250D01*
X338750Y152500D01*
X339500D01*
X340250Y153250D01*
Y155500D02*Y153250D01*
G54D82*X342050Y157000D02*Y156850D01*
G54D81*Y154750D02*Y152500D01*
X344300Y154750D02*Y152500D01*
Y154750D02*X345050Y155500D01*
X345800D01*
X346550Y154750D01*
Y152500D01*
X343550Y155500D02*X344300Y154750D01*
X350600Y155500D02*X351350Y154750D01*
X349100Y155500D02*X350600D01*
X348350Y154750D02*X349100Y155500D01*
X348350Y154750D02*Y153250D01*
X349100Y152500D01*
X350600D01*
X351350Y153250D01*
X348350Y151000D02*X349100Y150250D01*
X350600D01*
X351350Y151000D01*
Y155500D02*Y151000D01*
M02*
