G04 start of page 10 for group -4078 idx -4078 *
G04 Title: (unknown), bottomsilk *
G04 Creator: pcb 20140316 *
G04 CreationDate: Wed 15 Apr 2020 03:13:27 PM GMT UTC *
G04 For: railfan *
G04 Format: Gerber/RS-274X *
G04 PCB-Dimensions (mil): 2000.00 1000.00 *
G04 PCB-Coordinate-Origin: lower left *
%MOIN*%
%FSLAX25Y25*%
%LNBOTTOMSILK*%
%ADD67C,0.0100*%
G54D67*X95000Y43500D02*X96000D01*
X95500D02*Y47500D01*
X95000D02*X96000D01*
X97200Y46000D02*Y47000D01*
Y46000D02*X97700Y45500D01*
X98700D01*
X99200Y46000D01*
Y47000D01*
X98700Y47500D02*X99200Y47000D01*
X97700Y47500D02*X98700D01*
X97200Y47000D02*X97700Y47500D01*
X100400Y45500D02*Y47000D01*
X100900Y47500D01*
X101400D01*
X101900Y47000D01*
Y45500D02*Y47000D01*
X102400Y47500D01*
X102900D01*
X103400Y47000D01*
Y45500D02*Y47000D01*
X106100Y45500D02*X106600Y46000D01*
X105100Y45500D02*X106100D01*
X104600Y46000D02*X105100Y45500D01*
X104600Y46000D02*Y47000D01*
X105100Y47500D01*
X106600Y45500D02*Y47000D01*
X107100Y47500D01*
X105100D02*X106100D01*
X106600Y47000D01*
X112100Y43500D02*X112600Y44000D01*
X110600Y43500D02*X112100D01*
X110100Y44000D02*X110600Y43500D01*
X110100Y44000D02*Y45000D01*
X110600Y45500D01*
X112100D01*
X112600Y46000D01*
Y47000D01*
X112100Y47500D02*X112600Y47000D01*
X110600Y47500D02*X112100D01*
X110100Y47000D02*X110600Y47500D01*
X114300Y45500D02*X115800D01*
X113800Y46000D02*X114300Y45500D01*
X113800Y46000D02*Y47000D01*
X114300Y47500D01*
X115800D01*
X118500Y45500D02*X119000Y46000D01*
X117500Y45500D02*X118500D01*
X117000Y46000D02*X117500Y45500D01*
X117000Y46000D02*Y47000D01*
X117500Y47500D01*
X119000Y45500D02*Y47000D01*
X119500Y47500D01*
X117500D02*X118500D01*
X119000Y47000D01*
X120700Y43500D02*Y47000D01*
X121200Y47500D01*
X122700D02*X124200D01*
X122200Y47000D02*X122700Y47500D01*
X122200Y46000D02*Y47000D01*
Y46000D02*X122700Y45500D01*
X123700D01*
X124200Y46000D01*
X122200Y46500D02*X124200D01*
Y46000D02*Y46500D01*
X127400Y43500D02*Y47500D01*
X126900D02*X127400Y47000D01*
X125900Y47500D02*X126900D01*
X125400Y47000D02*X125900Y47500D01*
X125400Y46000D02*Y47000D01*
Y46000D02*X125900Y45500D01*
X126900D01*
X127400Y46000D01*
X130400Y45300D02*X131900D01*
X130400Y47500D02*X132400D01*
X130400Y43500D02*Y47500D01*
Y43500D02*X132400D01*
X134100Y46000D02*Y47500D01*
Y46000D02*X134600Y45500D01*
X135100D01*
X135600Y46000D01*
Y47500D01*
X133600Y45500D02*X134100Y46000D01*
X138300Y45500D02*X138800Y46000D01*
X137300Y45500D02*X138300D01*
X136800Y46000D02*X137300Y45500D01*
X136800Y46000D02*Y47000D01*
X137300Y47500D01*
X138300D01*
X138800Y47000D01*
X136800Y48500D02*X137300Y49000D01*
X138300D01*
X138800Y48500D01*
Y45500D02*Y48500D01*
X140000Y44500D02*Y44600D01*
Y46000D02*Y47500D01*
X141500Y46000D02*Y47500D01*
Y46000D02*X142000Y45500D01*
X142500D01*
X143000Y46000D01*
Y47500D01*
X141000Y45500D02*X141500Y46000D01*
X144700Y47500D02*X146200D01*
X144200Y47000D02*X144700Y47500D01*
X144200Y46000D02*Y47000D01*
Y46000D02*X144700Y45500D01*
X145700D01*
X146200Y46000D01*
X144200Y46500D02*X146200D01*
Y46000D02*Y46500D01*
X147900Y47500D02*X149400D01*
X147400Y47000D02*X147900Y47500D01*
X147400Y46000D02*Y47000D01*
Y46000D02*X147900Y45500D01*
X148900D01*
X149400Y46000D01*
X147400Y46500D02*X149400D01*
Y46000D02*Y46500D01*
X151100Y46000D02*Y47500D01*
Y46000D02*X151600Y45500D01*
X152600D01*
X150600D02*X151100Y46000D01*
X153800Y44500D02*Y44600D01*
Y46000D02*Y47500D01*
X155300Y46000D02*Y47500D01*
Y46000D02*X155800Y45500D01*
X156300D01*
X156800Y46000D01*
Y47500D01*
X154800Y45500D02*X155300Y46000D01*
X159500Y45500D02*X160000Y46000D01*
X158500Y45500D02*X159500D01*
X158000Y46000D02*X158500Y45500D01*
X158000Y46000D02*Y47000D01*
X158500Y47500D01*
X159500D01*
X160000Y47000D01*
X158000Y48500D02*X158500Y49000D01*
X159500D01*
X160000Y48500D01*
Y45500D02*Y48500D01*
X95700Y10500D02*X97000D01*
X95000Y9800D02*X95700Y10500D01*
X95000Y7200D02*Y9800D01*
Y7200D02*X95700Y6500D01*
X97000D01*
X98200D02*Y10500D01*
Y8500D02*X100200Y6500D01*
X98200Y8500D02*X100200Y10500D01*
X101400Y6500D02*X103400D01*
X102400D02*Y10500D01*
X104600Y8500D02*X106600D01*
X107800Y7500D02*Y10500D01*
Y7500D02*X108500Y6500D01*
X109600D01*
X110300Y7500D01*
Y10500D01*
X107800Y8500D02*X110300D01*
X111500Y6500D02*X112500Y10500D01*
X113500Y6500D01*
X114700D02*X116700D01*
X117200Y7000D01*
Y8000D01*
X116700Y8500D02*X117200Y8000D01*
X115200Y8500D02*X116700D01*
X115200Y6500D02*Y10500D01*
X116000Y8500D02*X117200Y10500D01*
X118900Y6500D02*Y10500D01*
X118400Y6500D02*X120400D01*
X120900Y7000D01*
Y8000D01*
X120400Y8500D02*X120900Y8000D01*
X118900Y8500D02*X120400D01*
X122100Y6500D02*X124100D01*
X124600Y7000D01*
Y8000D01*
X124100Y8500D02*X124600Y8000D01*
X122600Y8500D02*X124100D01*
X122600Y6500D02*Y10500D01*
X123400Y8500D02*X124600Y10500D01*
X125800Y7000D02*Y10000D01*
Y7000D02*X126300Y6500D01*
X127300D01*
X127800Y7000D01*
Y10000D01*
X127300Y10500D02*X127800Y10000D01*
X126300Y10500D02*X127300D01*
X125800Y10000D02*X126300Y10500D01*
X131000Y6500D02*X131500Y7000D01*
X129500Y6500D02*X131000D01*
X129000Y7000D02*X129500Y6500D01*
X129000Y7000D02*Y10000D01*
X129500Y10500D01*
X131000D01*
X131500Y10000D01*
Y9000D02*Y10000D01*
X131000Y8500D02*X131500Y9000D01*
X130000Y8500D02*X131000D01*
X132700Y6500D02*X134700D01*
X135200Y7000D01*
Y8000D01*
X134700Y8500D02*X135200Y8000D01*
X133200Y8500D02*X134700D01*
X133200Y6500D02*Y10500D01*
X134000Y8500D02*X135200Y10500D01*
X136400Y7500D02*Y10500D01*
Y7500D02*X137100Y6500D01*
X138200D01*
X138900Y7500D01*
Y10500D01*
X136400Y8500D02*X138900D01*
X140100Y6500D02*Y10500D01*
Y6500D02*X141600Y8500D01*
X143100Y6500D01*
Y10500D01*
X144300Y6500D02*Y10500D01*
Y6500D02*X145800Y8500D01*
X147300Y6500D01*
Y10500D01*
X148500Y8300D02*X150000D01*
X148500Y10500D02*X150500D01*
X148500Y6500D02*Y10500D01*
Y6500D02*X150500D01*
X151700D02*X153700D01*
X154200Y7000D01*
Y8000D01*
X153700Y8500D02*X154200Y8000D01*
X152200Y8500D02*X153700D01*
X152200Y6500D02*Y10500D01*
X153000Y8500D02*X154200Y10500D01*
X158500Y8500D02*X159500Y10500D01*
X160500Y8500D02*X159500Y10500D01*
X161700Y7300D02*X162500Y6500D01*
Y10500D01*
X161700D02*X163200D01*
X164400D02*X164900D01*
X166100Y7000D02*X166600Y6500D01*
X168100D01*
X168600Y7000D01*
Y8000D01*
X166100Y10500D02*X168600Y8000D01*
X166100Y10500D02*X168600D01*
X95000Y18000D02*X95500Y18500D01*
X95000Y15000D02*X95500Y14500D01*
X95000Y15000D02*Y18000D01*
X97400Y18500D02*X98700D01*
X96700Y17800D02*X97400Y18500D01*
X96700Y15200D02*Y17800D01*
Y15200D02*X97400Y14500D01*
X98700D01*
X99900D02*X100400Y15000D01*
Y18000D01*
X99900Y18500D02*X100400Y18000D01*
X103400Y15000D02*X103900Y14500D01*
X105400D01*
X105900Y15000D01*
Y16000D01*
X103400Y18500D02*X105900Y16000D01*
X103400Y18500D02*X105900D01*
X107100Y18000D02*X107600Y18500D01*
X107100Y15000D02*Y18000D01*
Y15000D02*X107600Y14500D01*
X108600D01*
X109100Y15000D01*
Y18000D01*
X108600Y18500D02*X109100Y18000D01*
X107600Y18500D02*X108600D01*
X107100Y17500D02*X109100Y15500D01*
X110300Y15000D02*X110800Y14500D01*
X112300D01*
X112800Y15000D01*
Y16000D01*
X110300Y18500D02*X112800Y16000D01*
X110300Y18500D02*X112800D01*
X114000Y18000D02*X114500Y18500D01*
X114000Y15000D02*Y18000D01*
Y15000D02*X114500Y14500D01*
X115500D01*
X116000Y15000D01*
Y18000D01*
X115500Y18500D02*X116000Y18000D01*
X114500Y18500D02*X115500D01*
X114000Y17500D02*X116000Y15500D01*
X123300Y18500D02*X124600D01*
X122600Y17800D02*X123300Y18500D01*
X122600Y15200D02*Y17800D01*
Y15200D02*X123300Y14500D01*
X124600D01*
X126500Y18500D02*X127800D01*
X125800Y17800D02*X126500Y18500D01*
X125800Y15200D02*Y17800D01*
Y15200D02*X126500Y14500D01*
X127800D01*
X130800Y18500D02*X132800D01*
X133300Y18000D01*
Y16800D02*Y18000D01*
X132800Y16300D02*X133300Y16800D01*
X131300Y16300D02*X132800D01*
X131300Y14500D02*Y18500D01*
X130800Y14500D02*X132800D01*
X133300Y15000D01*
Y15800D01*
X132800Y16300D02*X133300Y15800D01*
X134500Y14500D02*X135500Y16500D01*
X136500Y14500D01*
X135500Y16500D02*Y18500D01*
X137700Y16500D02*X139700D01*
X142900Y14500D02*X143400Y15000D01*
X141400Y14500D02*X142900D01*
X140900Y15000D02*X141400Y14500D01*
X140900Y15000D02*Y16000D01*
X141400Y16500D01*
X142900D01*
X143400Y17000D01*
Y18000D01*
X142900Y18500D02*X143400Y18000D01*
X141400Y18500D02*X142900D01*
X140900Y18000D02*X141400Y18500D01*
X144600Y15500D02*Y18500D01*
Y15500D02*X145300Y14500D01*
X146400D01*
X147100Y15500D01*
Y18500D01*
X144600Y16500D02*X147100D01*
X95000Y51000D02*Y55000D01*
Y53500D02*X95500Y53000D01*
X96500D01*
X97000Y53500D01*
Y55000D01*
X98700Y51000D02*Y54500D01*
X99200Y55000D01*
X98200Y52500D02*X99200D01*
X100700Y51000D02*Y54500D01*
X101200Y55000D01*
X100200Y52500D02*X101200D01*
X102700Y53500D02*Y56500D01*
X102200Y53000D02*X102700Y53500D01*
X103200Y53000D01*
X104200D01*
X104700Y53500D01*
Y54500D01*
X104200Y55000D02*X104700Y54500D01*
X103200Y55000D02*X104200D01*
X102700Y54500D02*X103200Y55000D01*
X105900Y52500D02*X106400D01*
X105900Y53500D02*X106400D01*
X107600Y54500D02*X110600Y51500D01*
X111800Y54500D02*X114800Y51500D01*
X116000Y52000D02*Y52100D01*
Y53500D02*Y55000D01*
X118500Y53000D02*X119000Y53500D01*
X117500Y53000D02*X118500D01*
X117000Y53500D02*X117500Y53000D01*
X117000Y53500D02*Y54500D01*
X117500Y55000D01*
X119000Y53000D02*Y54500D01*
X119500Y55000D01*
X117500D02*X118500D01*
X119000Y54500D01*
X121200Y55000D02*X122700D01*
X123200Y54500D01*
X122700Y54000D02*X123200Y54500D01*
X121200Y54000D02*X122700D01*
X120700Y53500D02*X121200Y54000D01*
X120700Y53500D02*X121200Y53000D01*
X122700D01*
X123200Y53500D01*
X120700Y54500D02*X121200Y55000D01*
X124900Y53000D02*X126400D01*
X124400Y53500D02*X124900Y53000D01*
X124400Y53500D02*Y54500D01*
X124900Y55000D01*
X126400D01*
X129100Y53000D02*X129600Y53500D01*
X128100Y53000D02*X129100D01*
X127600Y53500D02*X128100Y53000D01*
X127600Y53500D02*Y54500D01*
X128100Y55000D01*
X129600Y53000D02*Y54500D01*
X130100Y55000D01*
X128100D02*X129100D01*
X129600Y54500D01*
X131300Y51000D02*Y54500D01*
X131800Y55000D01*
X133300D02*X134800D01*
X132800Y54500D02*X133300Y55000D01*
X132800Y53500D02*Y54500D01*
Y53500D02*X133300Y53000D01*
X134300D01*
X134800Y53500D01*
X132800Y54000D02*X134800D01*
Y53500D02*Y54000D01*
X138000Y51000D02*Y55000D01*
X137500D02*X138000Y54500D01*
X136500Y55000D02*X137500D01*
X136000Y54500D02*X136500Y55000D01*
X136000Y53500D02*Y54500D01*
Y53500D02*X136500Y53000D01*
X137500D01*
X138000Y53500D01*
X139200Y55000D02*X139700D01*
X141400Y53000D02*X142900D01*
X140900Y53500D02*X141400Y53000D01*
X140900Y53500D02*Y54500D01*
X141400Y55000D01*
X142900D01*
X144100Y53500D02*Y54500D01*
Y53500D02*X144600Y53000D01*
X145600D01*
X146100Y53500D01*
Y54500D01*
X145600Y55000D02*X146100Y54500D01*
X144600Y55000D02*X145600D01*
X144100Y54500D02*X144600Y55000D01*
X147800Y53500D02*Y55000D01*
Y53500D02*X148300Y53000D01*
X148800D01*
X149300Y53500D01*
Y55000D01*
Y53500D02*X149800Y53000D01*
X150300D01*
X150800Y53500D01*
Y55000D01*
X147300Y53000D02*X147800Y53500D01*
M02*
