G04 start of page 2 for group 0 idx 0 *
G04 Title: (unknown), top *
G04 Creator: pcb 20140316 *
G04 CreationDate: Wed 15 Apr 2020 03:13:27 PM GMT UTC *
G04 For: railfan *
G04 Format: Gerber/RS-274X *
G04 PCB-Dimensions (mil): 2000.00 1000.00 *
G04 PCB-Coordinate-Origin: lower left *
%MOIN*%
%FSLAX25Y25*%
%LNTOP*%
%ADD34C,0.0433*%
%ADD33C,0.0390*%
%ADD32C,0.0360*%
%ADD31R,0.0177X0.0177*%
%ADD30R,0.0197X0.0197*%
%ADD29R,0.0340X0.0340*%
%ADD28R,0.0945X0.0945*%
%ADD27R,0.0378X0.0378*%
%ADD26R,0.0470X0.0470*%
%ADD25R,0.0630X0.0630*%
%ADD24R,0.0167X0.0167*%
%ADD23R,0.0500X0.0500*%
%ADD22R,0.0787X0.0787*%
%ADD21R,0.0200X0.0200*%
%ADD20R,0.0512X0.0512*%
%ADD19C,0.0310*%
%ADD18C,0.0633*%
%ADD17C,0.0200*%
%ADD16C,0.0300*%
%ADD15C,0.0450*%
%ADD14C,0.0350*%
%ADD13C,0.0400*%
%ADD12C,0.0100*%
%ADD11C,0.0001*%
G54D11*G36*
X104000Y33500D02*X118000D01*
Y26000D01*
X104000D01*
Y33500D01*
G37*
G36*
X147000Y90654D02*X147210Y90567D01*
X147490Y90500D01*
X147210Y90433D01*
X147000Y90346D01*
Y90654D01*
G37*
G36*
Y98500D02*X148530D01*
X148514Y98486D01*
X148228Y98151D01*
X147997Y97775D01*
X147829Y97368D01*
X147726Y96939D01*
X147691Y96500D01*
X147726Y96061D01*
X147829Y95632D01*
X147864Y95547D01*
X147600Y95526D01*
X147210Y95433D01*
X147000Y95346D01*
Y98500D01*
G37*
G36*
Y55704D02*X151126Y55707D01*
X151248Y55737D01*
X151364Y55785D01*
X151472Y55851D01*
X151567Y55933D01*
X151625Y56000D01*
X153135D01*
X153228Y55849D01*
X153514Y55514D01*
X153849Y55228D01*
X154225Y54997D01*
X154632Y54829D01*
X155061Y54726D01*
X155500Y54691D01*
X155939Y54726D01*
X156368Y54829D01*
X156775Y54997D01*
X157151Y55228D01*
X157486Y55514D01*
X157772Y55849D01*
X158003Y56225D01*
X158171Y56632D01*
X158274Y57061D01*
X158300Y57500D01*
X158379D01*
X164518Y51361D01*
X164525Y47343D01*
X164562Y47190D01*
X164622Y47045D01*
X164704Y46910D01*
X164807Y46791D01*
X164926Y46688D01*
X165061Y46606D01*
X165206Y46546D01*
X165359Y46509D01*
X165516Y46500D01*
X169500Y46503D01*
Y25500D01*
X147000D01*
Y30704D01*
X151126Y30707D01*
X151248Y30737D01*
X151364Y30785D01*
X151472Y30851D01*
X151567Y30933D01*
X151625Y31000D01*
X152635D01*
X152728Y30849D01*
X153014Y30514D01*
X153349Y30228D01*
X153725Y29997D01*
X154132Y29829D01*
X154561Y29726D01*
X155000Y29691D01*
X155439Y29726D01*
X155868Y29829D01*
X156275Y29997D01*
X156651Y30228D01*
X156986Y30514D01*
X157272Y30849D01*
X157503Y31225D01*
X157671Y31632D01*
X157774Y32061D01*
X157800Y32500D01*
X157774Y32939D01*
X157671Y33368D01*
X157503Y33775D01*
X157272Y34151D01*
X156986Y34486D01*
X156651Y34772D01*
X156275Y35003D01*
X155868Y35171D01*
X155439Y35274D01*
X155000Y35309D01*
X154561Y35274D01*
X154132Y35171D01*
X153725Y35003D01*
X153349Y34772D01*
X153014Y34486D01*
X152728Y34151D01*
X152635Y34000D01*
X151625D01*
X151567Y34067D01*
X151472Y34149D01*
X151364Y34215D01*
X151248Y34263D01*
X151126Y34293D01*
X151000Y34300D01*
X147000Y34296D01*
Y35704D01*
X151126Y35707D01*
X151248Y35737D01*
X151364Y35785D01*
X151472Y35851D01*
X151567Y35933D01*
X151649Y36028D01*
X151715Y36136D01*
X151763Y36252D01*
X151793Y36374D01*
X151800Y36500D01*
X151793Y38626D01*
X151763Y38748D01*
X151715Y38864D01*
X151649Y38972D01*
X151567Y39067D01*
X151472Y39149D01*
X151364Y39215D01*
X151248Y39263D01*
X151126Y39293D01*
X151000Y39300D01*
X147000Y39296D01*
Y40704D01*
X151126Y40707D01*
X151248Y40737D01*
X151364Y40785D01*
X151472Y40851D01*
X151567Y40933D01*
X151649Y41028D01*
X151715Y41136D01*
X151763Y41252D01*
X151793Y41374D01*
X151800Y41500D01*
X151793Y43626D01*
X151763Y43748D01*
X151715Y43864D01*
X151649Y43972D01*
X151567Y44067D01*
X151472Y44149D01*
X151364Y44215D01*
X151248Y44263D01*
X151126Y44293D01*
X151000Y44300D01*
X147000Y44296D01*
Y45704D01*
X151126Y45707D01*
X151248Y45737D01*
X151364Y45785D01*
X151472Y45851D01*
X151567Y45933D01*
X151649Y46028D01*
X151715Y46136D01*
X151763Y46252D01*
X151793Y46374D01*
X151800Y46500D01*
X151793Y48626D01*
X151763Y48748D01*
X151715Y48864D01*
X151649Y48972D01*
X151567Y49067D01*
X151472Y49149D01*
X151364Y49215D01*
X151248Y49263D01*
X151126Y49293D01*
X151000Y49300D01*
X147000Y49296D01*
Y50704D01*
X151126Y50707D01*
X151248Y50737D01*
X151364Y50785D01*
X151472Y50851D01*
X151567Y50933D01*
X151649Y51028D01*
X151715Y51136D01*
X151763Y51252D01*
X151793Y51374D01*
X151800Y51500D01*
X151793Y53626D01*
X151763Y53748D01*
X151715Y53864D01*
X151649Y53972D01*
X151567Y54067D01*
X151472Y54149D01*
X151364Y54215D01*
X151248Y54263D01*
X151126Y54293D01*
X151000Y54300D01*
X147000Y54296D01*
Y55704D01*
G37*
G36*
X162995Y95213D02*X163003Y95225D01*
X163171Y95632D01*
X163274Y96061D01*
X163300Y96500D01*
X163274Y96939D01*
X163171Y97368D01*
X163003Y97775D01*
X162995Y97787D01*
Y98500D01*
X169500D01*
Y73000D01*
X166300D01*
X166274Y73439D01*
X166171Y73868D01*
X166003Y74275D01*
X165772Y74651D01*
X165486Y74986D01*
X165151Y75272D01*
X164775Y75503D01*
X164368Y75671D01*
X163939Y75774D01*
X163500Y75809D01*
X163061Y75774D01*
X162995Y75758D01*
Y87541D01*
X163000Y87541D01*
X163463Y87577D01*
X163914Y87686D01*
X164343Y87863D01*
X164739Y88106D01*
X165092Y88408D01*
X165394Y88761D01*
X165637Y89157D01*
X165814Y89586D01*
X165923Y90037D01*
X165950Y90500D01*
X165923Y90963D01*
X165814Y91414D01*
X165637Y91843D01*
X165394Y92239D01*
X165092Y92592D01*
X164739Y92894D01*
X164343Y93137D01*
X163914Y93314D01*
X163463Y93423D01*
X163000Y93459D01*
X162995Y93459D01*
Y95213D01*
G37*
G36*
Y97787D02*X162772Y98151D01*
X162486Y98486D01*
X162470Y98500D01*
X162995D01*
Y97787D01*
G37*
G36*
X160550Y93000D02*X160526Y93400D01*
X160456Y93695D01*
X160500Y93691D01*
X160939Y93726D01*
X161368Y93829D01*
X161775Y93997D01*
X162151Y94228D01*
X162486Y94514D01*
X162772Y94849D01*
X162995Y95213D01*
Y93459D01*
X162537Y93423D01*
X162086Y93314D01*
X161657Y93137D01*
X161261Y92894D01*
X160908Y92592D01*
X160606Y92239D01*
X160363Y91843D01*
X160186Y91414D01*
X160077Y90963D01*
X160041Y90500D01*
X160077Y90037D01*
X160186Y89586D01*
X160363Y89157D01*
X160606Y88761D01*
X160908Y88408D01*
X161261Y88106D01*
X161657Y87863D01*
X162086Y87686D01*
X162537Y87577D01*
X162995Y87541D01*
Y75758D01*
X162632Y75671D01*
X162225Y75503D01*
X161849Y75272D01*
X161514Y74986D01*
X161228Y74651D01*
X160997Y74275D01*
X160829Y73868D01*
X160726Y73439D01*
X160723Y73399D01*
X160602Y73519D01*
X160564Y73564D01*
X160384Y73717D01*
X160183Y73841D01*
X159965Y73931D01*
X159735Y73986D01*
X159735Y73986D01*
X159500Y74005D01*
X159441Y74000D01*
X157865D01*
X157772Y74151D01*
X157486Y74486D01*
X157151Y74772D01*
X156775Y75003D01*
X156368Y75171D01*
X155939Y75274D01*
X155500Y75309D01*
X155061Y75274D01*
X154632Y75171D01*
X154225Y75003D01*
X153849Y74772D01*
X153514Y74486D01*
X153228Y74151D01*
X153135Y74000D01*
X151625D01*
X151567Y74067D01*
X151472Y74149D01*
X151364Y74215D01*
X151248Y74263D01*
X151126Y74293D01*
X151000Y74300D01*
X147000Y74296D01*
Y80191D01*
X147439Y80226D01*
X147868Y80329D01*
X148275Y80497D01*
X148651Y80728D01*
X148986Y81014D01*
X149272Y81349D01*
X149500Y81721D01*
X149728Y81349D01*
X150014Y81014D01*
X150349Y80728D01*
X150725Y80497D01*
X151132Y80329D01*
X151561Y80226D01*
X152000Y80191D01*
X152439Y80226D01*
X152868Y80329D01*
X153275Y80497D01*
X153651Y80728D01*
X153986Y81014D01*
X154272Y81349D01*
X154503Y81725D01*
X154671Y82132D01*
X154774Y82561D01*
X154800Y83000D01*
X154774Y83439D01*
X154671Y83868D01*
X154503Y84275D01*
X154272Y84651D01*
X153986Y84986D01*
X153936Y85029D01*
X154066Y85681D01*
X154161Y85721D01*
X154503Y85931D01*
X154809Y86191D01*
X155069Y86497D01*
X155279Y86839D01*
X155433Y87210D01*
X155500Y87490D01*
X155567Y87210D01*
X155721Y86839D01*
X155931Y86497D01*
X156191Y86191D01*
X156497Y85931D01*
X156839Y85721D01*
X157210Y85567D01*
X157600Y85474D01*
X158000Y85442D01*
X158400Y85474D01*
X158790Y85567D01*
X159161Y85721D01*
X159503Y85931D01*
X159809Y86191D01*
X160069Y86497D01*
X160279Y86839D01*
X160433Y87210D01*
X160526Y87600D01*
X160550Y88000D01*
X160526Y88400D01*
X160433Y88790D01*
X160279Y89161D01*
X160069Y89503D01*
X159809Y89809D01*
X159503Y90069D01*
X159161Y90279D01*
X158790Y90433D01*
X158510Y90500D01*
X158790Y90567D01*
X159161Y90721D01*
X159503Y90931D01*
X159809Y91191D01*
X160069Y91497D01*
X160279Y91839D01*
X160433Y92210D01*
X160526Y92600D01*
X160550Y93000D01*
G37*
G36*
X147000Y74296D02*X142874Y74293D01*
X142752Y74263D01*
X142636Y74215D01*
X142528Y74149D01*
X142433Y74067D01*
X142351Y73972D01*
X142285Y73864D01*
X142237Y73748D01*
X142207Y73626D01*
X142200Y73500D01*
X142207Y71374D01*
X142237Y71252D01*
X142285Y71136D01*
X142351Y71028D01*
X142433Y70933D01*
X142500Y70875D01*
Y69125D01*
X142433Y69067D01*
X142351Y68972D01*
X142285Y68864D01*
X142237Y68748D01*
X142207Y68626D01*
X142200Y68500D01*
X142207Y66374D01*
X142237Y66252D01*
X142285Y66136D01*
X142351Y66028D01*
X142433Y65933D01*
X142500Y65875D01*
Y64125D01*
X142433Y64067D01*
X142351Y63972D01*
X142285Y63864D01*
X142237Y63748D01*
X142207Y63626D01*
X142200Y63500D01*
X142207Y61374D01*
X142237Y61252D01*
X142285Y61136D01*
X142351Y61028D01*
X142433Y60933D01*
X142500Y60875D01*
Y59125D01*
X142433Y59067D01*
X142351Y58972D01*
X142285Y58864D01*
X142237Y58748D01*
X142207Y58626D01*
X142200Y58500D01*
X142207Y56374D01*
X142237Y56252D01*
X142285Y56136D01*
X142351Y56028D01*
X142433Y55933D01*
X142528Y55851D01*
X142636Y55785D01*
X142752Y55737D01*
X142874Y55707D01*
X143000Y55700D01*
X147000Y55704D01*
Y54296D01*
X142874Y54293D01*
X142752Y54263D01*
X142636Y54215D01*
X142528Y54149D01*
X142433Y54067D01*
X142351Y53972D01*
X142285Y53864D01*
X142237Y53748D01*
X142207Y53626D01*
X142200Y53500D01*
X142207Y51374D01*
X142237Y51252D01*
X142285Y51136D01*
X142351Y51028D01*
X142433Y50933D01*
X142528Y50851D01*
X142636Y50785D01*
X142752Y50737D01*
X142874Y50707D01*
X143000Y50700D01*
X147000Y50704D01*
Y49296D01*
X142874Y49293D01*
X142752Y49263D01*
X142636Y49215D01*
X142528Y49149D01*
X142433Y49067D01*
X142351Y48972D01*
X142285Y48864D01*
X142237Y48748D01*
X142207Y48626D01*
X142200Y48500D01*
X142207Y46374D01*
X142237Y46252D01*
X142285Y46136D01*
X142351Y46028D01*
X142433Y45933D01*
X142528Y45851D01*
X142636Y45785D01*
X142752Y45737D01*
X142874Y45707D01*
X143000Y45700D01*
X147000Y45704D01*
Y44296D01*
X142874Y44293D01*
X142752Y44263D01*
X142636Y44215D01*
X142528Y44149D01*
X142433Y44067D01*
X142351Y43972D01*
X142285Y43864D01*
X142237Y43748D01*
X142207Y43626D01*
X142200Y43500D01*
X142207Y41374D01*
X142237Y41252D01*
X142285Y41136D01*
X142351Y41028D01*
X142433Y40933D01*
X142528Y40851D01*
X142636Y40785D01*
X142752Y40737D01*
X142874Y40707D01*
X143000Y40700D01*
X147000Y40704D01*
Y39296D01*
X142874Y39293D01*
X142752Y39263D01*
X142636Y39215D01*
X142528Y39149D01*
X142433Y39067D01*
X142375Y39000D01*
X141865D01*
X141772Y39151D01*
X141486Y39486D01*
X141151Y39772D01*
X140775Y40003D01*
X140368Y40171D01*
X139939Y40274D01*
X139500Y40309D01*
X139061Y40274D01*
X138632Y40171D01*
X138225Y40003D01*
X137849Y39772D01*
X137514Y39486D01*
X137228Y39151D01*
X136997Y38775D01*
X136829Y38368D01*
X136726Y37939D01*
X136691Y37500D01*
X136726Y37061D01*
X136829Y36632D01*
X136997Y36225D01*
X137228Y35849D01*
X137514Y35514D01*
X137849Y35228D01*
X138225Y34997D01*
X138632Y34829D01*
X139061Y34726D01*
X139500Y34691D01*
X139939Y34726D01*
X140368Y34829D01*
X140775Y34997D01*
X141151Y35228D01*
X141486Y35514D01*
X141772Y35849D01*
X141865Y36000D01*
X142375D01*
X142433Y35933D01*
X142528Y35851D01*
X142636Y35785D01*
X142752Y35737D01*
X142874Y35707D01*
X143000Y35700D01*
X147000Y35704D01*
Y34296D01*
X142874Y34293D01*
X142752Y34263D01*
X142636Y34215D01*
X142528Y34149D01*
X142433Y34067D01*
X142351Y33972D01*
X142285Y33864D01*
X142237Y33748D01*
X142207Y33626D01*
X142200Y33500D01*
X142207Y31374D01*
X142237Y31252D01*
X142285Y31136D01*
X142351Y31028D01*
X142433Y30933D01*
X142528Y30851D01*
X142636Y30785D01*
X142752Y30737D01*
X142874Y30707D01*
X143000Y30700D01*
X147000Y30704D01*
Y25500D01*
X131500D01*
Y59441D01*
X131505Y59500D01*
X131486Y59735D01*
X131431Y59965D01*
X131341Y60183D01*
X131217Y60384D01*
X131064Y60564D01*
X131019Y60602D01*
X128102Y63519D01*
X128064Y63564D01*
X127884Y63717D01*
X127683Y63841D01*
X127465Y63931D01*
X127235Y63986D01*
X127000Y64005D01*
X126941Y64000D01*
X122500D01*
Y84000D01*
X124135D01*
X124228Y83849D01*
X124514Y83514D01*
X124849Y83228D01*
X125225Y82997D01*
X125632Y82829D01*
X126061Y82726D01*
X126500Y82691D01*
X126939Y82726D01*
X127368Y82829D01*
X127775Y82997D01*
X128151Y83228D01*
X128486Y83514D01*
X128772Y83849D01*
X129003Y84225D01*
X129171Y84632D01*
X129274Y85061D01*
X129300Y85500D01*
X129274Y85939D01*
X129171Y86368D01*
X129003Y86775D01*
X128772Y87151D01*
X128486Y87486D01*
X128151Y87772D01*
X127775Y88003D01*
X127368Y88171D01*
X126939Y88274D01*
X126500Y88309D01*
X126061Y88274D01*
X125632Y88171D01*
X125225Y88003D01*
X124849Y87772D01*
X124514Y87486D01*
X124228Y87151D01*
X124135Y87000D01*
X122500D01*
Y98500D01*
X147000D01*
Y95346D01*
X146839Y95279D01*
X146497Y95069D01*
X146191Y94809D01*
X145949Y94524D01*
X145923Y94963D01*
X145814Y95414D01*
X145637Y95843D01*
X145394Y96239D01*
X145092Y96592D01*
X144739Y96894D01*
X144343Y97137D01*
X143914Y97314D01*
X143463Y97423D01*
X143000Y97459D01*
X142537Y97423D01*
X142086Y97314D01*
X141657Y97137D01*
X141261Y96894D01*
X140908Y96592D01*
X140606Y96239D01*
X140363Y95843D01*
X140186Y95414D01*
X140077Y94963D01*
X140041Y94500D01*
X140077Y94037D01*
X140186Y93586D01*
X140363Y93157D01*
X140606Y92761D01*
X140908Y92408D01*
X141261Y92106D01*
X141657Y91863D01*
X142086Y91686D01*
X142537Y91577D01*
X143000Y91541D01*
X143463Y91577D01*
X143914Y91686D01*
X144343Y91863D01*
X144739Y92106D01*
X145092Y92408D01*
X145394Y92761D01*
X145453Y92858D01*
X145474Y92600D01*
X145567Y92210D01*
X145721Y91839D01*
X145931Y91497D01*
X146191Y91191D01*
X146497Y90931D01*
X146839Y90721D01*
X147000Y90654D01*
Y90346D01*
X146839Y90279D01*
X146497Y90069D01*
X146191Y89809D01*
X145931Y89503D01*
X145721Y89161D01*
X145567Y88790D01*
X145474Y88400D01*
X145453Y88142D01*
X145394Y88239D01*
X145092Y88592D01*
X144739Y88894D01*
X144343Y89137D01*
X143914Y89314D01*
X143463Y89423D01*
X143000Y89459D01*
X142537Y89423D01*
X142086Y89314D01*
X141657Y89137D01*
X141261Y88894D01*
X140908Y88592D01*
X140606Y88239D01*
X140363Y87843D01*
X140186Y87414D01*
X140077Y86963D01*
X140041Y86500D01*
X140077Y86037D01*
X140186Y85586D01*
X140363Y85157D01*
X140606Y84761D01*
X140908Y84408D01*
X141261Y84106D01*
X141657Y83863D01*
X142086Y83686D01*
X142537Y83577D01*
X143000Y83541D01*
X143463Y83577D01*
X143914Y83686D01*
X144326Y83856D01*
X144226Y83439D01*
X144191Y83000D01*
X144226Y82561D01*
X144329Y82132D01*
X144497Y81725D01*
X144728Y81349D01*
X145014Y81014D01*
X145349Y80728D01*
X145725Y80497D01*
X146132Y80329D01*
X146561Y80226D01*
X147000Y80191D01*
Y74296D01*
G37*
G36*
X171000Y90000D02*X182500D01*
Y73000D01*
X171000D01*
Y90000D01*
G37*
G36*
X161000Y50000D02*X164520D01*
X164525Y47343D01*
X164562Y47190D01*
X164622Y47045D01*
X164704Y46910D01*
X164807Y46791D01*
X164926Y46688D01*
X165061Y46606D01*
X165206Y46546D01*
X165359Y46509D01*
X165516Y46500D01*
X178000Y46508D01*
Y25500D01*
X161000D01*
Y50000D01*
G37*
G36*
X174000Y25500D02*Y46500D01*
X180000D01*
Y44000D01*
X180000Y44000D01*
Y25500D01*
X174000D01*
G37*
G36*
X183000Y42500D02*X197500D01*
Y25500D01*
X183000D01*
Y42500D01*
G37*
G36*
Y72000D02*X197500D01*
Y57500D01*
X183000D01*
Y67941D01*
X183005Y68000D01*
X183000Y68059D01*
Y72000D01*
G37*
G36*
X180000Y57500D02*X165500D01*
Y68000D01*
X179000D01*
X180000Y67000D01*
Y57500D01*
G37*
G36*
X11500Y88000D02*Y72000D01*
X1500D01*
Y88000D01*
X11500D01*
G37*
G36*
X13500Y72000D02*Y88000D01*
X33500D01*
Y72000D01*
X13500D01*
G37*
G36*
X53738Y88500D02*X76000D01*
Y81500D01*
X53500D01*
Y87999D01*
X53595Y88154D01*
X53738Y88500D01*
G37*
G36*
X37565Y82000D02*X34000D01*
Y92000D01*
X39000D01*
Y83442D01*
X37565Y82000D01*
G37*
G36*
X41500Y70000D02*Y79500D01*
X60000D01*
Y70000D01*
X41500D01*
G37*
G36*
X30000Y37000D02*Y45000D01*
X39500D01*
Y37000D01*
X30000D01*
G37*
G36*
Y55000D02*Y63000D01*
X39381D01*
X39283Y62884D01*
X39159Y62683D01*
X39069Y62465D01*
X39014Y62235D01*
X39014Y62235D01*
X38995Y62000D01*
X39000Y61941D01*
Y55000D01*
X30000D01*
G37*
G36*
X26000Y71000D02*X39500D01*
Y64000D01*
X26000D01*
Y71000D01*
G37*
G36*
X25000Y65000D02*X29000D01*
Y34500D01*
X25000D01*
Y37266D01*
X25413Y37365D01*
X26019Y37616D01*
X26578Y37958D01*
X27076Y38384D01*
X27502Y38883D01*
X27845Y39442D01*
X28096Y40047D01*
X28249Y40685D01*
X28287Y41339D01*
X28249Y41992D01*
X28096Y42630D01*
X27845Y43235D01*
X27502Y43794D01*
X27076Y44293D01*
X26578Y44719D01*
X26019Y45061D01*
X25413Y45312D01*
X25000Y45411D01*
Y54589D01*
X25413Y54688D01*
X26019Y54939D01*
X26578Y55281D01*
X27076Y55707D01*
X27502Y56206D01*
X27845Y56765D01*
X28096Y57370D01*
X28249Y58008D01*
X28287Y58661D01*
X28249Y59315D01*
X28096Y59953D01*
X27845Y60558D01*
X27502Y61117D01*
X27076Y61616D01*
X26578Y62042D01*
X26019Y62384D01*
X25413Y62635D01*
X25000Y62734D01*
Y65000D01*
G37*
G36*
X1500Y71000D02*X26500D01*
Y62089D01*
X26019Y62384D01*
X25413Y62635D01*
X24776Y62788D01*
X24122Y62840D01*
X23468Y62788D01*
X22831Y62635D01*
X22225Y62384D01*
X21666Y62042D01*
X21168Y61616D01*
X20742Y61117D01*
X20399Y60558D01*
X20148Y59953D01*
X19995Y59315D01*
X19944Y58661D01*
X19995Y58008D01*
X20148Y57370D01*
X20399Y56765D01*
X20742Y56206D01*
X21168Y55707D01*
X21666Y55281D01*
X22225Y54939D01*
X22831Y54688D01*
X23468Y54535D01*
X24122Y54483D01*
X24776Y54535D01*
X25413Y54688D01*
X26019Y54939D01*
X26500Y55233D01*
Y44767D01*
X26019Y45061D01*
X25413Y45312D01*
X24776Y45465D01*
X24122Y45517D01*
X23468Y45465D01*
X22831Y45312D01*
X22225Y45061D01*
X21666Y44719D01*
X21168Y44293D01*
X20742Y43794D01*
X20399Y43235D01*
X20148Y42630D01*
X19995Y41992D01*
X19944Y41339D01*
X19995Y40685D01*
X20148Y40047D01*
X20399Y39442D01*
X20742Y38883D01*
X21168Y38384D01*
X21666Y37958D01*
X22225Y37616D01*
X22831Y37365D01*
X23468Y37212D01*
X24122Y37160D01*
X24776Y37212D01*
X25413Y37365D01*
X26019Y37616D01*
X26500Y37911D01*
Y26500D01*
X1500D01*
Y71000D01*
G37*
G36*
X25500Y36000D02*X40500D01*
Y28664D01*
X38336Y26500D01*
X25500D01*
Y36000D01*
G37*
G54D12*X62000Y53500D02*X65500Y50000D01*
X73700Y60675D02*X68500D01*
X65500Y50000D02*X98500D01*
X78075Y40575D02*X81000Y43500D01*
X65925Y37425D02*X64000Y35500D01*
X75348Y34276D02*X81000D01*
X68652Y37425D02*X65925D01*
X75348Y40575D02*X78075D01*
X70925D02*X72000Y39500D01*
X68652Y40575D02*X70925D01*
X71750Y39750D01*
G54D13*X28000Y83500D02*X39500Y95000D01*
G54D14*X44858Y89406D02*X51137D01*
X56500Y84043D01*
G54D15*X9500Y94000D02*X17500D01*
G54D12*X53348Y60575D02*X61425D01*
X46652D02*X43575D01*
X50000Y62500D02*X49500Y63000D01*
X41500D01*
X40500Y62000D01*
X64000Y35500D02*Y11000D01*
X68652Y34276D02*Y12152D01*
X64000Y11000D02*X59500Y6500D01*
X68652Y12152D02*X60500Y4000D01*
X93043Y16000D02*X88543Y20500D01*
G54D14*X81457D02*Y10500D01*
G54D12*X59500Y6500D02*X61500Y8500D01*
X72000Y39500D02*Y6500D01*
X75500Y3000D01*
X60500Y4000D02*X16000D01*
X32500Y6500D02*X59500D01*
G54D14*X14000Y15043D02*X25000D01*
G54D12*X17000Y4000D02*X10000D01*
X7500Y6500D01*
Y20500D01*
X9000Y22000D01*
X13957D01*
X14000Y22043D01*
X25000D02*X28957D01*
X30500Y20500D01*
X42500Y28543D02*X36000Y22043D01*
X51500Y26543D02*X47000Y22043D01*
X30500Y20500D02*Y8500D01*
X32500Y6500D01*
G54D14*X47000Y14957D02*X36000D01*
G54D13*X83500Y90000D02*Y60675D01*
X39500Y95000D02*X78500D01*
X83500Y90000D01*
G54D12*X43575Y60575D02*X42500Y59500D01*
X64500Y54500D02*X66500Y52500D01*
X61425Y60575D02*X64500Y57500D01*
Y54500D01*
X60575Y57425D02*X62000Y56000D01*
Y53500D01*
X53348Y57425D02*X60575D01*
X46652D02*X49425D01*
X50000Y58000D01*
Y62500D01*
X49425Y57425D02*Y55575D01*
X51500Y53500D01*
Y26543D01*
X47000Y38957D02*X51500D01*
X40500Y62000D02*Y54000D01*
X47000Y46043D02*Y52000D01*
X42500Y59500D02*Y28543D01*
X34752Y50000D02*X42500D01*
X34752Y53150D02*X39650D01*
X40500Y54000D01*
X111000Y62500D02*X127000D01*
X130000Y59500D01*
Y18500D01*
X111000Y57500D02*X126000D01*
X128000Y55500D01*
Y18500D01*
X130000D02*X132500Y16000D01*
X125500Y9000D01*
X132500Y16000D02*X146717D01*
X147000Y37500D02*X139500D01*
X155000Y32500D02*X147000D01*
X128000Y18500D02*X125500Y16000D01*
X93043D01*
X125500Y9000D02*X88500D01*
X75500Y3000D02*X165500D01*
X169500Y7000D01*
Y16000D01*
X66500Y52500D02*X111000D01*
X106000Y77500D02*X105000Y78500D01*
Y94500D01*
X98500Y50000D02*X101000Y47500D01*
X111000D01*
X75348Y37425D02*X111000D01*
X113043Y85500D02*X126500D01*
G54D16*X148000Y88000D02*X147000Y83000D01*
G54D12*X113043Y94500D02*X126000D01*
X153000Y93000D02*X155500Y96500D01*
X158000Y93000D02*X160500Y96500D01*
X148000Y93000D02*X150500Y96500D01*
X153000Y88000D02*X152000Y83000D01*
G54D17*X158000Y88000D02*Y83500D01*
G54D12*X147000Y72500D02*X159500D01*
X106000Y77500D02*X119500D01*
X159500Y72500D02*X162500Y69500D01*
X163500Y73000D02*X165000Y71500D01*
X147000Y67500D02*X159500D01*
X147000Y62500D02*X155500D01*
X147000Y57500D02*X155500D01*
X159500Y67500D02*Y61500D01*
X182000Y16000D02*X176543D01*
X155500Y62500D02*X168000Y50000D01*
X159500Y61500D02*X166000Y55000D01*
X181500Y53500D02*Y44000D01*
Y68000D02*Y56500D01*
Y44000D02*X185500Y40000D01*
X162500Y69500D02*X180000D01*
X165000Y71500D02*X187500D01*
X180000Y69500D02*X181500Y68000D01*
X166000Y55000D02*X180000D01*
X181500Y53500D01*
Y56500D02*X183000Y55000D01*
X189000D01*
X190240Y53760D01*
Y50000D01*
G54D18*X24122Y58661D03*
Y41339D03*
G54D19*X158000Y93000D03*
Y88000D03*
G54D20*X166957Y81893D02*Y81107D01*
X174043Y81893D02*Y81107D01*
G54D19*X153000Y93000D03*
Y88000D03*
X148000Y93000D03*
Y88000D03*
G54D21*X144000Y62500D02*X150000D01*
X144000Y67500D02*X150000D01*
X144000Y72500D02*X150000D01*
X144000Y77500D02*X150000D01*
G54D20*X176543Y16393D02*Y15607D01*
X169457Y16393D02*Y15607D01*
G54D21*X144000Y32500D02*X150000D01*
G54D22*X138843Y16000D02*X154591D01*
G54D21*X144000Y37500D02*X150000D01*
G54D23*X168016Y40000D02*X177504D01*
G54D21*X144000Y42500D02*X150000D01*
X144000Y47500D02*X150000D01*
X144000Y52500D02*X150000D01*
X144000Y57500D02*X150000D01*
G54D23*X168016Y60000D02*X177504D01*
X168016Y50000D02*X177504D01*
X185496Y40000D02*X194984D01*
X185496Y50000D02*X194984D01*
X185496Y60000D02*X194984D01*
G54D24*X67717Y34276D02*X69587D01*
G54D20*X88543Y20893D02*Y20107D01*
X81457Y20893D02*Y20107D01*
X88543Y10893D02*Y10107D01*
X81457Y10893D02*Y10107D01*
G54D21*X108000Y32500D02*X114000D01*
G54D22*X103409Y16000D02*X119157D01*
G54D20*X25107Y14957D02*X25893D01*
X35607D02*X36393D01*
X46607D02*X47393D01*
X25107Y22043D02*X25893D01*
X35607D02*X36393D01*
X46607D02*X47393D01*
G54D25*X33177Y32874D02*X34752D01*
G54D20*X13107Y14957D02*X13893D01*
X13107Y22043D02*X13893D01*
G54D25*X11524Y32874D02*X13098D01*
G54D24*X74413Y40575D02*X76283D01*
X74413Y43724D02*X76283D01*
X67717D02*X69587D01*
X67717Y40575D02*X69587D01*
X67717Y37425D02*X69587D01*
X74413Y34276D02*X76283D01*
X74413Y37425D02*X76283D01*
G54D26*X73700Y84900D02*Y79750D01*
X83500Y84900D02*Y79750D01*
X93300Y84900D02*Y79750D01*
X73700Y63250D02*Y58100D01*
X83500Y63250D02*Y58100D01*
X93300Y63250D02*Y58100D01*
G54D21*X108000Y77500D02*X114000D01*
X108000Y72500D02*X114000D01*
X108000Y67500D02*X114000D01*
X108000Y62500D02*X114000D01*
X108000Y57500D02*X114000D01*
X108000Y52500D02*X114000D01*
X108000Y47500D02*X114000D01*
X108000Y42500D02*X114000D01*
X108000Y37500D02*X114000D01*
G54D20*X105957Y94893D02*Y94107D01*
Y85893D02*Y85107D01*
X113043Y94893D02*Y94107D01*
Y85893D02*Y85107D01*
G54D24*X45717Y60575D02*X47587D01*
X45717Y57425D02*X47587D01*
X52413D02*X54283D01*
X52413Y60575D02*X54283D01*
G54D27*X43311Y77594D02*X47405D01*
X35595Y83500D02*X47405D01*
G54D28*X31971D02*X33861D01*
G54D11*G36*
X37166Y80195D02*X40006Y83035D01*
X41426Y81615D01*
X38586Y78775D01*
X37166Y80195D01*
G37*
G36*
X38586Y88225D02*X41426Y85385D01*
X40006Y83965D01*
X37166Y86805D01*
X38586Y88225D01*
G37*
G54D29*X9600Y86100D02*Y85500D01*
X13500Y94300D02*Y93700D01*
X17400Y86100D02*Y85500D01*
G54D20*X16043Y77893D02*Y77107D01*
X8957Y77893D02*Y77107D01*
G54D27*X43311Y89406D02*X47405D01*
G54D20*X56107Y84043D02*X56893D01*
X56107Y76957D02*X56893D01*
G54D25*X11524Y67126D02*X13098D01*
X33177D02*X34752D01*
G54D20*X46607Y38957D02*X47393D01*
X46607Y46043D02*X47393D01*
G54D30*X32587Y56299D02*X36917D01*
G54D31*X33768D02*X35933D01*
G54D30*X32587Y53150D02*X36917D01*
G54D31*X33768D02*X35933D01*
G54D30*X32587Y50000D02*X36917D01*
G54D31*X33768D02*X35933D01*
G54D30*X32587Y46850D02*X36917D01*
G54D31*X33768D02*X35933D01*
G54D30*X32587Y43701D02*X36917D01*
G54D31*X33768D02*X35933D01*
G54D32*X126500Y85500D03*
X152000Y83000D03*
X147000D03*
X126000Y94500D03*
X119500Y77500D03*
X130500Y94500D03*
X135000D03*
X155500Y96500D03*
X160500D03*
X150500D03*
X81000Y43500D03*
X68500Y60675D03*
X81000Y34276D03*
X66000Y83500D03*
X53000Y72500D03*
X57500D03*
X69000Y86500D03*
X63000D03*
X139500Y37500D03*
X155500Y62500D03*
X155000Y32500D03*
X111000Y28500D03*
X115500D03*
X155500Y57500D03*
X106500Y28500D03*
X182000Y16000D03*
X81500Y15500D03*
X4000Y85500D03*
X9500Y94000D03*
X5500D03*
X17500D03*
X4000Y75500D03*
Y80500D03*
X19500Y15000D03*
X41500D03*
X37000Y39500D03*
X32500D03*
X44000Y72500D03*
X48500D03*
X47000Y52000D03*
X36500Y60500D03*
X32500D03*
X155500Y72500D03*
X159500Y67500D03*
X163500Y73000D03*
X179500Y76000D03*
Y81500D03*
Y87000D03*
X174000D03*
Y76000D03*
X176500Y65500D03*
X169000D03*
G54D17*G54D33*G54D34*M02*
