G04 start of page 7 for group -4063 idx -4063 *
G04 Title: (unknown), componentmask *
G04 Creator: pcb 20140316 *
G04 CreationDate: Wed 15 Apr 2020 03:13:27 PM GMT UTC *
G04 For: railfan *
G04 Format: Gerber/RS-274X *
G04 PCB-Dimensions (mil): 2000.00 1000.00 *
G04 PCB-Coordinate-Origin: lower left *
%MOIN*%
%FSLAX25Y25*%
%LNTOPMASK*%
%ADD62R,0.0257X0.0257*%
%ADD61R,0.0400X0.0400*%
%ADD60C,0.0001*%
%ADD59R,0.1005X0.1005*%
%ADD58R,0.0438X0.0438*%
%ADD57R,0.0520X0.0520*%
%ADD56R,0.0690X0.0690*%
%ADD55R,0.0227X0.0227*%
%ADD54R,0.0560X0.0560*%
%ADD53R,0.0847X0.0847*%
%ADD52R,0.0300X0.0300*%
%ADD51R,0.0572X0.0572*%
%ADD50C,0.0370*%
%ADD49C,0.0693*%
%ADD48C,0.0490*%
G54D48*X163000Y90500D03*
X143000Y86500D03*
Y94500D03*
G54D49*X24122Y58661D03*
Y41339D03*
G54D50*X158000Y93000D03*
Y88000D03*
G54D51*X166957Y81893D02*Y81107D01*
X174043Y81893D02*Y81107D01*
G54D50*X153000Y93000D03*
Y88000D03*
X148000Y93000D03*
Y88000D03*
G54D52*X144000Y62500D02*X150000D01*
X144000Y67500D02*X150000D01*
X144000Y72500D02*X150000D01*
X144000Y77500D02*X150000D01*
G54D51*X176543Y16393D02*Y15607D01*
X169457Y16393D02*Y15607D01*
G54D52*X144000Y32500D02*X150000D01*
G54D53*X138843Y16000D02*X154591D01*
G54D52*X144000Y37500D02*X150000D01*
G54D54*X168016Y40000D02*X177504D01*
G54D52*X144000Y42500D02*X150000D01*
X144000Y47500D02*X150000D01*
X144000Y52500D02*X150000D01*
X144000Y57500D02*X150000D01*
G54D54*X168016Y60000D02*X177504D01*
X168016Y50000D02*X177504D01*
X185496Y40000D02*X194984D01*
X185496Y50000D02*X194984D01*
X185496Y60000D02*X194984D01*
G54D55*X67717Y34276D02*X69587D01*
G54D51*X88543Y20893D02*Y20107D01*
X81457Y20893D02*Y20107D01*
X88543Y10893D02*Y10107D01*
X81457Y10893D02*Y10107D01*
G54D52*X108000Y32500D02*X114000D01*
G54D53*X103409Y16000D02*X119157D01*
G54D51*X25107Y14957D02*X25893D01*
X35607D02*X36393D01*
X46607D02*X47393D01*
X25107Y22043D02*X25893D01*
X35607D02*X36393D01*
X46607D02*X47393D01*
G54D56*X33177Y32874D02*X34752D01*
G54D51*X13107Y14957D02*X13893D01*
X13107Y22043D02*X13893D01*
G54D56*X11524Y32874D02*X13098D01*
G54D55*X74413Y40575D02*X76283D01*
X74413Y43724D02*X76283D01*
X67717D02*X69587D01*
X67717Y40575D02*X69587D01*
X67717Y37425D02*X69587D01*
X74413Y34276D02*X76283D01*
X74413Y37425D02*X76283D01*
G54D57*X73700Y84900D02*Y79750D01*
X83500Y84900D02*Y79750D01*
X93300Y84900D02*Y79750D01*
X73700Y63250D02*Y58100D01*
X83500Y63250D02*Y58100D01*
X93300Y63250D02*Y58100D01*
G54D52*X108000Y77500D02*X114000D01*
X108000Y72500D02*X114000D01*
X108000Y67500D02*X114000D01*
X108000Y62500D02*X114000D01*
X108000Y57500D02*X114000D01*
X108000Y52500D02*X114000D01*
X108000Y47500D02*X114000D01*
X108000Y42500D02*X114000D01*
X108000Y37500D02*X114000D01*
G54D51*X105957Y94893D02*Y94107D01*
Y85893D02*Y85107D01*
X113043Y94893D02*Y94107D01*
Y85893D02*Y85107D01*
G54D55*X45717Y60575D02*X47587D01*
X45717Y57425D02*X47587D01*
X52413D02*X54283D01*
X52413Y60575D02*X54283D01*
G54D58*X43311Y77594D02*X47405D01*
X35595Y83500D02*X47405D01*
G54D59*X31971D02*X33861D01*
G54D60*G36*
X36742Y80195D02*X40006Y83459D01*
X41850Y81615D01*
X38586Y78351D01*
X36742Y80195D01*
G37*
G36*
X38586Y88649D02*X41850Y85385D01*
X40006Y83541D01*
X36742Y86805D01*
X38586Y88649D01*
G37*
G54D61*X9600Y86100D02*Y85500D01*
X13500Y94300D02*Y93700D01*
X17400Y86100D02*Y85500D01*
G54D51*X16043Y77893D02*Y77107D01*
X8957Y77893D02*Y77107D01*
G54D58*X43311Y89406D02*X47405D01*
G54D51*X56107Y84043D02*X56893D01*
X56107Y76957D02*X56893D01*
G54D56*X11524Y67126D02*X13098D01*
X33177D02*X34752D01*
G54D51*X46607Y38957D02*X47393D01*
X46607Y46043D02*X47393D01*
G54D62*X32587Y56299D02*X36917D01*
X33768D02*X35933D01*
X32587Y53150D02*X36917D01*
X33768D02*X35933D01*
X32587Y50000D02*X36917D01*
X33768D02*X35933D01*
X32587Y46850D02*X36917D01*
X33768D02*X35933D01*
X32587Y43701D02*X36917D01*
X33768D02*X35933D01*
M02*
