G04 start of page 11 for group -4015 idx -4015 *
G04 Title: (unknown), toppaste *
G04 Creator: pcb 20140316 *
G04 CreationDate: Mon 30 Nov 2015 06:11:34 PM GMT UTC *
G04 For: ndholmes *
G04 Format: Gerber/RS-274X *
G04 PCB-Dimensions (mil): 1875.00 1000.00 *
G04 PCB-Coordinate-Origin: lower left *
%MOIN*%
%FSLAX25Y25*%
%LNTOPPASTE*%
%ADD82R,0.0630X0.0630*%
%ADD81R,0.0197X0.0197*%
%ADD80R,0.0787X0.0787*%
%ADD79R,0.0340X0.0340*%
%ADD78C,0.0001*%
%ADD77R,0.0945X0.0945*%
%ADD76R,0.0378X0.0378*%
%ADD75R,0.0200X0.0200*%
%ADD74R,0.0470X0.0470*%
%ADD73R,0.0512X0.0512*%
%ADD72R,0.0167X0.0167*%
G54D72*X74413Y34276D02*X76283D01*
X74413Y37425D02*X76283D01*
X74413Y40575D02*X76283D01*
X74413Y43724D02*X76283D01*
X67717D02*X69587D01*
X67717Y40575D02*X69587D01*
X67717Y37425D02*X69587D01*
X67717Y34276D02*X69587D01*
X45717Y60575D02*X47587D01*
X45717Y57425D02*X47587D01*
X52413D02*X54283D01*
X52413Y60575D02*X54283D01*
G54D73*X176543Y16393D02*Y15607D01*
X169457Y16393D02*Y15607D01*
G54D74*X73700Y84900D02*Y79750D01*
X83500Y84900D02*Y79750D01*
X93300Y84900D02*Y79750D01*
X73700Y63250D02*Y58100D01*
X83500Y63250D02*Y58100D01*
X93300Y63250D02*Y58100D01*
G54D73*X88543Y20893D02*Y20107D01*
X81457Y20893D02*Y20107D01*
G54D75*X108000Y77500D02*X114000D01*
X108000Y72500D02*X114000D01*
X108000Y67500D02*X114000D01*
X108000Y62500D02*X114000D01*
X108000Y57500D02*X114000D01*
X108000Y52500D02*X114000D01*
X108000Y47500D02*X114000D01*
X108000Y42500D02*X114000D01*
X108000Y37500D02*X114000D01*
X108000Y32500D02*X114000D01*
X144000D02*X150000D01*
X144000Y37500D02*X150000D01*
X144000Y42500D02*X150000D01*
X144000Y47500D02*X150000D01*
X144000Y52500D02*X150000D01*
X144000Y57500D02*X150000D01*
X144000Y62500D02*X150000D01*
X144000Y67500D02*X150000D01*
X144000Y72500D02*X150000D01*
X144000Y77500D02*X150000D01*
G54D76*X43311Y77594D02*X47405D01*
X35595Y83500D02*X47405D01*
G54D77*X31971D02*X33861D01*
G54D78*G36*
X37166Y80195D02*X40006Y83035D01*
X41426Y81615D01*
X38586Y78775D01*
X37166Y80195D01*
G37*
G36*
X38586Y88225D02*X41426Y85385D01*
X40006Y83965D01*
X37166Y86805D01*
X38586Y88225D01*
G37*
G54D76*X43311Y89406D02*X47405D01*
G54D79*X9600Y86100D02*Y85500D01*
X17400Y86100D02*Y85500D01*
X13500Y94300D02*Y93700D01*
G54D73*X16043Y77893D02*Y77107D01*
X8957Y77893D02*Y77107D01*
X56107Y84043D02*X56893D01*
X56107Y76957D02*X56893D01*
G54D80*X138843Y16000D02*X154591D01*
X103409D02*X119157D01*
G54D73*X88543Y10893D02*Y10107D01*
X81457Y10893D02*Y10107D01*
X105957Y94893D02*Y94107D01*
X113043Y94893D02*Y94107D01*
X105957Y85893D02*Y85107D01*
X113043Y85893D02*Y85107D01*
X166957Y81893D02*Y81107D01*
X174043Y81893D02*Y81107D01*
X25107Y14957D02*X25893D01*
X25107Y22043D02*X25893D01*
X13107Y14957D02*X13893D01*
X13107Y22043D02*X13893D01*
X35607Y14957D02*X36393D01*
X35607Y22043D02*X36393D01*
X46607Y14957D02*X47393D01*
X46607Y22043D02*X47393D01*
G54D81*X32587Y56299D02*X36917D01*
X32587Y53150D02*X36917D01*
X32587Y50000D02*X36917D01*
X32587Y46850D02*X36917D01*
X32587Y43701D02*X36917D01*
G54D82*X11524Y67126D02*X13098D01*
X11524Y32874D02*X13098D01*
X33177Y67126D02*X34752D01*
X33177Y32874D02*X34752D01*
G54D73*X46607Y38957D02*X47393D01*
X46607Y46043D02*X47393D01*
M02*
